<?xml version="1.0" encoding="UTF-8" standalone="no"?>
<!DOCTYPE svg PUBLIC "-//W3C//DTD SVG 1.1//EN"
"http://www.w3.org/Graphics/SVG/1.1/DTD/svg11.dtd">
<svg viewBox="0 0 909 1286" version="1.1" xmlns="http://www.w3.org/2000/svg" xmlns:xlink="http://www.w3.org/1999/xlink">
<defs>
<style type="text/css"><![CDATA[
.g0_59{
fill: #FFFFFF;
}
.g1_59{
}
.g2_59{
fill: #009900;
fill-opacity: 0.4;
}
]]></style>
</defs>
<path fill-rule="evenodd" d="M54.1,68H856.2V96.4H54.1V68l1.5,27H854.7V69.7H55.6V95L54.1,68Z" class="g0_59" />
<path fill-rule="evenodd" d="M55.6,93.3H855.1v3H55.6v-3Z" class="g1_59" />
<path fill-rule="evenodd" d="M55.6,68.2H855.1v3.1H55.6V68.2Z" class="g1_59" />
<path fill-rule="evenodd" d="M55,1176.4H852.7v2.4H55v-2.4Z" class="g1_59" />
<path fill-rule="evenodd" d="M453.9,1176.3V109.8h1.7V1176.3h-1.7Z" class="g1_59" />
<image preserveAspectRatio="none" x="180" y="112" width="549" height="935" xlink:href="img/1.png" />
<g fill="#000000" >
<use xlink:href="#f0_1e" transform="matrix(10,0,0,10,89.5,1067)" />
<use xlink:href="#f0_x" transform="matrix(10,0,0,10,103,1067)" />
<use xlink:href="#f0_1e" transform="matrix(10,0,0,10,114.2,1067)" />
<use xlink:href="#f0_21" transform="matrix(10,0,0,10,125.2,1067)" />
<use xlink:href="#f0_2h" transform="matrix(10,0,0,10,132,1067)" />
<use xlink:href="#f0_2g" transform="matrix(10,0,0,10,139.3,1067)" />
<use xlink:href="#f0_2e" transform="matrix(10,0,0,10,143.2,1067)" />
<use xlink:href="#f0_1x" transform="matrix(10,0,0,10,148.5,1067)" />
<use xlink:href="#f0_28" transform="matrix(10,0,0,10,154.9,1067)" />
<use xlink:href="#f0_12" transform="matrix(10,0,0,10,89.5,1092.5)" />
<use xlink:href="#f0_x" transform="matrix(10,0,0,10,102.1,1092.5)" />
<use xlink:href="#f0_12" transform="matrix(10,0,0,10,113.3,1092.5)" />
<use xlink:href="#f0_1x" transform="matrix(10,0,0,10,123.7,1092.5)" />
<use xlink:href="#f0_2f" transform="matrix(10,0,0,10,130.2,1092.5)" />
<use xlink:href="#f0_25" transform="matrix(10,0,0,10,136,1092.5)" />
<use xlink:href="#f0_1z" transform="matrix(10,0,0,10,139.9,1092.5)" />
<use xlink:href="#f0_11" transform="matrix(10,0,0,10,89.5,1117.8)" />
<use xlink:href="#f0_x" transform="matrix(10,0,0,10,102.1,1117.8)" />
<use xlink:href="#f0_11" transform="matrix(10,0,0,10,112.9,1117.8)" />
<use xlink:href="#f0_1z" transform="matrix(10,0,0,10,123.7,1117.8)" />
<use xlink:href="#f0_25" transform="matrix(10,0,0,10,130.5,1117.8)" />
<use xlink:href="#f0_20" transform="matrix(10,0,0,10,134.7,1117.8)" />
<use xlink:href="#f0_25" transform="matrix(10,0,0,10,142.6,1117.8)" />
<use xlink:href="#f0_1z" transform="matrix(10,0,0,10,146.7,1117.8)" />
<use xlink:href="#f1_12" transform="matrix(10,0,0,10,61.2,86.7)" />
<use xlink:href="#f1_19" transform="matrix(10,0,0,10,72.2,86.7)" />
<use xlink:href="#f1_1f" transform="matrix(10,0,0,10,78.3,86.7)" />
<use xlink:href="#f1_1d" transform="matrix(10,0,0,10,90.4,86.7)" />
<use xlink:href="#f1_1f" transform="matrix(10,0,0,10,104.7,86.7)" />
<use xlink:href="#f1_1c" transform="matrix(10,0,0,10,116.9,86.7)" />
<use xlink:href="#f1_15" transform="matrix(10,0,0,10,126.6,86.7)" />
<use xlink:href="#f1_13" transform="matrix(10,0,0,10,137.6,86.7)" />
<use xlink:href="#f1_1l" transform="matrix(10,0,0,10,148.8,86.7)" />
<use xlink:href="#f1_1c" transform="matrix(10,0,0,10,160,86.7)" />
<use xlink:href="#f1_15" transform="matrix(10,0,0,10,169.8,86.7)" />
<use xlink:href="#f1_1j" transform="matrix(10,0,0,10,180.7,86.7)" />
<use xlink:href="#f1_g" transform="matrix(10,0,0,10,190.8,86.7)" />
<use xlink:href="#f1_1g" transform="matrix(10,0,0,10,201.1,86.7)" />
<use xlink:href="#f1_1f" transform="matrix(10,0,0,10,211.1,86.7)" />
<use xlink:href="#f1_1c" transform="matrix(10,0,0,10,223.3,86.7)" />
<use xlink:href="#f1_1p" transform="matrix(10,0,0,10,233,86.7)" />
<use xlink:href="#f1_1d" transform="matrix(10,0,0,10,243.7,86.7)" />
<use xlink:href="#f1_15" transform="matrix(10,0,0,10,258,86.7)" />
<use xlink:href="#f1_1i" transform="matrix(10,0,0,10,268.9,86.7)" />
<use xlink:href="#f1_1j" transform="matrix(10,0,0,10,280.8,86.7)" />
<use xlink:href="#f1_g" transform="matrix(10,0,0,10,290.8,86.7)" />
<use xlink:href="#f1_13" transform="matrix(10,0,0,10,301.2,86.7)" />
<use xlink:href="#f1_18" transform="matrix(10,0,0,10,312.4,86.7)" />
<use xlink:href="#f1_15" transform="matrix(10,0,0,10,324.9,86.7)" />
<use xlink:href="#f1_1d" transform="matrix(10,0,0,10,335.8,86.7)" />
<use xlink:href="#f1_19" transform="matrix(10,0,0,10,350.1,86.7)" />
<use xlink:href="#f1_1j" transform="matrix(10,0,0,10,356.2,86.7)" />
<use xlink:href="#f1_1k" transform="matrix(10,0,0,10,366.2,86.7)" />
<use xlink:href="#f1_1i" transform="matrix(10,0,0,10,376.9,86.7)" />
<use xlink:href="#f1_1p" transform="matrix(10,0,0,10,388.7,86.7)" />
<use xlink:href="#f1_19" transform="matrix(10,0,0,10,404.5,86.7)" />
<use xlink:href="#f1_1e" transform="matrix(10,0,0,10,410.6,86.7)" />
<use xlink:href="#f1_15" transform="matrix(10,0,0,10,427,86.7)" />
<use xlink:href="#f1_1m" transform="matrix(10,0,0,10,438,86.7)" />
<use xlink:href="#f1_15" transform="matrix(10,0,0,10,448.9,86.7)" />
<use xlink:href="#f1_1i" transform="matrix(10,0,0,10,459.9,86.7)" />
<use xlink:href="#f1_1p" transform="matrix(10,0,0,10,471.7,86.7)" />
<use xlink:href="#f1_14" transform="matrix(10,0,0,10,482.4,86.7)" />
<use xlink:href="#f1_11" transform="matrix(10,0,0,10,494.2,86.7)" />
<use xlink:href="#f1_1p" transform="matrix(10,0,0,10,505.2,86.7)" />
<use xlink:href="#f1_1c" transform="matrix(10,0,0,10,521,86.7)" />
<use xlink:href="#f1_19" transform="matrix(10,0,0,10,530.7,86.7)" />
<use xlink:href="#f1_16" transform="matrix(10,0,0,10,536.8,86.7)" />
<use xlink:href="#f1_15" transform="matrix(10,0,0,10,547.2,86.7)" />
<use xlink:href="#f1_a" transform="matrix(10,0,0,10,563.3,86.7)" />
<use xlink:href="#f1_15" transform="matrix(10,0,0,10,580.6,86.7)" />
<use xlink:href="#f1_1e" transform="matrix(10,0,0,10,591.5,86.7)" />
<use xlink:href="#f1_1m" transform="matrix(10,0,0,10,602.8,86.7)" />
<use xlink:href="#f1_i" transform="matrix(10,0,0,10,613.7,86.7)" />
<use xlink:href="#f1_13" transform="matrix(10,0,0,10,624.1,86.7)" />
<use xlink:href="#f1_18" transform="matrix(10,0,0,10,635.3,86.7)" />
<use xlink:href="#f1_15" transform="matrix(10,0,0,10,647.8,86.7)" />
<use xlink:href="#f1_1d" transform="matrix(10,0,0,10,658.7,86.7)" />
<use xlink:href="#f1_19" transform="matrix(10,0,0,10,673,86.7)" />
<use xlink:href="#f1_1j" transform="matrix(10,0,0,10,679.1,86.7)" />
<use xlink:href="#f1_1k" transform="matrix(10,0,0,10,689.1,86.7)" />
<use xlink:href="#f1_1i" transform="matrix(10,0,0,10,699.8,86.7)" />
<use xlink:href="#f1_1p" transform="matrix(10,0,0,10,711.6,86.7)" />
</g>
<path d="M56,93.2H854.9V70.9H56V93.2Z" class="g2_59" />
<defs>
<path d="M911,-16L244,799V175c0,0,0,-93,21,-116c0,0,28,-32,86,-32h36V0H36V27H71c0,0,65,0,92,39c0,0,16,24,16,109V879c0,0,-44,52,-67,68c0,0,-23,17,-67,31c0,0,-21,7,-64,7v27H253L873,253V837c0,0,0,93,-21,116c0,0,-28,32,-87,32H730v27h351V985h-36c0,0,-64,0,-91,-39c0,0,-16,-24,-16,-109V-16Z" 
id="f0_1e"
transform="scale(0.001,-0.001)" />

<path d="M27,354v62H831V354Zm0,243v62H831V597Z" 
id="f0_x"
transform="scale(0.001,-0.001)" />

<path d="M479,469c0,0,-4,66,-16,93c0,0,-18,42,-55,65c0,0,-37,24,-78,24c0,0,-62,0,-111,-48c0,0,-48,-48,-57,-134ZM355,-20c0,0,-123,0,-211,95c0,0,-87,96,-87,258c0,0,0,175,90,273c0,0,89,98,225,98c0,0,115,0,189,-76c0,0,74,-75,74,-202H162c0,0,0,-152,74,-239c0,0,75,-86,175,-86c0,0,67,0,117,36c0,0,50,37,83,127l24,-15c0,0,-16,-102,-91,-186c0,0,-76,-83,-189,-83Z" 
id="f0_21"
transform="scale(0.001,-0.001)" />

<path d="M292,-20c0,0,-57,0,-100,33c0,0,-42,33,-58,85c0,0,-17,52,-17,148V551c0,0,0,49,-10,68c0,0,-11,18,-31,29c0,0,-19,9,-68,9c-2,0,-4,0,-6,0v26H242V226c0,0,0,-95,33,-125c0,0,33,-30,80,-30c0,0,32,0,73,21c0,0,40,20,96,76V555c0,0,0,59,-21,80c0,0,-22,21,-89,22v26H647V269c0,0,0,-119,6,-145c0,0,6,-27,18,-37c0,0,12,-11,29,-11c0,0,23,0,52,13L763,63L558,-20H524V124C524,124,436,29,390,4c0,0,-47,-24,-98,-24Z" 
id="f0_2h"
transform="scale(0.001,-0.001)" />

<path d="M255,-10c0,0,-35,0,-68,18c0,0,-32,19,-48,55c0,0,-16,35,-16,109V632H15v24c0,0,41,16,84,56c0,0,43,39,77,92c0,0,17,29,48,104h23V683H407V632H247V188c0,0,0,-66,19,-90c0,0,19,-23,49,-23c0,0,24,0,47,16c0,0,23,15,36,45h29c0,0,-26,-73,-74,-110c0,0,-47,-36,-98,-36Z" 
id="f0_2g"
transform="scale(0.001,-0.001)" />

<path d="M17,0V26c0,0,52,0,77,17c0,0,19,12,26,38c0,0,4,13,4,73V419c0,0,0,119,-5,142c0,0,-4,23,-17,33c0,0,-13,11,-33,11c0,0,-23,0,-52,-11l-7,26l207,83h31V549c0,0,86,154,176,154c0,0,41,0,68,-25c0,0,27,-25,27,-58c0,0,0,-29,-20,-49c0,0,-19,-20,-46,-20c0,0,-26,0,-58,25c0,0,-33,26,-48,26c0,0,-14,0,-29,-15c0,0,-34,-30,-70,-101V159c0,0,0,-56,15,-85c0,0,9,-20,34,-34c0,0,24,-14,71,-14V0Z" 
id="f0_2e"
transform="scale(0.001,-0.001)" />

<path d="M286,72c0,0,57,0,149,75V407c0,0,-113,-45,-145,-64c0,0,-59,-32,-85,-68c0,0,-25,-36,-25,-78c0,0,0,-54,32,-89c0,0,32,-36,74,-36ZM217,-13c0,0,-71,0,-116,48c0,0,-46,48,-46,127c0,0,0,50,22,87c0,0,31,50,106,95c0,0,76,45,252,109v26c0,0,0,102,-32,140c0,0,-32,38,-94,38c0,0,-47,0,-74,-25c0,0,-28,-25,-28,-58l1,-43c0,0,0,-34,-17,-53c0,0,-18,-18,-47,-18c0,0,-28,0,-45,19c0,0,-18,19,-18,53c0,0,0,64,66,117c0,0,65,54,184,54c0,0,91,0,149,-31c0,0,44,-23,65,-72c0,0,13,-32,13,-131V238c0,0,0,-98,4,-120c0,0,4,-22,12,-29c0,0,9,-8,20,-8c0,0,12,0,21,5c0,0,16,10,61,55V99C676,99,592,-12,516,-12c0,0,-37,0,-58,24c0,0,-22,26,-23,86C435,98,330,17,303,5c0,0,-40,-18,-86,-18Z" 
id="f0_1x"
transform="scale(0.001,-0.001)" />

<path d="M58,0V26c0,0,47,0,64,10c0,0,18,10,28,32c0,0,9,23,9,86V775c0,0,0,116,-5,142c0,0,-5,27,-17,37c0,0,-11,9,-29,9c0,0,-20,0,-49,-12L46,978l204,83h34V154c0,0,0,-64,9,-85c0,0,9,-21,29,-32c0,0,19,-11,72,-11V0Z" 
id="f0_28"
transform="scale(0.001,-0.001)" />

<path d="M485,53c0,0,135,0,206,61c0,0,71,60,71,150c0,0,0,59,-32,114c0,0,-33,54,-105,85c0,0,-72,32,-179,32c0,0,-46,0,-79,-2c0,0,-33,-1,-53,-5V73c0,0,86,-20,171,-20ZM455,547c0,0,109,0,164,23c0,0,55,24,84,72c0,0,29,49,29,106c0,0,0,89,-72,151c0,0,-73,63,-212,63c0,0,-74,0,-134,-16V557c0,0,27,-5,63,-8c0,0,35,-2,78,-2ZM24,0V27H63c0,0,63,0,91,41c0,0,17,26,17,111V833c0,0,0,94,-22,119c0,0,-29,33,-86,33H24v27H462c0,0,122,0,196,-18c0,0,112,-27,171,-95c0,0,59,-68,59,-157c0,0,0,-76,-46,-136c0,0,-47,-60,-137,-89c0,0,105,-23,157,-72c0,0,73,-69,73,-168c0,0,0,-75,-48,-145C887,132,839,63,756,32C756,32,673,0,502,0Z" 
id="f0_12"
transform="scale(0.001,-0.001)" />

<path d="M312,-20c0,0,-62,0,-143,22c0,0,-25,8,-40,8c0,0,-18,0,-27,-19H77V234h25c0,0,21,-105,80,-158c0,0,59,-53,132,-53c0,0,51,0,84,31c0,0,32,30,32,72c0,0,0,52,-36,87c0,0,-36,35,-144,88c0,0,-109,54,-142,97c0,0,-34,43,-34,107c0,0,0,85,58,141c0,0,58,57,150,57c0,0,40,0,97,-17c0,0,38,-11,51,-11c0,0,12,0,19,5c0,0,7,5,15,23h25V470H464c0,0,-28,110,-72,149c0,0,-45,40,-113,40c0,0,-53,0,-85,-28c0,0,-32,-27,-32,-61c0,0,0,-41,24,-71c0,0,23,-31,94,-65L389,381c0,0,152,-74,152,-194c0,0,0,-94,-71,-151c0,0,-70,-56,-158,-56Z" 
id="f0_2f"
transform="scale(0.001,-0.001)" />

<path d="M55,0V26c0,0,50,0,67,10c0,0,17,10,27,32c0,0,10,23,10,86V418c0,0,0,111,-6,144c0,0,-6,24,-17,33c0,0,-11,10,-30,10c0,0,-21,0,-51,-11L45,620l206,83h33V154c0,0,0,-64,9,-85c0,0,9,-22,27,-32c0,0,19,-11,67,-11V0ZM222,909c0,0,-32,0,-54,23c0,0,-22,22,-22,53c0,0,0,32,22,54c0,0,22,22,54,22c0,0,31,0,53,-22c0,0,22,-22,22,-54c0,0,0,-31,-22,-53c0,0,-22,-23,-53,-23Z" 
id="f0_25"
transform="scale(0.001,-0.001)" />

<path d="M342,-20c0,0,-116,0,-203,97c0,0,-86,98,-86,264c0,0,0,161,96,261c0,0,95,101,230,101c0,0,100,0,165,-53c0,0,65,-54,65,-111c0,0,0,-29,-18,-46c0,0,-18,-18,-51,-18c0,0,-44,0,-66,29c0,0,-13,15,-17,59c0,0,-4,45,-30,68c0,0,-26,22,-73,22c0,0,-74,0,-120,-55c0,0,-60,-73,-60,-193c0,0,0,-122,60,-216c0,0,60,-93,162,-93c0,0,73,0,131,49c0,0,41,35,80,126l22,-10C629,261,601,125,521,52c0,0,-81,-72,-179,-72Z" 
id="f0_1z"
transform="scale(0.001,-0.001)" />

<path d="M678,393L506,802L330,393ZM11,0V27c0,0,63,12,82,30c0,0,38,35,84,145l356,832h27L912,193c0,0,43,-101,77,-132c0,0,35,-30,97,-34V0H687V27c0,0,60,3,82,21c0,0,21,17,21,41c0,0,0,33,-30,104L700,338H307L239,179c0,0,-26,-59,-26,-88c0,0,0,-23,22,-41c0,0,22,-17,95,-23V0Z" 
id="f0_11"
transform="scale(0.001,-0.001)" />

<path d="M399,62c0,0,68,0,131,68V481c0,0,-5,51,-27,93c0,0,-22,42,-59,63c0,0,-37,21,-72,21c0,0,-65,0,-117,-59c0,0,-67,-77,-67,-226c0,0,0,-151,65,-231c0,0,66,-80,146,-80ZM330,-20c0,0,-112,0,-196,93c0,0,-83,94,-83,240c0,0,0,147,92,269c0,0,93,122,238,122c0,0,90,0,149,-58V773c0,0,0,117,-6,144c0,0,-5,27,-17,37c0,0,-12,9,-30,9c0,0,-20,0,-52,-12l-9,27l204,83h33V270c0,0,0,-120,6,-146c0,0,5,-27,18,-37c0,0,12,-11,28,-11c0,0,21,0,54,13l9,-26L564,-20H530V78C530,78,480,25,432,2c0,0,-47,-22,-102,-22Z" 
id="f0_20"
transform="scale(0.001,-0.001)" />

<path d="M578,166c0,0,66,0,109,13c0,0,44,12,74,51c0,0,31,39,31,93c0,0,0,46,-22,78c0,0,-21,33,-64,49c0,0,-44,16,-132,16H439V241c0,0,1,-48,4,-56c0,0,3,-11,12,-15c0,0,9,-4,47,-4ZM553,619c0,0,90,0,132,15c0,0,43,15,65,45c0,0,21,30,21,70c0,0,0,41,-20,70c0,0,-21,30,-59,42c0,0,-39,12,-139,12H439V619ZM58,0V144h42c0,0,41,0,55,7c0,0,15,7,21,20c0,0,6,13,6,59V810c0,0,0,46,-6,59c0,0,-6,13,-21,20c0,0,-14,8,-55,8H59v143H650c0,0,135,0,213,-31c0,0,77,-32,119,-91c0,0,42,-60,42,-130c0,0,0,-52,-22,-98c0,0,-22,-46,-64,-82c0,0,-41,-35,-109,-58c0,0,73,-19,111,-41c0,0,56,-32,89,-88c0,0,33,-56,33,-126c0,0,0,-82,-50,-152c0,0,-50,-70,-141,-106C871,37,780,0,604,0Z" 
id="f1_12"
transform="scale(0.001,-0.001)" />

<path d="M52,0V144H93c0,0,44,0,58,6c0,0,13,6,20,20c0,0,6,14,6,55V803c0,0,0,49,-6,64c0,0,-7,15,-22,24c0,0,-10,6,-51,6H52v143H559V897H513c0,0,-40,0,-53,-7c0,0,-13,-8,-20,-23c0,0,-6,-15,-6,-58V233c0,0,0,-47,5,-61c0,0,6,-13,18,-19c0,0,16,-9,47,-9h55V0Z" 
id="f1_19"
transform="scale(0.001,-0.001)" />

<path d="M611,148c0,0,117,0,187,88c0,0,83,105,83,281c0,0,0,124,-35,208c0,0,-36,84,-96,126c0,0,-61,42,-132,42c0,0,-118,0,-189,-89c0,0,-88,-112,-88,-289c0,0,0,-176,82,-279c0,0,71,-88,188,-88ZM608,-17c0,0,-231,0,-378,126C230,109,53,262,53,518c0,0,0,237,155,389c0,0,156,151,407,151c0,0,248,0,401,-151c0,0,153,-150,153,-386c0,0,0,-159,-70,-282c0,0,-70,-123,-193,-190c0,0,-124,-66,-298,-66Z" 
id="f1_1f"
transform="scale(0.001,-0.001)" />

<path d="M59,0V144h42c0,0,39,0,54,7c0,0,15,7,22,22c0,0,7,15,7,57V813c0,0,0,40,-5,52c0,0,-7,17,-21,24c0,0,-13,8,-42,8H59v143H530L711,408l185,632h481V897h-52c0,0,-41,0,-57,-18c0,0,-16,-17,-16,-66V222c0,0,0,-39,4,-48c0,0,7,-15,19,-21c0,0,16,-9,43,-9h59V0H876V144h39c0,0,42,0,57,6c0,0,15,7,22,21c0,0,7,14,7,51V862L748,0H604L359,835V202c0,0,0,-22,8,-34c0,0,8,-12,22,-18c0,0,15,-6,47,-6h50V0Z" 
id="f1_1d"
transform="scale(0.001,-0.001)" />

<path d="M63,0V144h49c0,0,31,0,46,8c0,0,16,8,23,22c0,0,7,14,7,48V812c0,0,0,37,-7,53c0,0,-7,17,-20,24c0,0,-13,8,-44,8H63v143H570V897H526c0,0,-37,0,-47,-4c0,0,-18,-8,-26,-23c0,0,-8,-15,-8,-49V226c0,0,0,-36,3,-44c0,0,4,-8,14,-13c0,0,10,-5,40,-5c0,0,100,0,161,26c0,0,61,27,110,84c0,0,49,58,84,158L994,385L857,0Z" 
id="f1_1c"
transform="scale(0.001,-0.001)" />

<path d="M59,0V144H85c0,0,52,0,70,7c0,0,18,8,25,26c0,0,4,11,4,64V808c0,0,0,46,-7,60c0,0,-6,14,-19,22c0,0,-14,7,-53,7H59v143H928L1046,712L911,663c0,0,-34,81,-80,130c0,0,-46,49,-102,65c0,0,-55,16,-129,16H441V615h52c0,0,59,0,80,9c0,0,20,8,29,26c0,0,9,19,9,73v40H744V322H611v45c0,0,0,45,-11,66c0,0,-11,21,-29,29c0,0,-19,7,-83,7H441V230c0,0,0,-38,4,-47c0,0,3,-8,14,-12c0,0,11,-5,47,-5h87c0,0,98,0,165,28c0,0,67,28,120,91c0,0,53,63,81,149l136,-47L959,0Z" 
id="f1_15"
transform="scale(0.001,-0.001)" />

<path d="M579,-17c0,0,-147,0,-266,70c0,0,-119,70,-189,197c0,0,-71,127,-71,277c0,0,0,149,69,271c0,0,69,123,187,191c0,0,119,69,265,69c0,0,149,0,260,-62l25,44H965L1067,667L928,627c0,0,-69,133,-130,189c0,0,-85,77,-185,77c0,0,-72,0,-135,-41c0,0,-63,-40,-100,-118c0,0,-37,-78,-37,-183c0,0,0,-161,85,-276c0,0,85,-116,222,-116c0,0,87,0,168,50c0,0,100,62,173,167l116,-86C1105,290,992,136,899,76c0,0,-144,-93,-320,-93Z" 
id="f1_13"
transform="scale(0.001,-0.001)" />

<path d="M561,-17c0,0,-97,0,-173,29c0,0,-76,29,-133,84c0,0,-57,55,-80,116c0,0,-22,61,-22,181V794c0,0,0,56,-6,72c0,0,-6,16,-20,23c0,0,-13,8,-52,8H27v143H536V897H486c0,0,-35,0,-49,-9c0,0,-15,-8,-22,-23c0,0,-6,-15,-6,-62V424c0,0,0,-106,21,-158c0,0,21,-52,64,-79c0,0,43,-28,105,-28c0,0,61,0,109,30c0,0,48,30,68,76c0,0,21,46,21,152V834c0,0,0,26,-7,37c0,0,-9,15,-24,21c0,0,-10,5,-53,5H673v143h429V897h-34c0,0,-49,0,-61,-6c0,0,-18,-9,-26,-26c0,0,-6,-12,-6,-62V393c0,0,0,-114,-33,-191C942,202,896,98,797,40c0,0,-100,-57,-236,-57Z" 
id="f1_1l"
transform="scale(0.001,-0.001)" />

<path d="M567,-17c0,0,-83,0,-152,21c0,0,-70,21,-145,71L237,0H126L52,404l140,33c0,0,49,-123,153,-205c0,0,104,-82,228,-82c0,0,56,0,93,14c0,0,37,14,56,39c0,0,18,25,18,52c0,0,0,45,-43,77c0,0,-44,32,-154,63L369,446c0,0,-40,11,-107,42c0,0,-68,31,-104,64c0,0,-36,34,-60,86c0,0,-24,53,-24,111c0,0,0,83,46,153c0,0,46,69,138,113c0,0,92,43,204,43c0,0,135,0,244,-70l29,52H842L932,692L792,652c0,0,-69,125,-157,183c0,0,-88,58,-187,58c0,0,-64,0,-101,-26c0,0,-37,-27,-37,-59c0,0,0,-36,34,-67c0,0,32,-32,121,-56L665,626c0,0,166,-47,237,-126c0,0,70,-80,70,-186c0,0,0,-135,-107,-229C865,85,745,-17,567,-17Z" 
id="f1_1j"
transform="scale(0.001,-0.001)" />

<path d="M200,-281l-84,93c0,0,98,89,124,124c0,0,26,35,42,85C282,21,268,10,253,5C253,5,238,0,223,0c0,0,-42,0,-75,36c0,0,-33,36,-33,86c0,0,0,60,42,100c0,0,41,41,101,41c0,0,44,0,85,-25c0,0,41,-25,63,-69c0,0,22,-43,22,-101c0,0,0,-93,-62,-183c0,0,-63,-90,-166,-166Z" 
id="f1_g"
transform="scale(0.001,-0.001)" />

<path d="M532,575c0,0,81,0,119,17c0,0,38,16,61,51c0,0,23,35,23,83c0,0,0,71,-55,113c0,0,-41,31,-121,31H443V575ZM61,0V144H96c0,0,46,0,61,6c0,0,15,7,22,22c0,0,7,14,7,60V804c0,0,0,48,-6,63c0,0,-6,15,-19,23c0,0,-13,7,-50,7H61v143H611c0,0,104,0,173,-21c0,0,69,-21,119,-64c0,0,49,-44,76,-103c0,0,27,-59,27,-126c0,0,0,-133,-102,-223c0,0,-103,-90,-284,-90H443V218c0,0,0,-37,5,-47c0,0,7,-14,21,-21c0,0,13,-6,46,-6h53V0Z" 
id="f1_1g"
transform="scale(0.001,-0.001)" />

<path d="M280,0V144h27c0,0,54,0,69,7c0,0,15,7,23,24c0,0,8,16,8,67V405L129,827c0,0,-33,49,-57,61c0,0,-18,9,-71,9v143H518V897H479c0,0,-41,0,-51,-7c0,0,-11,-6,-11,-20c0,0,0,-20,24,-59L579,586L730,821c0,0,20,31,22,34c0,0,3,9,3,17c0,0,0,13,-8,19c0,0,-9,6,-40,6H653v143h416V897c0,0,-55,-1,-77,-13c0,0,-22,-12,-52,-57L663,422V236c0,0,0,-49,6,-64c0,0,7,-14,22,-21c0,0,15,-7,60,-7h37V0Z" 
id="f1_1p"
transform="scale(0.001,-0.001)" />

<path d="M593,600c0,0,92,0,137,17c0,0,45,17,68,48c0,0,22,31,22,76c0,0,0,41,-21,71c0,0,-21,29,-60,43c0,0,-40,14,-128,14H439V600ZM55,0V144h46c0,0,37,0,52,8c0,0,16,7,23,23c0,0,4,9,4,56V816c0,0,0,35,-6,49c0,0,-5,15,-18,19c0,0,-18,8,-41,8H55v148H697c0,0,62,0,135,-11c0,0,74,-11,133,-49c0,0,60,-38,92,-96c0,0,33,-59,33,-132c0,0,0,-118,-84,-192c0,0,-85,-73,-201,-96L1019,215l9,-11c0,0,21,-25,38,-38c0,0,17,-12,34,-17c0,0,18,-5,48,-5h45V0H859L526,448H439V241c0,0,0,-54,6,-69c0,0,6,-14,19,-21c0,0,13,-7,52,-7h48V0Z" 
id="f1_1i"
transform="scale(0.001,-0.001)" />

<path d="M54,0V144H88c0,0,44,0,61,7c0,0,17,8,24,21c0,0,6,14,6,59V797c0,0,0,53,-6,69c0,0,-7,16,-20,23c0,0,-14,8,-53,8H54v143H561V897H515c0,0,-39,0,-53,-8c0,0,-14,-8,-20,-23c0,0,-6,-14,-6,-63V622H815V817c0,0,0,36,-4,48c0,0,-6,18,-20,25c0,0,-14,7,-63,7H688v143h510V897h-43c0,0,-43,0,-57,-7c0,0,-14,-8,-20,-21c0,0,-5,-14,-5,-66V239c0,0,0,-52,7,-67c0,0,7,-16,21,-22c0,0,15,-6,67,-6h30V0H688V144h34c0,0,47,0,64,7c0,0,17,8,23,22c0,0,6,14,6,66V460H436V239c0,0,0,-52,5,-65c0,0,7,-18,22,-24c0,0,16,-6,63,-6h35V0Z" 
id="f1_18"
transform="scale(0.001,-0.001)" />

<path d="M280,0V144h30c0,0,51,0,66,6c0,0,14,6,21,22c0,0,8,17,8,67V851c0,0,0,26,-6,33c0,0,-6,7,-26,7c0,0,-38,0,-86,-29c0,0,-48,-29,-85,-82c0,0,-15,-21,-63,-118L2,711l128,365h99l10,-36H826l13,36h99L1067,711L928,662c0,0,-46,91,-66,119c0,0,-40,55,-92,86c0,0,-38,24,-77,24c0,0,-18,0,-24,-9c0,0,-7,-8,-7,-39V244c0,0,0,-53,4,-66c0,0,3,-13,12,-21c0,0,9,-8,25,-11c0,0,16,-2,84,-2V0Z" 
id="f1_1k"
transform="scale(0.001,-0.001)" />

<path d="M59,0V144h44c0,0,37,0,51,6c0,0,14,6,22,22c0,0,8,16,8,47V816c0,0,0,34,-8,50c0,0,-7,16,-20,24c0,0,-12,7,-42,7H59v143H480L786,433V805c0,0,0,48,-5,60c0,0,-8,17,-20,25c0,0,-13,7,-49,7H661v143h428V897h-47c0,0,-36,0,-51,-9c0,0,-15,-8,-21,-22c0,0,-6,-14,-6,-61V0H750L364,767V230c0,0,0,-46,5,-59c0,0,6,-12,20,-20c0,0,15,-7,50,-7h50V0Z" 
id="f1_1e"
transform="scale(0.001,-0.001)" />

<path d="M433,0L117,807c0,0,-20,49,-30,62c0,0,-11,14,-30,21c0,0,-16,7,-49,7c-2,0,-4,0,-6,0v143H497V897H481c0,0,-47,0,-60,-4c0,0,-13,-4,-22,-16c0,0,-9,-12,-9,-24c0,0,0,-16,17,-65L591,271L787,802c0,0,15,39,15,54c0,0,0,21,-14,31c0,0,-14,10,-60,10H696v143h403V897c0,0,-50,0,-67,-12c0,0,-26,-17,-52,-83L668,0Z" 
id="f1_1m"
transform="scale(0.001,-0.001)" />

<path d="M514,166c0,0,122,0,191,38c0,0,69,38,111,121c0,0,43,83,43,199c0,0,0,113,-40,197c0,0,-40,84,-99,119c0,0,-59,34,-168,34H437V226c0,0,0,-33,4,-40c0,0,6,-12,17,-16c0,0,12,-4,56,-4ZM55,0V144H91c0,0,46,0,60,7c0,0,15,8,24,26c0,0,6,14,6,61V807c0,0,0,48,-6,62c0,0,-7,13,-21,21c0,0,-15,7,-62,7H56v143H601c0,0,186,0,296,-59c0,0,110,-58,175,-174c0,0,65,-116,65,-278c0,0,0,-112,-33,-201c0,0,-33,-89,-99,-160c0,0,-66,-71,-141,-107C864,61,807,34,703,17C703,17,599,0,536,0Z" 
id="f1_14"
transform="scale(0.001,-0.001)" />

<path d="M610,480L509,765L404,480ZM2,0V144c0,0,39,0,56,6c0,0,18,7,30,21c0,0,11,13,25,49l322,820H669L981,237c0,0,25,-64,45,-79c0,0,19,-14,68,-14c2,0,3,0,5,0V0H606V144h30c0,0,41,0,58,11c0,0,16,11,16,27c0,0,0,13,-14,55l-32,94H349L310,226c0,0,-12,-33,-12,-44c0,0,0,-11,8,-21c0,0,9,-10,28,-14c0,0,13,-3,71,-3V0Z" 
id="f1_11"
transform="scale(0.001,-0.001)" />

<path d="M59,0V144H92c0,0,57,0,74,14c0,0,18,15,18,59V815c0,0,0,41,-7,55c0,0,-7,13,-22,20c0,0,-16,7,-63,7H59v143H919L1037,709L902,662c0,0,-33,72,-63,109c0,0,-29,37,-70,61c0,0,-41,25,-89,33c0,0,-32,5,-114,5H438V594h66c0,0,37,0,58,12c0,0,22,11,31,29c0,0,9,18,9,60v55H736V284H602v67c0,0,0,29,-5,43c0,0,-7,18,-19,29c0,0,-12,11,-27,15c0,0,-15,5,-55,5H438V224c0,0,0,-39,7,-53c0,0,6,-14,21,-21c0,0,15,-6,58,-6h42V0Z" 
id="f1_16"
transform="scale(0.001,-0.001)" />

<path d="M495,160c0,0,61,0,122,27c0,0,-17,28,-29,62L548,388c0,0,-22,73,-35,102c0,0,-13,29,-26,45c0,0,-13,16,-34,32c0,0,-73,-37,-110,-92c0,0,-37,-56,-37,-119c0,0,0,-82,56,-139c0,0,55,-57,133,-57ZM453,713c0,0,19,0,38,12c0,0,20,12,28,33c0,0,12,26,12,59c0,0,0,52,-22,78c0,0,-23,25,-54,25c0,0,-34,0,-56,-27c0,0,-22,-27,-22,-80c0,0,0,-46,23,-73c0,0,22,-27,53,-27ZM434,-17c0,0,-169,0,-274,96C160,79,55,176,55,316c0,0,0,117,67,204c0,0,52,68,177,138c0,0,-52,33,-79,77c0,0,-26,45,-26,99c0,0,0,93,72,159c0,0,73,65,190,65c0,0,120,0,187,-60c0,0,67,-60,67,-151c0,0,0,-76,-38,-130c0,0,-30,-42,-90,-72c0,0,41,-19,65,-40c0,0,33,-29,67,-79c0,0,21,-33,84,-160c0,0,43,98,43,141c0,0,0,12,-7,21c0,0,-8,9,-20,11c0,0,-9,3,-59,3V684h366V542h-45c0,0,-38,0,-53,-8c0,0,-15,-7,-25,-25c0,0,-6,-10,-24,-83c0,0,-13,-47,-40,-105c0,0,-27,-58,-60,-105c0,0,33,-50,55,-65c0,0,22,-16,45,-16c0,0,26,0,44,17c0,0,17,18,17,46c0,0,0,26,-22,64c0,0,-22,35,-22,60c0,0,0,38,30,67c0,0,30,29,72,29c0,0,54,0,91,-44c0,0,37,-44,37,-123c0,0,0,-117,-82,-193c0,0,-83,-75,-218,-75c0,0,-68,0,-113,17c0,0,-45,17,-97,65c0,0,-119,-82,-277,-82Z" 
id="f1_a"
transform="scale(0.001,-0.001)" />

<path d="M261,-11c0,0,-58,0,-99,40c0,0,-41,41,-41,98c0,0,0,58,41,98c0,0,41,41,99,41c0,0,57,0,98,-41c0,0,41,-40,41,-98c0,0,0,-57,-41,-98c0,0,-41,-40,-98,-40Z" 
id="f1_i"
transform="scale(0.001,-0.001)" />


</defs>
</svg>