<?xml version="1.0" encoding="UTF-8" standalone="no"?>
<!DOCTYPE svg PUBLIC "-//W3C//DTD SVG 1.1//EN"
"http://www.w3.org/Graphics/SVG/1.1/DTD/svg11.dtd">
<svg viewBox="0 0 909 1286" version="1.1" xmlns="http://www.w3.org/2000/svg" xmlns:xlink="http://www.w3.org/1999/xlink">
<defs>
<style type="text/css"><![CDATA[
.g0_66{
}
.g1_66{
fill: #FFFFFF;
}
.g2_66{
fill: #009900;
fill-opacity: 0.4;
}
]]></style>
</defs>
<g fill="#000000" >
<use xlink:href="#f0_2a" transform="matrix(10,0,0,10,89.1,123)" />
<use xlink:href="#f0_25" transform="matrix(10,0,0,10,96.6,123)" />
<use xlink:href="#f0_2g" transform="matrix(10,0,0,10,100.8,123)" />
<use xlink:href="#f0_2e" transform="matrix(10,0,0,10,105.1,123)" />
<use xlink:href="#f0_1x" transform="matrix(10,0,0,10,110.4,123)" />
<use xlink:href="#f0_2g" transform="matrix(10,0,0,10,117.2,123)" />
<use xlink:href="#f0_25" transform="matrix(10,0,0,10,121.2,123)" />
<use xlink:href="#f0_2b" transform="matrix(10,0,0,10,125.4,123)" />
<use xlink:href="#f0_2a" transform="matrix(10,0,0,10,133.3,123)" />
<use xlink:href="#f0_2b" transform="matrix(10,0,0,10,144.1,123)" />
<use xlink:href="#f0_22" transform="matrix(10,0,0,10,152,123)" />
<use xlink:href="#f0_2g" transform="matrix(10,0,0,10,160.2,123)" />
<use xlink:href="#f0_24" transform="matrix(10,0,0,10,164.5,123)" />
<use xlink:href="#f0_21" transform="matrix(10,0,0,10,172,123)" />
<use xlink:href="#f0_1y" transform="matrix(10,0,0,10,182.4,123)" />
<use xlink:href="#f0_21" transform="matrix(10,0,0,10,190,123)" />
<use xlink:href="#f0_2a" transform="matrix(10,0,0,10,196.7,123)" />
<use xlink:href="#f0_2m" transform="matrix(10,0,0,10,204.3,123)" />
<use xlink:href="#f0_21" transform="matrix(10,0,0,10,211,123)" />
<use xlink:href="#f0_2a" transform="matrix(10,0,0,10,218,123)" />
<use xlink:href="#f0_21" transform="matrix(10,0,0,10,225.3,123)" />
<use xlink:href="#f0_2e" transform="matrix(10,0,0,10,235.6,123)" />
<use xlink:href="#f0_25" transform="matrix(10,0,0,10,240.7,123)" />
<use xlink:href="#f0_2a" transform="matrix(10,0,0,10,245,123)" />
<use xlink:href="#f0_23" transform="matrix(10,0,0,10,252.7,123)" />
<use xlink:href="#f0_i" transform="matrix(10,0,0,10,260.2,123)" />
<use xlink:href="#f0_11" transform="matrix(10,0,0,10,266.4,123)" />
<use xlink:href="#f0_2a" transform="matrix(10,0,0,10,277.2,123)" />
<use xlink:href="#f0_25" transform="matrix(10,0,0,10,288.2,123)" />
<use xlink:href="#f0_29" transform="matrix(10,0,0,10,292.4,123)" />
<use xlink:href="#f0_2c" transform="matrix(10,0,0,10,304,123)" />
<use xlink:href="#f0_2b" transform="matrix(10,0,0,10,311.9,123)" />
<use xlink:href="#f0_2e" transform="matrix(10,0,0,10,319.6,123)" />
<use xlink:href="#f0_2g" transform="matrix(10,0,0,10,324.7,123)" />
<use xlink:href="#f0_1x" transform="matrix(10,0,0,10,328.9,123)" />
<use xlink:href="#f0_2a" transform="matrix(10,0,0,10,335.5,123)" />
<use xlink:href="#f0_2g" transform="matrix(10,0,0,10,343.1,123)" />
<use xlink:href="#f0_21" transform="matrix(10,0,0,10,350.8,123)" />
<use xlink:href="#f0_2k" transform="matrix(10,0,0,10,357.7,123)" />
<use xlink:href="#f0_1x" transform="matrix(10,0,0,10,365.1,123)" />
<use xlink:href="#f0_29" transform="matrix(10,0,0,10,372,123)" />
<use xlink:href="#f0_2c" transform="matrix(10,0,0,10,383.6,123)" />
<use xlink:href="#f0_28" transform="matrix(10,0,0,10,391.1,123)" />
<use xlink:href="#f0_21" transform="matrix(10,0,0,10,395.3,123)" />
<use xlink:href="#f0_2b" transform="matrix(10,0,0,10,405.7,123)" />
<use xlink:href="#f0_22" transform="matrix(10,0,0,10,413.2,123)" />
<use xlink:href="#f0_2g" transform="matrix(10,0,0,10,421.7,123)" />
<use xlink:href="#f0_24" transform="matrix(10,0,0,10,425.9,123)" />
<use xlink:href="#f0_25" transform="matrix(10,0,0,10,433.6,123)" />
<use xlink:href="#f0_2f" transform="matrix(10,0,0,10,437.6,123)" />
<use xlink:href="#f0_2g" transform="matrix(10,0,0,10,89.1,145.6)" />
<use xlink:href="#f0_21" transform="matrix(10,0,0,10,93.5,145.6)" />
<use xlink:href="#f0_2f" transform="matrix(10,0,0,10,100.3,145.6)" />
<use xlink:href="#f0_2g" transform="matrix(10,0,0,10,106,145.6)" />
<use xlink:href="#f0_25" transform="matrix(10,0,0,10,114.6,145.6)" />
<use xlink:href="#f0_2f" transform="matrix(10,0,0,10,118.6,145.6)" />
<use xlink:href="#f0_2g" transform="matrix(10,0,0,10,128.7,145.6)" />
<use xlink:href="#f0_24" transform="matrix(10,0,0,10,132.7,145.6)" />
<use xlink:href="#f0_1x" transform="matrix(10,0,0,10,140.4,145.6)" />
<use xlink:href="#f0_2g" transform="matrix(10,0,0,10,147.2,145.6)" />
<use xlink:href="#f0_2j" transform="matrix(10,0,0,10,155.5,145.6)" />
<use xlink:href="#f0_24" transform="matrix(10,0,0,10,166.1,145.6)" />
<use xlink:href="#f0_21" transform="matrix(10,0,0,10,173.8,145.6)" />
<use xlink:href="#f0_2a" transform="matrix(10,0,0,10,180.6,145.6)" />
<use xlink:href="#f0_1z" transform="matrix(10,0,0,10,192.1,145.6)" />
<use xlink:href="#f0_2b" transform="matrix(10,0,0,10,198.7,145.6)" />
<use xlink:href="#f0_2a" transform="matrix(10,0,0,10,206.6,145.6)" />
<use xlink:href="#f0_1z" transform="matrix(10,0,0,10,214,145.6)" />
<use xlink:href="#f0_i" transform="matrix(10,0,0,10,220.9,145.6)" />
<use xlink:href="#f0_18" transform="matrix(10,0,0,10,229,145.6)" />
<use xlink:href="#f0_1e" transform="matrix(10,0,0,10,240,145.6)" />
<use xlink:href="#f0_1f" transform="matrix(10,0,0,10,251,145.6)" />
<use xlink:href="#f0_n" transform="matrix(7,0,0,7,261.8,151.6)" />
<use xlink:href="#f0_25" transform="matrix(10,0,0,10,271.5,145.6)" />
<use xlink:href="#f0_2f" transform="matrix(10,0,0,10,275.6,145.6)" />
<use xlink:href="#f0_2f" transform="matrix(10,0,0,10,285.6,145.6)" />
<use xlink:href="#f0_2c" transform="matrix(10,0,0,10,291.3,145.6)" />
<use xlink:href="#f0_25" transform="matrix(10,0,0,10,299.2,145.6)" />
<use xlink:href="#f0_28" transform="matrix(10,0,0,10,303.2,145.6)" />
<use xlink:href="#f0_28" transform="matrix(10,0,0,10,307.5,145.6)" />
<use xlink:href="#f0_21" transform="matrix(10,0,0,10,311.7,145.6)" />
<use xlink:href="#f0_20" transform="matrix(10,0,0,10,318.6,145.6)" />
<use xlink:href="#f0_2b" transform="matrix(10,0,0,10,330.4,145.6)" />
<use xlink:href="#f0_2a" transform="matrix(10,0,0,10,338.3,145.6)" />
<use xlink:href="#f0_2l" transform="matrix(10,0,0,10,350,145.6)" />
<use xlink:href="#f0_2b" transform="matrix(10,0,0,10,357.1,145.6)" />
<use xlink:href="#f0_2h" transform="matrix(10,0,0,10,365,145.6)" />
<use xlink:href="#f0_2e" transform="matrix(10,0,0,10,372.4,145.6)" />
<use xlink:href="#f0_24" transform="matrix(10,0,0,10,381.5,145.6)" />
<use xlink:href="#f0_1x" transform="matrix(10,0,0,10,389.2,145.6)" />
<use xlink:href="#f0_2a" transform="matrix(10,0,0,10,396,145.6)" />
<use xlink:href="#f0_20" transform="matrix(10,0,0,10,403.3,145.6)" />
<use xlink:href="#f0_2f" transform="matrix(10,0,0,10,411.2,145.6)" />
<use xlink:href="#f0_g" transform="matrix(10,0,0,10,416.9,145.6)" />
<use xlink:href="#f0_2g" transform="matrix(10,0,0,10,425,145.6)" />
<use xlink:href="#f0_24" transform="matrix(10,0,0,10,429.2,145.6)" />
<use xlink:href="#f0_21" transform="matrix(10,0,0,10,436.9,145.6)" />
<use xlink:href="#f0_2f" transform="matrix(10,0,0,10,89.1,166.6)" />
<use xlink:href="#f0_27" transform="matrix(10,0,0,10,95.1,166.6)" />
<use xlink:href="#f0_25" transform="matrix(10,0,0,10,102.5,166.6)" />
<use xlink:href="#f0_2a" transform="matrix(10,0,0,10,106.9,166.6)" />
<use xlink:href="#f0_2g" transform="matrix(10,0,0,10,119.9,166.6)" />
<use xlink:href="#f0_2h" transform="matrix(10,0,0,10,123.9,166.6)" />
<use xlink:href="#f0_2e" transform="matrix(10,0,0,10,131.6,166.6)" />
<use xlink:href="#f0_2a" transform="matrix(10,0,0,10,136.6,166.6)" />
<use xlink:href="#f0_2f" transform="matrix(10,0,0,10,144.1,166.6)" />
<use xlink:href="#f0_2l" transform="matrix(10,0,0,10,155.5,166.6)" />
<use xlink:href="#f0_21" transform="matrix(10,0,0,10,162.8,166.6)" />
<use xlink:href="#f0_28" transform="matrix(10,0,0,10,169.8,166.6)" />
<use xlink:href="#f0_28" transform="matrix(10,0,0,10,174,166.6)" />
<use xlink:href="#f0_2b" transform="matrix(10,0,0,10,178.2,166.6)" />
<use xlink:href="#f0_2j" transform="matrix(10,0,0,10,185.7,166.6)" />
<use xlink:href="#f0_20" transform="matrix(10,0,0,10,201.7,166.6)" />
<use xlink:href="#f0_2h" transform="matrix(10,0,0,10,209.6,166.6)" />
<use xlink:href="#f0_21" transform="matrix(10,0,0,10,216.9,166.6)" />
<use xlink:href="#f0_2g" transform="matrix(10,0,0,10,229.4,166.6)" />
<use xlink:href="#f0_2b" transform="matrix(10,0,0,10,233.6,166.6)" />
<use xlink:href="#f0_2a" transform="matrix(10,0,0,10,246.8,166.6)" />
<use xlink:href="#f0_25" transform="matrix(10,0,0,10,254.1,166.6)" />
<use xlink:href="#f0_2g" transform="matrix(10,0,0,10,258.5,166.6)" />
<use xlink:href="#f0_2e" transform="matrix(10,0,0,10,262.7,166.6)" />
<use xlink:href="#f0_1x" transform="matrix(10,0,0,10,267.9,166.6)" />
<use xlink:href="#f0_2g" transform="matrix(10,0,0,10,274.7,166.6)" />
<use xlink:href="#f0_25" transform="matrix(10,0,0,10,278.9,166.6)" />
<use xlink:href="#f0_2b" transform="matrix(10,0,0,10,282.9,166.6)" />
<use xlink:href="#f0_2a" transform="matrix(10,0,0,10,290.6,166.6)" />
<use xlink:href="#f0_2b" transform="matrix(10,0,0,10,303.8,166.6)" />
<use xlink:href="#f0_22" transform="matrix(10,0,0,10,311.3,166.6)" />
<use xlink:href="#f0_1y" transform="matrix(10,0,0,10,322,166.6)" />
<use xlink:href="#f0_21" transform="matrix(10,0,0,10,329.5,166.6)" />
<use xlink:href="#f0_2a" transform="matrix(10,0,0,10,336.4,166.6)" />
<use xlink:href="#f0_2m" transform="matrix(10,0,0,10,343.8,166.6)" />
<use xlink:href="#f0_21" transform="matrix(10,0,0,10,350.7,166.6)" />
<use xlink:href="#f0_2a" transform="matrix(10,0,0,10,357.5,166.6)" />
<use xlink:href="#f0_21" transform="matrix(10,0,0,10,364.9,166.6)" />
<use xlink:href="#f0_2e" transform="matrix(10,0,0,10,377.1,166.6)" />
<use xlink:href="#f0_25" transform="matrix(10,0,0,10,382.3,166.6)" />
<use xlink:href="#f0_2a" transform="matrix(10,0,0,10,386.3,166.6)" />
<use xlink:href="#f0_23" transform="matrix(10,0,0,10,394,166.6)" />
<use xlink:href="#f0_2b" transform="matrix(10,0,0,10,406.8,166.6)" />
<use xlink:href="#f0_22" transform="matrix(10,0,0,10,414.7,166.6)" />
<use xlink:href="#f0_2g" transform="matrix(10,0,0,10,425,166.6)" />
<use xlink:href="#f0_24" transform="matrix(10,0,0,10,429.2,166.6)" />
<use xlink:href="#f0_21" transform="matrix(10,0,0,10,436.9,166.6)" />
<use xlink:href="#f0_1x" transform="matrix(10,0,0,10,89.1,186.6)" />
<use xlink:href="#f0_29" transform="matrix(10,0,0,10,96.1,186.6)" />
<use xlink:href="#f0_25" transform="matrix(10,0,0,10,107.4,186.6)" />
<use xlink:href="#f0_2a" transform="matrix(10,0,0,10,111.7,186.6)" />
<use xlink:href="#f0_2b" transform="matrix(10,0,0,10,119.4,186.6)" />
<use xlink:href="#f0_1x" transform="matrix(10,0,0,10,130.9,186.6)" />
<use xlink:href="#f0_1z" transform="matrix(10,0,0,10,137.7,186.6)" />
<use xlink:href="#f0_25" transform="matrix(10,0,0,10,144.3,186.6)" />
<use xlink:href="#f0_20" transform="matrix(10,0,0,10,148.5,186.6)" />
<use xlink:href="#f0_2f" transform="matrix(10,0,0,10,156.4,186.6)" />
<use xlink:href="#f0_2b" transform="matrix(10,0,0,10,166.3,186.6)" />
<use xlink:href="#f0_22" transform="matrix(10,0,0,10,173.8,186.6)" />
<use xlink:href="#f0_2g" transform="matrix(10,0,0,10,182.8,186.6)" />
<use xlink:href="#f0_24" transform="matrix(10,0,0,10,187,186.6)" />
<use xlink:href="#f0_21" transform="matrix(10,0,0,10,194.3,186.6)" />
<use xlink:href="#f0_2c" transform="matrix(10,0,0,10,205.2,186.6)" />
<use xlink:href="#f0_2e" transform="matrix(10,0,0,10,213.1,186.6)" />
<use xlink:href="#f0_2b" transform="matrix(10,0,0,10,218.2,186.6)" />
<use xlink:href="#f0_2g" transform="matrix(10,0,0,10,225.7,186.6)" />
<use xlink:href="#f0_21" transform="matrix(10,0,0,10,229.9,186.6)" />
<use xlink:href="#f0_25" transform="matrix(10,0,0,10,236.9,186.6)" />
<use xlink:href="#f0_2a" transform="matrix(10,0,0,10,240.9,186.6)" />
<use xlink:href="#f0_2f" transform="matrix(10,0,0,10,248.6,186.6)" />
<use xlink:href="#f0_2c" transform="matrix(10,0,0,10,258.3,186.6)" />
<use xlink:href="#f0_2e" transform="matrix(10,0,0,10,265.9,186.6)" />
<use xlink:href="#f0_21" transform="matrix(10,0,0,10,271.2,186.6)" />
<use xlink:href="#f0_2f" transform="matrix(10,0,0,10,278,186.6)" />
<use xlink:href="#f0_21" transform="matrix(10,0,0,10,283.6,186.6)" />
<use xlink:href="#f0_2a" transform="matrix(10,0,0,10,290.6,186.6)" />
<use xlink:href="#f0_2g" transform="matrix(10,0,0,10,297.9,186.6)" />
<use xlink:href="#f0_25" transform="matrix(10,0,0,10,306.2,186.6)" />
<use xlink:href="#f0_2a" transform="matrix(10,0,0,10,310.4,186.6)" />
<use xlink:href="#f0_2l" transform="matrix(10,0,0,10,321.8,186.6)" />
<use xlink:href="#f0_2b" transform="matrix(10,0,0,10,329.1,186.6)" />
<use xlink:href="#f0_2h" transform="matrix(10,0,0,10,337,186.6)" />
<use xlink:href="#f0_2e" transform="matrix(10,0,0,10,344.3,186.6)" />
<use xlink:href="#f0_2f" transform="matrix(10,0,0,10,353.7,186.6)" />
<use xlink:href="#f0_27" transform="matrix(10,0,0,10,359.4,186.6)" />
<use xlink:href="#f0_25" transform="matrix(10,0,0,10,366.9,186.6)" />
<use xlink:href="#f0_2a" transform="matrix(10,0,0,10,371.1,186.6)" />
<use xlink:href="#f0_i" transform="matrix(10,0,0,10,378.8,186.6)" />
<use xlink:href="#f1_l" transform="matrix(10,0,0,10,64.5,217.2)" />
<use xlink:href="#f1_n" transform="matrix(10,0,0,10,72.4,217.2)" />
<use xlink:href="#f1_i" transform="matrix(10,0,0,10,79.9,217.2)" />
<use xlink:href="#f1_m" transform="matrix(10,0,0,10,84,217.2)" />
<use xlink:href="#f1_i" transform="matrix(10,0,0,10,91.5,217.2)" />
<use xlink:href="#f1_n" transform="matrix(10,0,0,10,95.3,217.2)" />
<use xlink:href="#f1_1d" transform="matrix(10,0,0,10,110,217.2)" />
<use xlink:href="#f1_25" transform="matrix(10,0,0,10,124.5,217.2)" />
<use xlink:href="#f1_28" transform="matrix(10,0,0,10,128.9,217.2)" />
<use xlink:href="#f1_28" transform="matrix(10,0,0,10,133.1,217.2)" />
<use xlink:href="#f1_2b" transform="matrix(10,0,0,10,137.3,217.2)" />
<use xlink:href="#f1_2a" transform="matrix(10,0,0,10,144.8,217.2)" />
<use xlink:href="#f1_53" transform="matrix(10,0,0,10,153.3,217.2)" />
<use xlink:href="#f1_2f" transform="matrix(10,0,0,10,157.9,217.2)" />
<use xlink:href="#f1_1k" transform="matrix(10,0,0,10,166.8,217.2)" />
<use xlink:href="#f1_21" transform="matrix(10,0,0,10,175.5,217.2)" />
<use xlink:href="#f1_2f" transform="matrix(10,0,0,10,182.4,217.2)" />
<use xlink:href="#f1_2g" transform="matrix(10,0,0,10,188.1,217.2)" />
<use xlink:href="#f0_1d" transform="matrix(10,0,0,10,89.1,248)" />
<use xlink:href="#f0_25" transform="matrix(10,0,0,10,102.8,248)" />
<use xlink:href="#f0_28" transform="matrix(10,0,0,10,107.3,248)" />
<use xlink:href="#f0_28" transform="matrix(10,0,0,10,111.7,248)" />
<use xlink:href="#f0_2b" transform="matrix(10,0,0,10,116.1,248)" />
<use xlink:href="#f0_2a" transform="matrix(10,0,0,10,124.1,248)" />
<use xlink:href="#f0_53" transform="matrix(10,0,0,10,131.5,248)" />
<use xlink:href="#f0_2f" transform="matrix(10,0,0,10,135.7,248)" />
<use xlink:href="#f0_2e" transform="matrix(10,0,0,10,147.6,248)" />
<use xlink:href="#f0_21" transform="matrix(10,0,0,10,152.9,248)" />
<use xlink:href="#f0_1x" transform="matrix(10,0,0,10,159.9,248)" />
<use xlink:href="#f0_23" transform="matrix(10,0,0,10,167,248)" />
<use xlink:href="#f0_21" transform="matrix(10,0,0,10,174.5,248)" />
<use xlink:href="#f0_2a" transform="matrix(10,0,0,10,181.5,248)" />
<use xlink:href="#f0_2g" transform="matrix(10,0,0,10,189.4,248)" />
<use xlink:href="#f0_25" transform="matrix(10,0,0,10,199.5,248)" />
<use xlink:href="#f0_2f" transform="matrix(10,0,0,10,203.9,248)" />
<use xlink:href="#f0_1x" transform="matrix(10,0,0,10,215.8,248)" />
<use xlink:href="#f0_2f" transform="matrix(10,0,0,10,228.8,248)" />
<use xlink:href="#f0_2b" transform="matrix(10,0,0,10,235,248)" />
<use xlink:href="#f0_28" transform="matrix(10,0,0,10,242.9,248)" />
<use xlink:href="#f0_2h" transform="matrix(10,0,0,10,247.3,248)" />
<use xlink:href="#f0_2g" transform="matrix(10,0,0,10,254.8,248)" />
<use xlink:href="#f0_25" transform="matrix(10,0,0,10,259.1,248)" />
<use xlink:href="#f0_2b" transform="matrix(10,0,0,10,263.7,248)" />
<use xlink:href="#f0_2a" transform="matrix(10,0,0,10,271.5,248)" />
<use xlink:href="#f0_2b" transform="matrix(10,0,0,10,285.1,248)" />
<use xlink:href="#f0_22" transform="matrix(10,0,0,10,293,248)" />
<use xlink:href="#f0_29" transform="matrix(10,0,0,10,304.2,248)" />
<use xlink:href="#f0_21" transform="matrix(10,0,0,10,315.7,248)" />
<use xlink:href="#f0_2e" transform="matrix(10,0,0,10,322.9,248)" />
<use xlink:href="#f0_1z" transform="matrix(10,0,0,10,328.2,248)" />
<use xlink:href="#f0_2h" transform="matrix(10,0,0,10,335,248)" />
<use xlink:href="#f0_2e" transform="matrix(10,0,0,10,342.7,248)" />
<use xlink:href="#f0_2b" transform="matrix(10,0,0,10,347.8,248)" />
<use xlink:href="#f0_2h" transform="matrix(10,0,0,10,355.7,248)" />
<use xlink:href="#f0_2f" transform="matrix(10,0,0,10,363.6,248)" />
<use xlink:href="#f0_2a" transform="matrix(10,0,0,10,375.3,248)" />
<use xlink:href="#f0_25" transform="matrix(10,0,0,10,383.2,248)" />
<use xlink:href="#f0_2g" transform="matrix(10,0,0,10,387.6,248)" />
<use xlink:href="#f0_2e" transform="matrix(10,0,0,10,392,248)" />
<use xlink:href="#f0_1x" transform="matrix(10,0,0,10,397.3,248)" />
<use xlink:href="#f0_2g" transform="matrix(10,0,0,10,404.1,248)" />
<use xlink:href="#f0_21" transform="matrix(10,0,0,10,408.5,248)" />
<use xlink:href="#f0_1x" transform="matrix(10,0,0,10,421.3,248)" />
<use xlink:href="#f0_2a" transform="matrix(10,0,0,10,428.5,248)" />
<use xlink:href="#f0_20" transform="matrix(10,0,0,10,436.2,248)" />
<use xlink:href="#f0_29" transform="matrix(10,0,0,10,89.1,268.2)" />
<use xlink:href="#f0_21" transform="matrix(10,0,0,10,100.8,268.2)" />
<use xlink:href="#f0_2e" transform="matrix(10,0,0,10,107.4,268.2)" />
<use xlink:href="#f0_1z" transform="matrix(10,0,0,10,112.8,268.2)" />
<use xlink:href="#f0_2h" transform="matrix(10,0,0,10,119.4,268.2)" />
<use xlink:href="#f0_2e" transform="matrix(10,0,0,10,126.9,268.2)" />
<use xlink:href="#f0_25" transform="matrix(10,0,0,10,132,268.2)" />
<use xlink:href="#f0_1z" transform="matrix(10,0,0,10,136.2,268.2)" />
<use xlink:href="#f0_2a" transform="matrix(10,0,0,10,146.9,268.2)" />
<use xlink:href="#f0_25" transform="matrix(10,0,0,10,154.2,268.2)" />
<use xlink:href="#f0_2g" transform="matrix(10,0,0,10,158.4,268.2)" />
<use xlink:href="#f0_2e" transform="matrix(10,0,0,10,162.8,268.2)" />
<use xlink:href="#f0_1x" transform="matrix(10,0,0,10,168,268.2)" />
<use xlink:href="#f0_2g" transform="matrix(10,0,0,10,174.7,268.2)" />
<use xlink:href="#f0_21" transform="matrix(10,0,0,10,179,268.2)" />
<use xlink:href="#f0_25" transform="matrix(10,0,0,10,189.2,268.2)" />
<use xlink:href="#f0_2a" transform="matrix(10,0,0,10,193.4,268.2)" />
<use xlink:href="#f0_2a" transform="matrix(10,0,0,10,204.4,268.2)" />
<use xlink:href="#f0_25" transform="matrix(10,0,0,10,212.1,268.2)" />
<use xlink:href="#f0_2g" transform="matrix(10,0,0,10,216.2,268.2)" />
<use xlink:href="#f0_2e" transform="matrix(10,0,0,10,220.4,268.2)" />
<use xlink:href="#f0_25" transform="matrix(10,0,0,10,225.5,268.2)" />
<use xlink:href="#f0_1z" transform="matrix(10,0,0,10,229.8,268.2)" />
<use xlink:href="#f0_1x" transform="matrix(10,0,0,10,240.4,268.2)" />
<use xlink:href="#f0_1z" transform="matrix(10,0,0,10,247.2,268.2)" />
<use xlink:href="#f0_25" transform="matrix(10,0,0,10,253.8,268.2)" />
<use xlink:href="#f0_20" transform="matrix(10,0,0,10,258,268.2)" />
<use xlink:href="#f0_1z" transform="matrix(10,0,0,10,269.5,268.2)" />
<use xlink:href="#f0_2b" transform="matrix(10,0,0,10,276.3,268.2)" />
<use xlink:href="#f0_2a" transform="matrix(10,0,0,10,284,268.2)" />
<use xlink:href="#f0_2g" transform="matrix(10,0,0,10,291.5,268.2)" />
<use xlink:href="#f0_1x" transform="matrix(10,0,0,10,295.8,268.2)" />
<use xlink:href="#f0_25" transform="matrix(10,0,0,10,302.4,268.2)" />
<use xlink:href="#f0_2a" transform="matrix(10,0,0,10,306.8,268.2)" />
<use xlink:href="#f0_25" transform="matrix(10,0,0,10,314.1,268.2)" />
<use xlink:href="#f0_2a" transform="matrix(10,0,0,10,318.3,268.2)" />
<use xlink:href="#f0_23" transform="matrix(10,0,0,10,326,268.2)" />
<use xlink:href="#f0_28" transform="matrix(10,0,0,10,337,268.2)" />
<use xlink:href="#f0_25" transform="matrix(10,0,0,10,341.2,268.2)" />
<use xlink:href="#f0_2g" transform="matrix(10,0,0,10,345.5,268.2)" />
<use xlink:href="#f0_2g" transform="matrix(10,0,0,10,349.7,268.2)" />
<use xlink:href="#f0_28" transform="matrix(10,0,0,10,353.7,268.2)" />
<use xlink:href="#f0_21" transform="matrix(10,0,0,10,357.9,268.2)" />
<use xlink:href="#f0_2a" transform="matrix(10,0,0,10,368.4,268.2)" />
<use xlink:href="#f0_25" transform="matrix(10,0,0,10,375.8,268.2)" />
<use xlink:href="#f0_2g" transform="matrix(10,0,0,10,380.1,268.2)" />
<use xlink:href="#f0_2e" transform="matrix(10,0,0,10,384.3,268.2)" />
<use xlink:href="#f0_2b" transform="matrix(10,0,0,10,389.4,268.2)" />
<use xlink:href="#f0_2h" transform="matrix(10,0,0,10,397.3,268.2)" />
<use xlink:href="#f0_2f" transform="matrix(10,0,0,10,404.6,268.2)" />
<use xlink:href="#f0_1x" transform="matrix(10,0,0,10,414.3,268.2)" />
<use xlink:href="#f0_1z" transform="matrix(10,0,0,10,421.1,268.2)" />
<use xlink:href="#f0_25" transform="matrix(10,0,0,10,427.9,268.2)" />
<use xlink:href="#f0_20" transform="matrix(10,0,0,10,431.9,268.2)" />
<use xlink:href="#f0_i" transform="matrix(10,0,0,10,439.8,268.2)" />
<use xlink:href="#f0_1n" transform="matrix(10,0,0,10,89.1,288)" />
<use xlink:href="#f0_24" transform="matrix(10,0,0,10,103.8,288)" />
<use xlink:href="#f0_21" transform="matrix(10,0,0,10,111.5,288)" />
<use xlink:href="#f0_2a" transform="matrix(10,0,0,10,118.4,288)" />
<use xlink:href="#f0_1d" transform="matrix(10,0,0,10,131.8,288)" />
<use xlink:href="#f0_25" transform="matrix(10,0,0,10,145.6,288)" />
<use xlink:href="#f0_28" transform="matrix(10,0,0,10,149.8,288)" />
<use xlink:href="#f0_28" transform="matrix(10,0,0,10,154.2,288)" />
<use xlink:href="#f0_2b" transform="matrix(10,0,0,10,158.2,288)" />
<use xlink:href="#f0_2a" transform="matrix(10,0,0,10,166.1,288)" />
<use xlink:href="#f0_53" transform="matrix(10,0,0,10,174,288)" />
<use xlink:href="#f0_2f" transform="matrix(10,0,0,10,177.8,288)" />
<use xlink:href="#f0_2e" transform="matrix(10,0,0,10,189.9,288)" />
<use xlink:href="#f0_21" transform="matrix(10,0,0,10,195.3,288)" />
<use xlink:href="#f0_1x" transform="matrix(10,0,0,10,202,288)" />
<use xlink:href="#f0_23" transform="matrix(10,0,0,10,209,288)" />
<use xlink:href="#f0_21" transform="matrix(10,0,0,10,216.7,288)" />
<use xlink:href="#f0_2a" transform="matrix(10,0,0,10,223.5,288)" />
<use xlink:href="#f0_2g" transform="matrix(10,0,0,10,231,288)" />
<use xlink:href="#f0_25" transform="matrix(10,0,0,10,241.3,288)" />
<use xlink:href="#f0_2f" transform="matrix(10,0,0,10,245.7,288)" />
<use xlink:href="#f0_1x" transform="matrix(10,0,0,10,257.6,288)" />
<use xlink:href="#f0_20" transform="matrix(10,0,0,10,264.2,288)" />
<use xlink:href="#f0_20" transform="matrix(10,0,0,10,272.3,288)" />
<use xlink:href="#f0_21" transform="matrix(10,0,0,10,280.2,288)" />
<use xlink:href="#f0_20" transform="matrix(10,0,0,10,286.9,288)" />
<use xlink:href="#f0_2g" transform="matrix(10,0,0,10,300.5,288)" />
<use xlink:href="#f0_2b" transform="matrix(10,0,0,10,304.9,288)" />
<use xlink:href="#f0_1x" transform="matrix(10,0,0,10,318.5,288)" />
<use xlink:href="#f0_2d" transform="matrix(10,0,0,10,325.4,288)" />
<use xlink:href="#f0_2h" transform="matrix(10,0,0,10,333.3,288)" />
<use xlink:href="#f0_21" transform="matrix(10,0,0,10,340.8,288)" />
<use xlink:href="#f0_2b" transform="matrix(10,0,0,10,348,288)" />
<use xlink:href="#f0_2h" transform="matrix(10,0,0,10,355.7,288)" />
<use xlink:href="#f0_2f" transform="matrix(10,0,0,10,363.2,288)" />
<use xlink:href="#f0_2f" transform="matrix(10,0,0,10,374.9,288)" />
<use xlink:href="#f0_2b" transform="matrix(10,0,0,10,381,288)" />
<use xlink:href="#f0_28" transform="matrix(10,0,0,10,388.9,288)" />
<use xlink:href="#f0_2h" transform="matrix(10,0,0,10,393.3,288)" />
<use xlink:href="#f0_2g" transform="matrix(10,0,0,10,400.6,288)" />
<use xlink:href="#f0_25" transform="matrix(10,0,0,10,405.2,288)" />
<use xlink:href="#f0_2b" transform="matrix(10,0,0,10,409.6,288)" />
<use xlink:href="#f0_2a" transform="matrix(10,0,0,10,417.3,288)" />
<use xlink:href="#f0_2b" transform="matrix(10,0,0,10,430.8,288)" />
<use xlink:href="#f0_22" transform="matrix(10,0,0,10,438.5,288)" />
<use xlink:href="#f0_2c" transform="matrix(10,0,0,10,89.1,307.8)" />
<use xlink:href="#f0_2e" transform="matrix(10,0,0,10,97,307.8)" />
<use xlink:href="#f0_2b" transform="matrix(10,0,0,10,101.9,307.8)" />
<use xlink:href="#f0_2g" transform="matrix(10,0,0,10,109.8,307.8)" />
<use xlink:href="#f0_21" transform="matrix(10,0,0,10,113.9,307.8)" />
<use xlink:href="#f0_25" transform="matrix(10,0,0,10,120.8,307.8)" />
<use xlink:href="#f0_2a" transform="matrix(10,0,0,10,125,307.8)" />
<use xlink:href="#f0_g" transform="matrix(10,0,0,10,132.4,307.8)" />
<use xlink:href="#f0_1x" transform="matrix(10,0,0,10,142.1,307.8)" />
<use xlink:href="#f0_2j" transform="matrix(10,0,0,10,154.6,307.8)" />
<use xlink:href="#f0_24" transform="matrix(10,0,0,10,165.4,307.8)" />
<use xlink:href="#f0_25" transform="matrix(10,0,0,10,172.7,307.8)" />
<use xlink:href="#f0_2g" transform="matrix(10,0,0,10,176.9,307.8)" />
<use xlink:href="#f0_21" transform="matrix(10,0,0,10,181.1,307.8)" />
<use xlink:href="#f0_2c" transform="matrix(10,0,0,10,193.8,307.8)" />
<use xlink:href="#f0_2c" transform="matrix(10,0,0,10,201.7,307.8)" />
<use xlink:href="#f0_2g" transform="matrix(10,0,0,10,209.2,307.8)" />
<use xlink:href="#f0_i" transform="matrix(10,0,0,10,213.4,307.8)" />
<use xlink:href="#f0_25" transform="matrix(10,0,0,10,223,307.8)" />
<use xlink:href="#f0_2f" transform="matrix(10,0,0,10,227.4,307.8)" />
<use xlink:href="#f0_22" transform="matrix(10,0,0,10,238.9,307.8)" />
<use xlink:href="#f0_2b" transform="matrix(10,0,0,10,244,307.8)" />
<use xlink:href="#f0_2e" transform="matrix(10,0,0,10,251.7,307.8)" />
<use xlink:href="#f0_29" transform="matrix(10,0,0,10,256.9,307.8)" />
<use xlink:href="#f0_21" transform="matrix(10,0,0,10,268.6,307.8)" />
<use xlink:href="#f0_20" transform="matrix(10,0,0,10,275.2,307.8)" />
<use xlink:href="#f0_i" transform="matrix(10,0,0,10,283.1,307.8)" />
<use xlink:href="#f0_1k" transform="matrix(10,0,0,10,292.4,307.8)" />
<use xlink:href="#f0_24" transform="matrix(10,0,0,10,302.2,307.8)" />
<use xlink:href="#f0_25" transform="matrix(10,0,0,10,309.5,307.8)" />
<use xlink:href="#f0_2f" transform="matrix(10,0,0,10,313.7,307.8)" />
<use xlink:href="#f0_2g" transform="matrix(10,0,0,10,325.4,307.8)" />
<use xlink:href="#f0_21" transform="matrix(10,0,0,10,329.7,307.8)" />
<use xlink:href="#f0_2f" transform="matrix(10,0,0,10,336.6,307.8)" />
<use xlink:href="#f0_2g" transform="matrix(10,0,0,10,342.5,307.8)" />
<use xlink:href="#f0_25" transform="matrix(10,0,0,10,352.4,307.8)" />
<use xlink:href="#f0_2f" transform="matrix(10,0,0,10,356.4,307.8)" />
<use xlink:href="#f0_23" transform="matrix(10,0,0,10,368.3,307.8)" />
<use xlink:href="#f0_25" transform="matrix(10,0,0,10,375.9,307.8)" />
<use xlink:href="#f0_2i" transform="matrix(10,0,0,10,380.1,307.8)" />
<use xlink:href="#f0_21" transform="matrix(10,0,0,10,387.4,307.8)" />
<use xlink:href="#f0_2a" transform="matrix(10,0,0,10,394.4,307.8)" />
<use xlink:href="#f0_1y" transform="matrix(10,0,0,10,407.6,307.8)" />
<use xlink:href="#f0_2l" transform="matrix(10,0,0,10,415.1,307.8)" />
<use xlink:href="#f0_1x" transform="matrix(10,0,0,10,428.5,307.8)" />
<use xlink:href="#f0_28" transform="matrix(10,0,0,10,435.2,307.8)" />
<use xlink:href="#f0_28" transform="matrix(10,0,0,10,439.3,307.8)" />
<use xlink:href="#f0_2c" transform="matrix(10,0,0,10,500,123)" />
<use xlink:href="#f0_2e" transform="matrix(10,0,0,10,507.6,123)" />
<use xlink:href="#f0_2b" transform="matrix(10,0,0,10,512.6,123)" />
<use xlink:href="#f0_2g" transform="matrix(10,0,0,10,520.5,123)" />
<use xlink:href="#f0_21" transform="matrix(10,0,0,10,524.5,123)" />
<use xlink:href="#f0_25" transform="matrix(10,0,0,10,531.5,123)" />
<use xlink:href="#f0_2a" transform="matrix(10,0,0,10,535.7,123)" />
<use xlink:href="#f0_2f" transform="matrix(10,0,0,10,543,123)" />
<use xlink:href="#f0_1z" transform="matrix(10,0,0,10,554.6,123)" />
<use xlink:href="#f0_2b" transform="matrix(10,0,0,10,561.6,123)" />
<use xlink:href="#f0_2a" transform="matrix(10,0,0,10,569.1,123)" />
<use xlink:href="#f0_2g" transform="matrix(10,0,0,10,576.8,123)" />
<use xlink:href="#f0_1x" transform="matrix(10,0,0,10,581,123)" />
<use xlink:href="#f0_25" transform="matrix(10,0,0,10,587.8,123)" />
<use xlink:href="#f0_2a" transform="matrix(10,0,0,10,592,123)" />
<use xlink:href="#f0_25" transform="matrix(10,0,0,10,599.3,123)" />
<use xlink:href="#f0_2a" transform="matrix(10,0,0,10,603.5,123)" />
<use xlink:href="#f0_23" transform="matrix(10,0,0,10,611.2,123)" />
<use xlink:href="#f0_2c" transform="matrix(10,0,0,10,624.3,123)" />
<use xlink:href="#f0_24" transform="matrix(10,0,0,10,632.1,123)" />
<use xlink:href="#f0_21" transform="matrix(10,0,0,10,639.5,123)" />
<use xlink:href="#f0_2a" transform="matrix(10,0,0,10,646.5,123)" />
<use xlink:href="#f0_2b" transform="matrix(10,0,0,10,653.8,123)" />
<use xlink:href="#f0_28" transform="matrix(10,0,0,10,661.7,123)" />
<use xlink:href="#f0_25" transform="matrix(10,0,0,10,665.9,123)" />
<use xlink:href="#f0_1z" transform="matrix(10,0,0,10,670.1,123)" />
<use xlink:href="#f2_1x" transform="matrix(10,0,0,10,682.4,123)" />
<use xlink:href="#f0_h" transform="matrix(10,0,0,10,691.9,123)" />
<use xlink:href="#f0_1x" transform="matrix(10,0,0,10,696.8,123)" />
<use xlink:href="#f0_29" transform="matrix(10,0,0,10,703.6,123)" />
<use xlink:href="#f0_25" transform="matrix(10,0,0,10,715,123)" />
<use xlink:href="#f0_2a" transform="matrix(10,0,0,10,719.2,123)" />
<use xlink:href="#f0_2b" transform="matrix(10,0,0,10,726.9,123)" />
<use xlink:href="#f0_1x" transform="matrix(10,0,0,10,740.3,123)" />
<use xlink:href="#f0_1z" transform="matrix(10,0,0,10,747.1,123)" />
<use xlink:href="#f0_25" transform="matrix(10,0,0,10,753.9,123)" />
<use xlink:href="#f0_20" transform="matrix(10,0,0,10,758.1,123)" />
<use xlink:href="#f0_2f" transform="matrix(10,0,0,10,765.8,123)" />
<use xlink:href="#f0_25" transform="matrix(10,0,0,10,777.2,123)" />
<use xlink:href="#f0_i" transform="matrix(10,0,0,10,781.4,123)" />
<use xlink:href="#f0_21" transform="matrix(10,0,0,10,785.4,123)" />
<use xlink:href="#f0_i" transform="matrix(10,0,0,10,792.2,123)" />
<use xlink:href="#f0_2g" transform="matrix(10,0,0,10,801.5,123)" />
<use xlink:href="#f0_2l" transform="matrix(10,0,0,10,805.8,123)" />
<use xlink:href="#f0_2e" transform="matrix(10,0,0,10,813.3,123)" />
<use xlink:href="#f0_2b" transform="matrix(10,0,0,10,818.2,123)" />
<use xlink:href="#f0_2f" transform="matrix(10,0,0,10,826.1,123)" />
<use xlink:href="#f0_25" transform="matrix(10,0,0,10,831.8,123)" />
<use xlink:href="#f0_2a" transform="matrix(10,0,0,10,836,123)" />
<use xlink:href="#f0_21" transform="matrix(10,0,0,10,843.7,123)" />
<use xlink:href="#f0_i" transform="matrix(10,0,0,10,850.5,123)" />
<use xlink:href="#f0_11" transform="matrix(10,0,0,10,499.9,142.6)" />
<use xlink:href="#f0_2f" transform="matrix(10,0,0,10,510.6,142.6)" />
<use xlink:href="#f0_2f" transform="matrix(10,0,0,10,521,142.6)" />
<use xlink:href="#f0_2h" transform="matrix(10,0,0,10,526.7,142.6)" />
<use xlink:href="#f0_1z" transform="matrix(10,0,0,10,534.4,142.6)" />
<use xlink:href="#f0_24" transform="matrix(10,0,0,10,541.2,142.6)" />
<use xlink:href="#f0_23" transform="matrix(10,0,0,10,552.9,142.6)" />
<use xlink:href="#f0_21" transform="matrix(10,0,0,10,560.4,142.6)" />
<use xlink:href="#f0_28" transform="matrix(10,0,0,10,567.2,142.6)" />
<use xlink:href="#f0_1x" transform="matrix(10,0,0,10,571.6,142.6)" />
<use xlink:href="#f0_2g" transform="matrix(10,0,0,10,578.4,142.6)" />
<use xlink:href="#f0_25" transform="matrix(10,0,0,10,582.5,142.6)" />
<use xlink:href="#f0_2a" transform="matrix(10,0,0,10,586.7,142.6)" />
<use xlink:href="#f0_2j" transform="matrix(10,0,0,10,598.8,142.6)" />
<use xlink:href="#f0_24" transform="matrix(10,0,0,10,609.2,142.6)" />
<use xlink:href="#f0_25" transform="matrix(10,0,0,10,616.9,142.6)" />
<use xlink:href="#f0_1z" transform="matrix(10,0,0,10,621,142.6)" />
<use xlink:href="#f0_24" transform="matrix(10,0,0,10,627.7,142.6)" />
<use xlink:href="#f0_20" transform="matrix(10,0,0,10,639.7,142.6)" />
<use xlink:href="#f0_2b" transform="matrix(10,0,0,10,647.5,142.6)" />
<use xlink:href="#f0_21" transform="matrix(10,0,0,10,655.2,142.6)" />
<use xlink:href="#f0_2f" transform="matrix(10,0,0,10,662,142.6)" />
<use xlink:href="#f0_2a" transform="matrix(10,0,0,10,672.3,142.6)" />
<use xlink:href="#f0_2b" transform="matrix(10,0,0,10,680,142.6)" />
<use xlink:href="#f0_2g" transform="matrix(10,0,0,10,687.5,142.6)" />
<use xlink:href="#f0_1z" transform="matrix(10,0,0,10,696.1,142.6)" />
<use xlink:href="#f0_2b" transform="matrix(10,0,0,10,703.1,142.6)" />
<use xlink:href="#f0_2a" transform="matrix(10,0,0,10,710.6,142.6)" />
<use xlink:href="#f0_2g" transform="matrix(10,0,0,10,718.3,142.6)" />
<use xlink:href="#f0_1x" transform="matrix(10,0,0,10,722.5,142.6)" />
<use xlink:href="#f0_25" transform="matrix(10,0,0,10,729.3,142.6)" />
<use xlink:href="#f0_2a" transform="matrix(10,0,0,10,733.5,142.6)" />
<use xlink:href="#f0_2c" transform="matrix(10,0,0,10,745.3,142.6)" />
<use xlink:href="#f0_24" transform="matrix(10,0,0,10,753.2,142.6)" />
<use xlink:href="#f0_21" transform="matrix(10,0,0,10,760.5,142.6)" />
<use xlink:href="#f0_2a" transform="matrix(10,0,0,10,767.5,142.6)" />
<use xlink:href="#f0_2b" transform="matrix(10,0,0,10,774.8,142.6)" />
<use xlink:href="#f0_28" transform="matrix(10,0,0,10,782.7,142.6)" />
<use xlink:href="#f0_25" transform="matrix(10,0,0,10,786.9,142.6)" />
<use xlink:href="#f0_1z" transform="matrix(10,0,0,10,790.9,142.6)" />
<use xlink:href="#f2_1x" transform="matrix(10,0,0,10,802.1,142.6)" />
<use xlink:href="#f0_h" transform="matrix(10,0,0,10,811.6,142.6)" />
<use xlink:href="#f0_1x" transform="matrix(10,0,0,10,816.6,142.6)" />
<use xlink:href="#f0_29" transform="matrix(10,0,0,10,823.4,142.6)" />
<use xlink:href="#f0_25" transform="matrix(10,0,0,10,834.7,142.6)" />
<use xlink:href="#f0_2a" transform="matrix(10,0,0,10,838.9,142.6)" />
<use xlink:href="#f0_2b" transform="matrix(10,0,0,10,846.6,142.6)" />
<use xlink:href="#f0_1x" transform="matrix(10,0,0,10,499.9,162.8)" />
<use xlink:href="#f0_1z" transform="matrix(10,0,0,10,506.7,162.8)" />
<use xlink:href="#f0_25" transform="matrix(10,0,0,10,513.5,162.8)" />
<use xlink:href="#f0_20" transform="matrix(10,0,0,10,517.6,162.8)" />
<use xlink:href="#f0_2f" transform="matrix(10,0,0,10,525.3,162.8)" />
<use xlink:href="#f0_20" transform="matrix(10,0,0,10,535.9,162.8)" />
<use xlink:href="#f0_2b" transform="matrix(10,0,0,10,543.8,162.8)" />
<use xlink:href="#f0_21" transform="matrix(10,0,0,10,551.3,162.8)" />
<use xlink:href="#f0_2f" transform="matrix(10,0,0,10,558.3,162.8)" />
<use xlink:href="#f0_2a" transform="matrix(10,0,0,10,568.9,162.8)" />
<use xlink:href="#f0_2b" transform="matrix(10,0,0,10,576.2,162.8)" />
<use xlink:href="#f0_2g" transform="matrix(10,0,0,10,584.1,162.8)" />
<use xlink:href="#f0_23" transform="matrix(10,0,0,10,592.9,162.8)" />
<use xlink:href="#f0_25" transform="matrix(10,0,0,10,600.4,162.8)" />
<use xlink:href="#f0_2i" transform="matrix(10,0,0,10,604.6,162.8)" />
<use xlink:href="#f0_21" transform="matrix(10,0,0,10,612,162.8)" />
<use xlink:href="#f0_2g" transform="matrix(10,0,0,10,623.5,162.8)" />
<use xlink:href="#f0_24" transform="matrix(10,0,0,10,627.7,162.8)" />
<use xlink:href="#f0_25" transform="matrix(10,0,0,10,635.3,162.8)" />
<use xlink:href="#f0_2f" transform="matrix(10,0,0,10,639.5,162.8)" />
<use xlink:href="#f0_2g" transform="matrix(10,0,0,10,650.1,162.8)" />
<use xlink:href="#f0_21" transform="matrix(10,0,0,10,654.3,162.8)" />
<use xlink:href="#f0_2f" transform="matrix(10,0,0,10,661.3,162.8)" />
<use xlink:href="#f0_2g" transform="matrix(10,0,0,10,667,162.8)" />
<use xlink:href="#f0_i" transform="matrix(10,0,0,10,671.2,162.8)" />
<use xlink:href="#f1_l" transform="matrix(10,0,0,10,474.3,193.6)" />
<use xlink:href="#f1_n" transform="matrix(10,0,0,10,481.8,193.6)" />
<use xlink:href="#f1_i" transform="matrix(10,0,0,10,489.5,193.6)" />
<use xlink:href="#f1_m" transform="matrix(10,0,0,10,493.3,193.6)" />
<use xlink:href="#f1_i" transform="matrix(10,0,0,10,501.2,193.6)" />
<use xlink:href="#f1_o" transform="matrix(10,0,0,10,504.9,193.6)" />
<use xlink:href="#f1_1e" transform="matrix(10,0,0,10,518.8,193.6)" />
<use xlink:href="#f1_25" transform="matrix(10,0,0,10,529.8,193.6)" />
<use xlink:href="#f1_2a" transform="matrix(10,0,0,10,533.9,193.6)" />
<use xlink:href="#f1_24" transform="matrix(10,0,0,10,542.3,193.6)" />
<use xlink:href="#f1_2l" transform="matrix(10,0,0,10,550.9,193.6)" />
<use xlink:href="#f1_20" transform="matrix(10,0,0,10,558.6,193.6)" />
<use xlink:href="#f1_2e" transform="matrix(10,0,0,10,567,193.6)" />
<use xlink:href="#f1_25" transform="matrix(10,0,0,10,573.8,193.6)" />
<use xlink:href="#f1_2a" transform="matrix(10,0,0,10,577.9,193.6)" />
<use xlink:href="#f1_1k" transform="matrix(10,0,0,10,589,193.6)" />
<use xlink:href="#f1_21" transform="matrix(10,0,0,10,597.8,193.6)" />
<use xlink:href="#f1_2f" transform="matrix(10,0,0,10,604.6,193.6)" />
<use xlink:href="#f1_2g" transform="matrix(10,0,0,10,610.5,193.6)" />
<use xlink:href="#f0_1n" transform="matrix(10,0,0,10,499.8,224.2)" />
<use xlink:href="#f0_24" transform="matrix(10,0,0,10,514.1,224.2)" />
<use xlink:href="#f0_21" transform="matrix(10,0,0,10,521.8,224.2)" />
<use xlink:href="#f0_2a" transform="matrix(10,0,0,10,528.6,224.2)" />
<use xlink:href="#f0_2c" transform="matrix(10,0,0,10,539.6,224.2)" />
<use xlink:href="#f0_2e" transform="matrix(10,0,0,10,547.4,224.2)" />
<use xlink:href="#f0_2b" transform="matrix(10,0,0,10,552.6,224.2)" />
<use xlink:href="#f0_2g" transform="matrix(10,0,0,10,560.1,224.2)" />
<use xlink:href="#f0_21" transform="matrix(10,0,0,10,564.3,224.2)" />
<use xlink:href="#f0_25" transform="matrix(10,0,0,10,571.3,224.2)" />
<use xlink:href="#f0_2a" transform="matrix(10,0,0,10,575.3,224.2)" />
<use xlink:href="#f0_2f" transform="matrix(10,0,0,10,583,224.2)" />
<use xlink:href="#f0_1x" transform="matrix(10,0,0,10,592.4,224.2)" />
<use xlink:href="#f0_2e" transform="matrix(10,0,0,10,599.1,224.2)" />
<use xlink:href="#f0_21" transform="matrix(10,0,0,10,604.5,224.2)" />
<use xlink:href="#f0_1y" transform="matrix(10,0,0,10,614.7,224.2)" />
<use xlink:href="#f0_2b" transform="matrix(10,0,0,10,622.2,224.2)" />
<use xlink:href="#f0_25" transform="matrix(10,0,0,10,629.9,224.2)" />
<use xlink:href="#f0_28" transform="matrix(10,0,0,10,634.3,224.2)" />
<use xlink:href="#f0_21" transform="matrix(10,0,0,10,638.6,224.2)" />
<use xlink:href="#f0_20" transform="matrix(10,0,0,10,645.2,224.2)" />
<use xlink:href="#f0_2j" transform="matrix(10,0,0,10,656.7,224.2)" />
<use xlink:href="#f0_25" transform="matrix(10,0,0,10,667.4,224.2)" />
<use xlink:href="#f0_2g" transform="matrix(10,0,0,10,671.4,224.2)" />
<use xlink:href="#f0_24" transform="matrix(10,0,0,10,675.6,224.2)" />
<use xlink:href="#f0_1x" transform="matrix(10,0,0,10,687,224.2)" />
<use xlink:href="#f0_20" transform="matrix(10,0,0,10,697.2,224.2)" />
<use xlink:href="#f0_25" transform="matrix(10,0,0,10,705.1,224.2)" />
<use xlink:href="#f0_28" transform="matrix(10,0,0,10,709.2,224.2)" />
<use xlink:href="#f0_2h" transform="matrix(10,0,0,10,713.4,224.2)" />
<use xlink:href="#f0_2g" transform="matrix(10,0,0,10,721.1,224.2)" />
<use xlink:href="#f0_21" transform="matrix(10,0,0,10,725.1,224.2)" />
<use xlink:href="#f0_1x" transform="matrix(10,0,0,10,735.6,224.2)" />
<use xlink:href="#f0_2d" transform="matrix(10,0,0,10,742.2,224.2)" />
<use xlink:href="#f0_2h" transform="matrix(10,0,0,10,750.1,224.2)" />
<use xlink:href="#f0_21" transform="matrix(10,0,0,10,757.4,224.2)" />
<use xlink:href="#f0_2b" transform="matrix(10,0,0,10,764.4,224.2)" />
<use xlink:href="#f0_2h" transform="matrix(10,0,0,10,771.9,224.2)" />
<use xlink:href="#f0_2f" transform="matrix(10,0,0,10,779.6,224.2)" />
<use xlink:href="#f0_2f" transform="matrix(10,0,0,10,788.9,224.2)" />
<use xlink:href="#f0_2b" transform="matrix(10,0,0,10,795,224.2)" />
<use xlink:href="#f0_28" transform="matrix(10,0,0,10,802.7,224.2)" />
<use xlink:href="#f0_2h" transform="matrix(10,0,0,10,806.7,224.2)" />
<use xlink:href="#f0_2g" transform="matrix(10,0,0,10,814.4,224.2)" />
<use xlink:href="#f0_25" transform="matrix(10,0,0,10,818.4,224.2)" />
<use xlink:href="#f0_2b" transform="matrix(10,0,0,10,822.6,224.2)" />
<use xlink:href="#f0_2a" transform="matrix(10,0,0,10,830.5,224.2)" />
<use xlink:href="#f0_2b" transform="matrix(10,0,0,10,841.5,224.2)" />
<use xlink:href="#f0_22" transform="matrix(10,0,0,10,849.4,224.2)" />
<use xlink:href="#f0_2a" transform="matrix(10,0,0,10,499.9,244.2)" />
<use xlink:href="#f0_25" transform="matrix(10,0,0,10,507.3,244.2)" />
<use xlink:href="#f0_2a" transform="matrix(10,0,0,10,511.5,244.2)" />
<use xlink:href="#f0_24" transform="matrix(10,0,0,10,519.2,244.2)" />
<use xlink:href="#f0_2l" transform="matrix(10,0,0,10,526.5,244.2)" />
<use xlink:href="#f0_20" transform="matrix(10,0,0,10,533.9,244.2)" />
<use xlink:href="#f0_2e" transform="matrix(10,0,0,10,541.8,244.2)" />
<use xlink:href="#f0_25" transform="matrix(10,0,0,10,546.9,244.2)" />
<use xlink:href="#f0_2a" transform="matrix(10,0,0,10,550.9,244.2)" />
<use xlink:href="#f0_c" transform="matrix(10,0,0,10,563.2,244.2)" />
<use xlink:href="#f0_m" transform="matrix(10,0,0,10,568.5,244.2)" />
<use xlink:href="#f0_g" transform="matrix(10,0,0,10,576,244.2)" />
<use xlink:href="#f0_m" transform="matrix(10,0,0,10,584.7,244.2)" />
<use xlink:href="#f0_h" transform="matrix(10,0,0,10,592.5,244.2)" />
<use xlink:href="#f0_20" transform="matrix(10,0,0,10,597.3,244.2)" />
<use xlink:href="#f0_25" transform="matrix(10,0,0,10,605.2,244.2)" />
<use xlink:href="#f0_24" transform="matrix(10,0,0,10,609.2,244.2)" />
<use xlink:href="#f0_2l" transform="matrix(10,0,0,10,616.9,244.2)" />
<use xlink:href="#f0_20" transform="matrix(10,0,0,10,624.1,244.2)" />
<use xlink:href="#f0_2e" transform="matrix(10,0,0,10,632,244.2)" />
<use xlink:href="#f0_2b" transform="matrix(10,0,0,10,636.9,244.2)" />
<use xlink:href="#f0_2k" transform="matrix(10,0,0,10,644.8,244.2)" />
<use xlink:href="#f0_2l" transform="matrix(10,0,0,10,652.1,244.2)" />
<use xlink:href="#f0_25" transform="matrix(10,0,0,10,659.5,244.2)" />
<use xlink:href="#f0_2a" transform="matrix(10,0,0,10,663.7,244.2)" />
<use xlink:href="#f0_20" transform="matrix(10,0,0,10,671.4,244.2)" />
<use xlink:href="#f0_1x" transform="matrix(10,0,0,10,678.9,244.2)" />
<use xlink:href="#f0_2a" transform="matrix(10,0,0,10,685.9,244.2)" />
<use xlink:href="#f0_21" transform="matrix(10,0,0,10,693.2,244.2)" />
<use xlink:href="#f0_h" transform="matrix(10,0,0,10,700.2,244.2)" />
<use xlink:href="#f0_l" transform="matrix(10,0,0,10,704.9,244.2)" />
<use xlink:href="#f0_g" transform="matrix(10,0,0,10,712.8,244.2)" />
<use xlink:href="#f0_n" transform="matrix(10,0,0,10,716.5,244.2)" />
<use xlink:href="#f0_h" transform="matrix(10,0,0,10,724.4,244.2)" />
<use xlink:href="#f0_20" transform="matrix(10,0,0,10,729.1,244.2)" />
<use xlink:href="#f0_25" transform="matrix(10,0,0,10,737,244.2)" />
<use xlink:href="#f0_2b" transform="matrix(10,0,0,10,741.2,244.2)" />
<use xlink:href="#f0_2a" transform="matrix(10,0,0,10,748.7,244.2)" />
<use xlink:href="#f0_21" transform="matrix(10,0,0,10,756.4,244.2)" />
<use xlink:href="#f0_d" transform="matrix(10,0,0,10,763.1,244.2)" />
<use xlink:href="#f0_g" transform="matrix(10,0,0,10,768.4,244.2)" />
<use xlink:href="#f0_1x" transform="matrix(10,0,0,10,776.8,244.2)" />
<use xlink:href="#f0_1y" transform="matrix(10,0,0,10,788.4,244.2)" />
<use xlink:href="#f0_28" transform="matrix(10,0,0,10,796.2,244.2)" />
<use xlink:href="#f0_2h" transform="matrix(10,0,0,10,800.5,244.2)" />
<use xlink:href="#f0_21" transform="matrix(10,0,0,10,807.8,244.2)" />
<use xlink:href="#f0_h" transform="matrix(10,0,0,10,814.8,244.2)" />
<use xlink:href="#f0_2i" transform="matrix(10,0,0,10,819.5,244.2)" />
<use xlink:href="#f0_25" transform="matrix(10,0,0,10,827.2,244.2)" />
<use xlink:href="#f0_2b" transform="matrix(10,0,0,10,831.2,244.2)" />
<use xlink:href="#f0_28" transform="matrix(10,0,0,10,838.9,244.2)" />
<use xlink:href="#f0_21" transform="matrix(10,0,0,10,843.3,244.2)" />
<use xlink:href="#f0_2g" transform="matrix(10,0,0,10,850.1,244.2)" />
<use xlink:href="#f0_1z" transform="matrix(10,0,0,10,499.9,264)" />
<use xlink:href="#f0_2b" transform="matrix(10,0,0,10,507.1,264)" />
<use xlink:href="#f0_28" transform="matrix(10,0,0,10,515.2,264)" />
<use xlink:href="#f0_2b" transform="matrix(10,0,0,10,519.8,264)" />
<use xlink:href="#f0_2h" transform="matrix(10,0,0,10,527.8,264)" />
<use xlink:href="#f0_2e" transform="matrix(10,0,0,10,535.9,264)" />
<use xlink:href="#f0_25" transform="matrix(10,0,0,10,547.6,264)" />
<use xlink:href="#f0_2f" transform="matrix(10,0,0,10,552.4,264)" />
<use xlink:href="#f0_2c" transform="matrix(10,0,0,10,564.7,264)" />
<use xlink:href="#f0_2e" transform="matrix(10,0,0,10,572.7,264)" />
<use xlink:href="#f0_2b" transform="matrix(10,0,0,10,578.6,264)" />
<use xlink:href="#f0_20" transform="matrix(10,0,0,10,586.7,264)" />
<use xlink:href="#f0_2h" transform="matrix(10,0,0,10,594.7,264)" />
<use xlink:href="#f0_1z" transform="matrix(10,0,0,10,602.8,264)" />
<use xlink:href="#f0_21" transform="matrix(10,0,0,10,610,264)" />
<use xlink:href="#f0_20" transform="matrix(10,0,0,10,617.1,264)" />
<use xlink:href="#f0_i" transform="matrix(10,0,0,10,625.2,264)" />
<use xlink:href="#f0_1k" transform="matrix(10,0,0,10,635.8,264)" />
<use xlink:href="#f0_24" transform="matrix(10,0,0,10,645.7,264)" />
<use xlink:href="#f0_25" transform="matrix(10,0,0,10,653.8,264)" />
<use xlink:href="#f0_2f" transform="matrix(10,0,0,10,658.4,264)" />
<use xlink:href="#f0_2g" transform="matrix(10,0,0,10,670.8,264)" />
<use xlink:href="#f0_21" transform="matrix(10,0,0,10,675.4,264)" />
<use xlink:href="#f0_2f" transform="matrix(10,0,0,10,682.6,264)" />
<use xlink:href="#f0_2g" transform="matrix(10,0,0,10,688.8,264)" />
<use xlink:href="#f0_25" transform="matrix(10,0,0,10,699.6,264)" />
<use xlink:href="#f0_2f" transform="matrix(10,0,0,10,704.2,264)" />
<use xlink:href="#f0_1x" transform="matrix(10,0,0,10,716.7,264)" />
<use xlink:href="#f0_1z" transform="matrix(10,0,0,10,723.8,264)" />
<use xlink:href="#f0_2g" transform="matrix(10,0,0,10,731.2,264)" />
<use xlink:href="#f0_2h" transform="matrix(10,0,0,10,735.9,264)" />
<use xlink:href="#f0_1x" transform="matrix(10,0,0,10,743.6,264)" />
<use xlink:href="#f0_28" transform="matrix(10,0,0,10,750.8,264)" />
<use xlink:href="#f0_28" transform="matrix(10,0,0,10,755.7,264)" />
<use xlink:href="#f0_2l" transform="matrix(10,0,0,10,760.3,264)" />
<use xlink:href="#f0_23" transform="matrix(10,0,0,10,774.4,264)" />
<use xlink:href="#f0_25" transform="matrix(10,0,0,10,782.1,264)" />
<use xlink:href="#f0_2i" transform="matrix(10,0,0,10,786.7,264)" />
<use xlink:href="#f0_21" transform="matrix(10,0,0,10,794.8,264)" />
<use xlink:href="#f0_2a" transform="matrix(10,0,0,10,801.9,264)" />
<use xlink:href="#f0_1y" transform="matrix(10,0,0,10,815.9,264)" />
<use xlink:href="#f0_2l" transform="matrix(10,0,0,10,824.1,264)" />
<use xlink:href="#f0_1x" transform="matrix(10,0,0,10,838.2,264)" />
<use xlink:href="#f0_28" transform="matrix(10,0,0,10,845.3,264)" />
<use xlink:href="#f0_28" transform="matrix(10,0,0,10,849.9,264)" />
<use xlink:href="#f2_1x" transform="matrix(10,0,0,10,499.9,283.8)" />
<use xlink:href="#f0_h" transform="matrix(10,0,0,10,509.3,283.8)" />
<use xlink:href="#f0_1x" transform="matrix(10,0,0,10,514.2,283.8)" />
<use xlink:href="#f0_29" transform="matrix(10,0,0,10,521,283.8)" />
<use xlink:href="#f0_25" transform="matrix(10,0,0,10,532.4,283.8)" />
<use xlink:href="#f0_2a" transform="matrix(10,0,0,10,536.6,283.8)" />
<use xlink:href="#f0_2b" transform="matrix(10,0,0,10,544.3,283.8)" />
<use xlink:href="#f0_1x" transform="matrix(10,0,0,10,556.1,283.8)" />
<use xlink:href="#f0_1z" transform="matrix(10,0,0,10,562.8,283.8)" />
<use xlink:href="#f0_25" transform="matrix(10,0,0,10,569.6,283.8)" />
<use xlink:href="#f0_20" transform="matrix(10,0,0,10,573.7,283.8)" />
<use xlink:href="#f0_2f" transform="matrix(10,0,0,10,581.5,283.8)" />
<use xlink:href="#f0_i" transform="matrix(10,0,0,10,587.2,283.8)" />
<use xlink:href="#f0_1j" transform="matrix(10,0,0,10,595.1,283.8)" />
<use xlink:href="#f0_25" transform="matrix(10,0,0,10,603.7,283.8)" />
<use xlink:href="#f0_2a" transform="matrix(10,0,0,10,607.9,283.8)" />
<use xlink:href="#f0_1z" transform="matrix(10,0,0,10,615.3,283.8)" />
<use xlink:href="#f0_21" transform="matrix(10,0,0,10,622.2,283.8)" />
<use xlink:href="#f0_2c" transform="matrix(10,0,0,10,633.1,283.8)" />
<use xlink:href="#f0_2e" transform="matrix(10,0,0,10,640.6,283.8)" />
<use xlink:href="#f0_2b" transform="matrix(10,0,0,10,645.9,283.8)" />
<use xlink:href="#f0_2g" transform="matrix(10,0,0,10,653.6,283.8)" />
<use xlink:href="#f0_21" transform="matrix(10,0,0,10,657.6,283.8)" />
<use xlink:href="#f0_25" transform="matrix(10,0,0,10,664.6,283.8)" />
<use xlink:href="#f0_2a" transform="matrix(10,0,0,10,668.8,283.8)" />
<use xlink:href="#f0_2f" transform="matrix(10,0,0,10,676.2,283.8)" />
<use xlink:href="#f0_2b" transform="matrix(10,0,0,10,685.9,283.8)" />
<use xlink:href="#f0_2a" transform="matrix(10,0,0,10,693.8,283.8)" />
<use xlink:href="#f0_24" transform="matrix(10,0,0,10,705.3,283.8)" />
<use xlink:href="#f0_2l" transform="matrix(10,0,0,10,712.8,283.8)" />
<use xlink:href="#f0_20" transform="matrix(10,0,0,10,720,283.8)" />
<use xlink:href="#f0_2e" transform="matrix(10,0,0,10,727.9,283.8)" />
<use xlink:href="#f0_2b" transform="matrix(10,0,0,10,733,283.8)" />
<use xlink:href="#f0_28" transform="matrix(10,0,0,10,740.5,283.8)" />
<use xlink:href="#f0_2l" transform="matrix(10,0,0,10,744.7,283.8)" />
<use xlink:href="#f0_2f" transform="matrix(10,0,0,10,752.1,283.8)" />
<use xlink:href="#f0_25" transform="matrix(10,0,0,10,758.1,283.8)" />
<use xlink:href="#f0_2f" transform="matrix(10,0,0,10,762.3,283.8)" />
<use xlink:href="#f0_23" transform="matrix(10,0,0,10,772.2,283.8)" />
<use xlink:href="#f0_25" transform="matrix(10,0,0,10,779.6,283.8)" />
<use xlink:href="#f0_2i" transform="matrix(10,0,0,10,783.8,283.8)" />
<use xlink:href="#f0_21" transform="matrix(10,0,0,10,791.5,283.8)" />
<use xlink:href="#f2_1x" transform="matrix(10,0,0,10,802.1,283.8)" />
<use xlink:href="#f0_h" transform="matrix(10,0,0,10,811.6,283.8)" />
<use xlink:href="#f0_1x" transform="matrix(10,0,0,10,816.6,283.8)" />
<use xlink:href="#f0_29" transform="matrix(10,0,0,10,823.4,283.8)" />
<use xlink:href="#f0_25" transform="matrix(10,0,0,10,834.7,283.8)" />
<use xlink:href="#f0_2a" transform="matrix(10,0,0,10,838.9,283.8)" />
<use xlink:href="#f0_2b" transform="matrix(10,0,0,10,846.6,283.8)" />
<use xlink:href="#f0_1x" transform="matrix(10,0,0,10,499.9,303.8)" />
<use xlink:href="#f0_1z" transform="matrix(10,0,0,10,506.7,303.8)" />
<use xlink:href="#f0_25" transform="matrix(10,0,0,10,513.5,303.8)" />
<use xlink:href="#f0_20" transform="matrix(10,0,0,10,517.6,303.8)" />
<use xlink:href="#f0_2f" transform="matrix(10,0,0,10,525.3,303.8)" />
<use xlink:href="#f0_g" transform="matrix(10,0,0,10,531.3,303.8)" />
<use xlink:href="#f0_2g" transform="matrix(10,0,0,10,539.6,303.8)" />
<use xlink:href="#f0_24" transform="matrix(10,0,0,10,543.8,303.8)" />
<use xlink:href="#f0_21" transform="matrix(10,0,0,10,551.1,303.8)" />
<use xlink:href="#f0_2e" transform="matrix(10,0,0,10,558.1,303.8)" />
<use xlink:href="#f0_21" transform="matrix(10,0,0,10,563.2,303.8)" />
<use xlink:href="#f0_22" transform="matrix(10,0,0,10,570,303.8)" />
<use xlink:href="#f0_2b" transform="matrix(10,0,0,10,574.8,303.8)" />
<use xlink:href="#f0_2e" transform="matrix(10,0,0,10,582.6,303.8)" />
<use xlink:href="#f0_21" transform="matrix(10,0,0,10,587.8,303.8)" />
<use xlink:href="#f0_g" transform="matrix(10,0,0,10,594.6,303.8)" />
<use xlink:href="#f0_2c" transform="matrix(10,0,0,10,602.6,303.8)" />
<use xlink:href="#f0_2e" transform="matrix(10,0,0,10,610.1,303.8)" />
<use xlink:href="#f0_2b" transform="matrix(10,0,0,10,615.3,303.8)" />
<use xlink:href="#f0_2g" transform="matrix(10,0,0,10,623.2,303.8)" />
<use xlink:href="#f0_21" transform="matrix(10,0,0,10,627.2,303.8)" />
<use xlink:href="#f0_25" transform="matrix(10,0,0,10,634,303.8)" />
<use xlink:href="#f0_2a" transform="matrix(10,0,0,10,638.4,303.8)" />
<use xlink:href="#f0_2f" transform="matrix(10,0,0,10,645.7,303.8)" />
<use xlink:href="#f0_1x" transform="matrix(10,0,0,10,656.2,303.8)" />
<use xlink:href="#f0_2a" transform="matrix(10,0,0,10,663,303.8)" />
<use xlink:href="#f0_20" transform="matrix(10,0,0,10,670.5,303.8)" />
<use xlink:href="#f0_2c" transform="matrix(10,0,0,10,682.4,303.8)" />
<use xlink:href="#f0_21" transform="matrix(10,0,0,10,690.1,303.8)" />
<use xlink:href="#f0_2c" transform="matrix(10,0,0,10,697.1,303.8)" />
<use xlink:href="#f0_2g" transform="matrix(10,0,0,10,704.6,303.8)" />
<use xlink:href="#f0_25" transform="matrix(10,0,0,10,708.8,303.8)" />
<use xlink:href="#f0_20" transform="matrix(10,0,0,10,713,303.8)" />
<use xlink:href="#f0_21" transform="matrix(10,0,0,10,720.9,303.8)" />
<use xlink:href="#f0_2f" transform="matrix(10,0,0,10,727.7,303.8)" />
<use xlink:href="#f0_1x" transform="matrix(10,0,0,10,737.8,303.8)" />
<use xlink:href="#f0_28" transform="matrix(10,0,0,10,744.7,303.8)" />
<use xlink:href="#f0_2f" transform="matrix(10,0,0,10,748.9,303.8)" />
<use xlink:href="#f0_2b" transform="matrix(10,0,0,10,754.6,303.8)" />
<use xlink:href="#f0_23" transform="matrix(10,0,0,10,766.7,303.8)" />
<use xlink:href="#f0_25" transform="matrix(10,0,0,10,774.1,303.8)" />
<use xlink:href="#f0_2i" transform="matrix(10,0,0,10,778.5,303.8)" />
<use xlink:href="#f0_21" transform="matrix(10,0,0,10,785.8,303.8)" />
<use xlink:href="#f0_2g" transform="matrix(10,0,0,10,797.2,303.8)" />
<use xlink:href="#f0_24" transform="matrix(10,0,0,10,801.3,303.8)" />
<use xlink:href="#f0_25" transform="matrix(10,0,0,10,808.7,303.8)" />
<use xlink:href="#f0_2f" transform="matrix(10,0,0,10,812.9,303.8)" />
<use xlink:href="#f0_2g" transform="matrix(10,0,0,10,823.3,303.8)" />
<use xlink:href="#f0_21" transform="matrix(10,0,0,10,827.4,303.8)" />
<use xlink:href="#f0_2f" transform="matrix(10,0,0,10,834.4,303.8)" />
<use xlink:href="#f0_2g" transform="matrix(10,0,0,10,840.2,303.8)" />
<use xlink:href="#f0_i" transform="matrix(10,0,0,10,844.3,303.8)" />
</g>
<path fill-rule="evenodd" d="M55.2,224V211.9h2.2V224H55.2Z" class="g0_66" />
<path fill-rule="evenodd" d="M55.2,211.9v-13h1.1V200h1.1v11.9H55.2Z" class="g0_66" />
<path fill-rule="evenodd" d="M56.3,198.9l147.6,-.2h.5l.2,.4l-.7,.7v1.3H56.3v-2.2Z" class="g0_66" />
<path fill-rule="evenodd" d="M204.6,199.1l14.3,12.1l1.1,.9l-1.1,.8l-.7,-.8l-.8,.8L203.1,200.8l.8,-1l.7,-.7Z" class="g0_66" />
<path fill-rule="evenodd" d="M218.9,212.9l-13.8,12l-.3,.4h-.6V224l-.7,-.7l13.9,-12.1l.8,.9l.7,.8Z" class="g0_66" />
<path fill-rule="evenodd" d="M204.2,225.3L56.3,225.1H55.2V224h1.1v-1.3l147.9,.2v2.4Z" class="g0_66" />
<path fill-rule="evenodd" d="M465.5,201.3V189.2h2.4v12.1h-2.4Z" class="g0_66" />
<path fill-rule="evenodd" d="M465.5,189.2v-13h1.1v1.1h1.3v11.9h-2.4Z" class="g0_66" />
<path fill-rule="evenodd" d="M466.6,176l156.2,-.2h.5l.2,.4l-.7,.9v1.1H466.6V176Z" class="g0_66" />
<path fill-rule="evenodd" d="M623.3,176.4l15.1,12.1l1.1,.9l-1.1,.9l-.8,-.9l-.7,.9l-15,-12.1l.7,-.9l.7,-.9Z" class="g0_66" />
<path fill-rule="evenodd" d="M638.5,190.3l-14.6,12.1l-.2,.2h-.5v-1.1l-.8,-.9l14.7,-12.1l.7,.9l.7,.9Z" class="g0_66" />
<path fill-rule="evenodd" d="M623.2,202.6l-156.6,-.2h-1.1v-1.1h1.1v-1.1H623.2v2.4Z" class="g0_66" />
<path fill-rule="evenodd" d="M53.9,69.5H856.2V97.9H53.9V69.5l1.5,26.8H854.5V71H55.4V96.3L53.9,69.5Z" class="g1_66" />
<path fill-rule="evenodd" d="M55.2,94.6H854.7v3.1H55.2V94.6Z" class="g0_66" />
<path fill-rule="evenodd" d="M55.2,69.7H854.7v3.1H55.2V69.7Z" class="g0_66" />
<path fill-rule="evenodd" d="M56.1,347.8H854.8v2.4H56.1v-2.4Z" class="g0_66" />
<path fill-rule="evenodd" d="M454.1,349.6V109.8h1.5V349.6h-1.5Z" class="g0_66" />
<g fill="#000000" >
<use xlink:href="#f3_12" transform="matrix(10,0,0,10,143.4,87.6)" />
<use xlink:href="#f3_19" transform="matrix(10,0,0,10,154.4,87.6)" />
<use xlink:href="#f3_1f" transform="matrix(10,0,0,10,160.4,87.6)" />
<use xlink:href="#f3_1d" transform="matrix(10,0,0,10,172.6,87.6)" />
<use xlink:href="#f3_1f" transform="matrix(10,0,0,10,186.9,87.6)" />
<use xlink:href="#f3_1c" transform="matrix(10,0,0,10,199,87.6)" />
<use xlink:href="#f3_15" transform="matrix(10,0,0,10,208.8,87.6)" />
<use xlink:href="#f3_13" transform="matrix(10,0,0,10,219.7,87.6)" />
<use xlink:href="#f3_1l" transform="matrix(10,0,0,10,231,87.6)" />
<use xlink:href="#f3_1c" transform="matrix(10,0,0,10,242.2,87.6)" />
<use xlink:href="#f3_15" transform="matrix(10,0,0,10,252,87.6)" />
<use xlink:href="#f3_1j" transform="matrix(10,0,0,10,262.9,87.6)" />
<use xlink:href="#f3_g" transform="matrix(10,0,0,10,273,87.6)" />
<use xlink:href="#f3_1g" transform="matrix(10,0,0,10,288.4,87.6)" />
<use xlink:href="#f3_1f" transform="matrix(10,0,0,10,298.5,87.6)" />
<use xlink:href="#f3_1c" transform="matrix(10,0,0,10,310.6,87.6)" />
<use xlink:href="#f3_1p" transform="matrix(10,0,0,10,320.4,87.6)" />
<use xlink:href="#f3_1d" transform="matrix(10,0,0,10,331,87.6)" />
<use xlink:href="#f3_15" transform="matrix(10,0,0,10,345.3,87.6)" />
<use xlink:href="#f3_1i" transform="matrix(10,0,0,10,356.3,87.6)" />
<use xlink:href="#f3_1j" transform="matrix(10,0,0,10,368.1,87.6)" />
<use xlink:href="#f3_g" transform="matrix(10,0,0,10,378.2,87.6)" />
<use xlink:href="#f3_13" transform="matrix(10,0,0,10,393.6,87.6)" />
<use xlink:href="#f3_18" transform="matrix(10,0,0,10,404.9,87.6)" />
<use xlink:href="#f3_15" transform="matrix(10,0,0,10,417.3,87.6)" />
<use xlink:href="#f3_1d" transform="matrix(10,0,0,10,428.3,87.6)" />
<use xlink:href="#f3_19" transform="matrix(10,0,0,10,442.6,87.6)" />
<use xlink:href="#f3_1j" transform="matrix(10,0,0,10,448.7,87.6)" />
<use xlink:href="#f3_1k" transform="matrix(10,0,0,10,458.7,87.6)" />
<use xlink:href="#f3_1i" transform="matrix(10,0,0,10,469.4,87.6)" />
<use xlink:href="#f3_1p" transform="matrix(10,0,0,10,481.2,87.6)" />
<use xlink:href="#f3_19" transform="matrix(10,0,0,10,502.2,87.6)" />
<use xlink:href="#f3_1e" transform="matrix(10,0,0,10,508.3,87.6)" />
<use xlink:href="#f3_15" transform="matrix(10,0,0,10,529.8,87.6)" />
<use xlink:href="#f3_1m" transform="matrix(10,0,0,10,540.8,87.6)" />
<use xlink:href="#f3_15" transform="matrix(10,0,0,10,551.7,87.6)" />
<use xlink:href="#f3_1i" transform="matrix(10,0,0,10,562.7,87.6)" />
<use xlink:href="#f3_1p" transform="matrix(10,0,0,10,574.5,87.6)" />
<use xlink:href="#f3_14" transform="matrix(10,0,0,10,585.2,87.6)" />
<use xlink:href="#f3_11" transform="matrix(10,0,0,10,597,87.6)" />
<use xlink:href="#f3_1p" transform="matrix(10,0,0,10,608,87.6)" />
<use xlink:href="#f3_1c" transform="matrix(10,0,0,10,629,87.6)" />
<use xlink:href="#f3_19" transform="matrix(10,0,0,10,638.7,87.6)" />
<use xlink:href="#f3_16" transform="matrix(10,0,0,10,644.8,87.6)" />
<use xlink:href="#f3_15" transform="matrix(10,0,0,10,655.1,87.6)" />
<use xlink:href="#f3_a" transform="matrix(10,0,0,10,676.4,87.6)" />
<use xlink:href="#f3_15" transform="matrix(10,0,0,10,698.9,87.6)" />
<use xlink:href="#f3_1e" transform="matrix(10,0,0,10,709.8,87.6)" />
<use xlink:href="#f3_1m" transform="matrix(10,0,0,10,721.1,87.6)" />
<use xlink:href="#f3_i" transform="matrix(10,0,0,10,732,87.6)" />
<use xlink:href="#f3_13" transform="matrix(10,0,0,10,742.3,87.6)" />
<use xlink:href="#f3_18" transform="matrix(10,0,0,10,753.6,87.6)" />
<use xlink:href="#f3_15" transform="matrix(10,0,0,10,766.1,87.6)" />
<use xlink:href="#f3_1d" transform="matrix(10,0,0,10,777,87.6)" />
<use xlink:href="#f3_19" transform="matrix(10,0,0,10,791.3,87.6)" />
<use xlink:href="#f3_1j" transform="matrix(10,0,0,10,797.4,87.6)" />
<use xlink:href="#f3_1k" transform="matrix(10,0,0,10,807.4,87.6)" />
<use xlink:href="#f3_1i" transform="matrix(10,0,0,10,818.1,87.6)" />
<use xlink:href="#f3_1p" transform="matrix(10,0,0,10,829.9,87.6)" />
</g>
<path d="M55.1,94.9H854V72.7H55.1V94.9Z" class="g2_66" />
<defs>
<path d="M21,0V26H35c0,0,53,0,71,27c0,0,18,27,18,101V408c0,0,0,123,-5,150c0,0,-6,27,-17,37c0,0,-12,10,-31,10c0,0,-21,0,-50,-11L10,620l206,83h32V558c0,0,120,145,229,145c0,0,56,0,96,-28c0,0,40,-28,64,-92c0,0,16,-45,16,-137V154c0,0,0,-65,11,-88c0,0,8,-19,26,-29c0,0,18,-11,68,-11V0H419V26h14c0,0,47,0,66,15c0,0,20,15,27,43c0,0,3,11,3,70V434c0,0,0,93,-24,135c0,0,-24,42,-81,42c0,0,-88,0,-176,-97V154c0,0,0,-69,9,-86c0,0,10,-21,28,-31c0,0,19,-11,75,-11V0Z" 
id="f0_2a"
transform="scale(0.001,-0.001)" />

<path d="M55,0V26c0,0,50,0,67,10c0,0,17,10,27,32c0,0,10,23,10,86V418c0,0,0,111,-6,144c0,0,-6,24,-17,33c0,0,-11,10,-30,10c0,0,-21,0,-51,-11L45,620l206,83h33V154c0,0,0,-64,9,-85c0,0,9,-22,27,-32c0,0,19,-11,67,-11V0ZM222,909c0,0,-32,0,-54,23c0,0,-22,22,-22,53c0,0,0,32,22,54c0,0,22,22,54,22c0,0,31,0,53,-22c0,0,22,-22,22,-54c0,0,0,-31,-22,-53c0,0,-22,-23,-53,-23Z" 
id="f0_25"
transform="scale(0.001,-0.001)" />

<path d="M255,-10c0,0,-35,0,-68,18c0,0,-32,19,-48,55c0,0,-16,35,-16,109V632H15v24c0,0,41,16,84,56c0,0,43,39,77,92c0,0,17,29,48,104h23V683H407V632H247V188c0,0,0,-66,19,-90c0,0,19,-23,49,-23c0,0,24,0,47,16c0,0,23,15,36,45h29c0,0,-26,-73,-74,-110c0,0,-47,-36,-98,-36Z" 
id="f0_2g"
transform="scale(0.001,-0.001)" />

<path d="M17,0V26c0,0,52,0,77,17c0,0,19,12,26,38c0,0,4,13,4,73V419c0,0,0,119,-5,142c0,0,-4,23,-17,33c0,0,-13,11,-33,11c0,0,-23,0,-52,-11l-7,26l207,83h31V549c0,0,86,154,176,154c0,0,41,0,68,-25c0,0,27,-25,27,-58c0,0,0,-29,-20,-49c0,0,-19,-20,-46,-20c0,0,-26,0,-58,25c0,0,-33,26,-48,26c0,0,-14,0,-29,-15c0,0,-34,-30,-70,-101V159c0,0,0,-56,15,-85c0,0,9,-20,34,-34c0,0,24,-14,71,-14V0Z" 
id="f0_2e"
transform="scale(0.001,-0.001)" />

<path d="M286,72c0,0,57,0,149,75V407c0,0,-113,-45,-145,-64c0,0,-59,-32,-85,-68c0,0,-25,-36,-25,-78c0,0,0,-54,32,-89c0,0,32,-36,74,-36ZM217,-13c0,0,-71,0,-116,48c0,0,-46,48,-46,127c0,0,0,50,22,87c0,0,31,50,106,95c0,0,76,45,252,109v26c0,0,0,102,-32,140c0,0,-32,38,-94,38c0,0,-47,0,-74,-25c0,0,-28,-25,-28,-58l1,-43c0,0,0,-34,-17,-53c0,0,-18,-18,-47,-18c0,0,-28,0,-45,19c0,0,-18,19,-18,53c0,0,0,64,66,117c0,0,65,54,184,54c0,0,91,0,149,-31c0,0,44,-23,65,-72c0,0,13,-32,13,-131V238c0,0,0,-98,4,-120c0,0,4,-22,12,-29c0,0,9,-8,20,-8c0,0,12,0,21,5c0,0,16,10,61,55V99C676,99,592,-12,516,-12c0,0,-37,0,-58,24c0,0,-22,26,-23,86C435,98,330,17,303,5c0,0,-40,-18,-86,-18Z" 
id="f0_1x"
transform="scale(0.001,-0.001)" />

<path d="M406,32c0,0,72,0,119,60c0,0,47,59,47,205c0,0,0,181,-78,286c0,0,-53,71,-135,71c0,0,-40,0,-79,-23c0,0,-40,-24,-65,-83c0,0,-24,-58,-24,-151c0,0,0,-149,59,-257c0,0,59,-108,156,-108ZM374,-20c0,0,-154,0,-245,122c0,0,-77,104,-77,233c0,0,0,94,46,187c0,0,47,92,123,137c0,0,76,44,161,44c0,0,155,0,249,-118c0,0,80,-100,80,-231c0,0,0,-91,-44,-185C667,169,623,75,546,27c0,0,-77,-47,-172,-47Z" 
id="f0_2b"
transform="scale(0.001,-0.001)" />

<path d="M63,0V26H93c0,0,30,0,54,15c0,0,25,15,34,41c0,0,10,25,10,99V630H58v53H191v45c0,0,0,102,33,173c0,0,32,71,100,114c0,0,68,44,152,44c0,0,79,0,145,-51c0,0,43,-33,43,-75c0,0,0,-22,-19,-42c0,0,-20,-20,-42,-20c0,0,-17,0,-36,12c0,0,-19,13,-47,53c0,0,-28,41,-51,55c0,0,-23,14,-51,14c0,0,-35,0,-58,-18c0,0,-24,-18,-35,-57c0,0,-10,-38,-10,-197V683H491V630H315V181c0,0,0,-96,21,-122c0,0,27,-33,73,-33h62V0Z" 
id="f0_22"
transform="scale(0.001,-0.001)" />

<path d="M20,0V26c0,0,45,0,71,15c0,0,15,7,24,28c0,0,9,21,9,85V773c0,0,0,117,-5,144c0,0,-6,27,-17,37c0,0,-12,9,-31,9c0,0,-16,0,-51,-12L10,978l204,83h34V561c0,0,83,91,131,116c0,0,49,26,97,26c0,0,58,0,100,-32c0,0,42,-32,62,-101c0,0,14,-47,14,-174V154c0,0,0,-65,11,-89c0,0,7,-18,25,-28c0,0,18,-11,66,-11V0H418V26h15c0,0,48,0,67,15c0,0,18,15,26,43c0,0,2,12,2,70V396c0,0,0,112,-12,147c0,0,-11,35,-36,53c0,0,-26,17,-61,17c0,0,-37,0,-76,-19c0,0,-40,-20,-95,-79V154c0,0,0,-70,8,-87c0,0,8,-17,29,-29c0,0,22,-12,74,-12V0Z" 
id="f0_24"
transform="scale(0.001,-0.001)" />

<path d="M479,469c0,0,-4,66,-16,93c0,0,-18,42,-55,65c0,0,-37,24,-78,24c0,0,-62,0,-111,-48c0,0,-48,-48,-57,-134ZM355,-20c0,0,-123,0,-211,95c0,0,-87,96,-87,258c0,0,0,175,90,273c0,0,89,98,225,98c0,0,115,0,189,-76c0,0,74,-75,74,-202H162c0,0,0,-152,74,-239c0,0,75,-86,175,-86c0,0,67,0,117,36c0,0,50,37,83,127l24,-15c0,0,-16,-102,-91,-186c0,0,-76,-83,-189,-83Z" 
id="f0_21"
transform="scale(0.001,-0.001)" />

<path d="M397,34c0,0,67,0,126,75c0,0,58,74,58,216c0,0,0,131,-58,201c0,0,-59,70,-133,70c0,0,-39,0,-79,-20c0,0,-29,-14,-75,-59V109c0,0,37,-37,78,-56c0,0,40,-19,83,-19ZM358,-20c0,0,-59,0,-121,21c0,0,-61,22,-126,65V773c0,0,0,117,-5,144c0,0,-6,27,-18,37c0,0,-12,9,-29,9c0,0,-21,0,-53,-12l-9,27l205,83h34V564c0,0,98,139,213,139c0,0,105,0,183,-90c0,0,78,-90,78,-245c0,0,0,-182,-121,-293c0,0,-103,-95,-231,-95Z" 
id="f0_1y"
transform="scale(0.001,-0.001)" />

<path d="M30,0V27L485,632H260c0,0,-72,0,-94,-10c0,0,-22,-9,-36,-35c0,0,-20,-37,-23,-92H76l5,188H654V656L196,51H445c0,0,79,0,106,13c0,0,28,13,45,46c0,0,12,23,21,100h25L634,0Z" 
id="f0_2m"
transform="scale(0.001,-0.001)" />

<path d="M411,-239c0,0,134,0,198,48c0,0,64,47,64,100c0,0,0,39,-38,55c0,0,-39,16,-154,19c0,0,-167,5,-258,17c0,0,-35,-37,-53,-70c0,0,-17,-32,-17,-60c0,0,0,-36,43,-62c0,0,74,-47,215,-47ZM380,257c0,0,56,0,93,43c0,0,36,42,36,133c0,0,0,118,-51,185c0,0,-38,49,-98,49c0,0,-55,0,-92,-44c0,0,-37,-44,-37,-135c0,0,0,-117,50,-182c0,0,39,-49,99,-49ZM345,-328c0,0,-144,0,-243,64c0,0,-56,38,-56,78c0,0,0,18,8,36c0,0,13,27,52,76c0,0,5,7,76,80c0,0,-39,23,-55,41c0,0,-16,19,-16,42c0,0,0,26,22,61c0,0,21,35,98,100c0,0,-63,30,-97,85c0,0,-33,55,-33,121c0,0,0,101,76,174c0,0,77,73,196,73c0,0,98,0,170,-48H688c0,0,32,0,37,-2c0,0,6,-2,8,-6c0,0,4,-7,4,-24c0,0,0,-20,-4,-27c0,0,-2,-4,-7,-6c0,0,-6,-2,-38,-2H599c0,0,41,-54,41,-137c0,0,0,-96,-73,-163c0,0,-73,-68,-196,-68c0,0,-51,0,-104,15c0,0,-33,-28,-44,-49c0,0,-12,-22,-12,-37c0,0,0,-12,13,-24c0,0,12,-12,48,-17c0,0,21,-4,104,-6c0,0,154,-4,199,-11c0,0,70,-10,111,-51c0,0,42,-41,42,-102c0,0,0,-84,-79,-158c0,0,-117,-108,-304,-108Z" 
id="f0_23"
transform="scale(0.001,-0.001)" />

<path d="M191,-20c0,0,-34,0,-58,24c0,0,-24,24,-24,58c0,0,0,35,24,59c0,0,24,24,58,24c0,0,35,0,59,-24c0,0,24,-25,24,-59c0,0,0,-34,-24,-58c0,0,-25,-24,-59,-24Z" 
id="f0_i"
transform="scale(0.001,-0.001)" />

<path d="M678,393L506,802L330,393ZM11,0V27c0,0,63,12,82,30c0,0,38,35,84,145l356,832h27L912,193c0,0,43,-101,77,-132c0,0,35,-30,97,-34V0H687V27c0,0,60,3,82,21c0,0,21,17,21,41c0,0,0,33,-30,104L700,338H307L239,179c0,0,-26,-59,-26,-88c0,0,0,-23,22,-41c0,0,22,-17,95,-23V0Z" 
id="f0_11"
transform="scale(0.001,-0.001)" />

<path d="M23,0V26c0,0,47,0,66,10c0,0,19,11,28,33c0,0,10,22,10,85V416c0,0,0,112,-7,145c0,0,-5,25,-16,34c0,0,-11,10,-31,10c0,0,-21,0,-50,-11L12,620l207,83h32V557c0,0,75,75,88,86c0,0,34,29,72,44c0,0,39,16,77,16c0,0,64,0,110,-37c0,0,47,-38,62,-109c0,0,77,90,130,118c0,0,53,28,109,28c0,0,54,0,96,-28c0,0,42,-28,67,-91c0,0,16,-43,16,-136V154c0,0,0,-64,10,-88c0,0,8,-16,28,-28c0,0,20,-12,65,-12V0H844V26h14c0,0,44,0,69,18c0,0,17,12,24,38c0,0,3,13,3,72V448c0,0,0,83,-20,117c0,0,-29,48,-93,48c0,0,-39,0,-79,-20c0,0,-40,-19,-97,-73l-1,-8l2,-32V154c0,0,0,-70,8,-87c0,0,7,-17,29,-29c0,0,21,-12,73,-12V0H431V26c0,0,57,0,78,14c0,0,21,13,29,40c0,0,4,13,4,74V448c0,0,0,83,-25,120c0,0,-33,48,-91,48c0,0,-40,0,-80,-22c0,0,-61,-33,-95,-74V154c0,0,0,-67,10,-87c0,0,9,-20,27,-30c0,0,18,-11,74,-11V0Z" 
id="f0_29"
transform="scale(0.001,-0.001)" />

<path d="M398,24c0,0,74,0,120,58c0,0,61,76,61,214c0,0,0,156,-69,240c0,0,-47,59,-113,59c0,0,-36,0,-71,-18c0,0,-27,-14,-88,-81V242c0,0,0,-83,6,-109c0,0,11,-43,51,-76c0,0,41,-33,103,-33ZM-4,-326v27H15c5,0,42,0,69,16c0,0,14,8,22,26c0,0,7,19,7,94V481c0,0,0,67,-6,85c0,0,-5,18,-18,27c0,0,-13,9,-36,9c0,0,-18,0,-45,-10L0,615l209,85h29V540c0,0,53,91,106,127c0,0,53,36,112,36c0,0,103,0,172,-80c0,0,84,-99,84,-257c0,0,0,-176,-102,-292c0,0,-83,-94,-210,-94c0,0,-55,0,-95,16c0,0,-30,10,-67,44V-167c0,0,0,-71,8,-90c0,0,9,-20,30,-31c0,0,21,-11,77,-11v-27Z" 
id="f0_2c"
transform="scale(0.001,-0.001)" />

<path d="M25,0V26c0,0,27,4,47,19c0,0,29,22,96,111L311,346L182,535c0,0,-55,81,-86,102c0,0,-30,20,-75,20v26H341V657c0,0,-30,0,-42,-10c0,0,-13,-11,-13,-28c0,0,0,-19,27,-56c0,0,8,-12,25,-37l48,-78l56,77c0,0,55,74,55,94c0,0,0,16,0,27c0,0,0,11,0,11v26H674V657c0,0,-37,-2,-64,-20c0,0,-37,-26,-100,-111L416,402L587,156c0,0,63,-91,89,-109c0,0,27,-18,70,-21V0H423V26c0,0,34,0,53,15c0,0,14,11,14,28c0,0,0,17,-48,87L341,302L232,157c0,0,-50,-69,-50,-82c0,0,0,-18,17,-32c0,0,17,-15,50,-17V0Z" 
id="f0_2k"
transform="scale(0.001,-0.001)" />

<path d="M58,0V26c0,0,47,0,64,10c0,0,18,10,28,32c0,0,9,23,9,86V775c0,0,0,116,-5,142c0,0,-5,27,-17,37c0,0,-11,9,-29,9c0,0,-20,0,-49,-12L46,978l204,83h34V154c0,0,0,-64,9,-85c0,0,9,-21,29,-32c0,0,19,-11,72,-11V0Z" 
id="f0_28"
transform="scale(0.001,-0.001)" />

<path d="M312,-20c0,0,-62,0,-143,22c0,0,-25,8,-40,8c0,0,-18,0,-27,-19H77V234h25c0,0,21,-105,80,-158c0,0,59,-53,132,-53c0,0,51,0,84,31c0,0,32,30,32,72c0,0,0,52,-36,87c0,0,-36,35,-144,88c0,0,-109,54,-142,97c0,0,-34,43,-34,107c0,0,0,85,58,141c0,0,58,57,150,57c0,0,40,0,97,-17c0,0,38,-11,51,-11c0,0,12,0,19,5c0,0,7,5,15,23h25V470H464c0,0,-28,110,-72,149c0,0,-45,40,-113,40c0,0,-53,0,-85,-28c0,0,-32,-27,-32,-61c0,0,0,-41,24,-71c0,0,23,-31,94,-65L389,381c0,0,152,-74,152,-194c0,0,0,-94,-71,-151c0,0,-70,-56,-158,-56Z" 
id="f0_2f"
transform="scale(0.001,-0.001)" />

<path d="M336,-20L117,554c0,0,-21,55,-42,74c0,0,-21,19,-66,29v26H296V657c0,0,-40,-3,-52,-14c0,0,-13,-12,-13,-33c0,0,0,-23,13,-56L390,162L537,481L498,581c0,0,-18,46,-47,63c0,0,-17,11,-61,13v26H716V657c0,0,-54,-2,-77,-20c0,0,-15,-12,-15,-39c0,0,0,-15,6,-30L785,177L929,554c0,0,15,40,15,65c0,0,0,14,-15,25c0,0,-14,12,-57,13v26h216V657c0,0,-65,-10,-95,-89L764,-20H733L563,415L363,-20Z" 
id="f0_2j"
transform="scale(0.001,-0.001)" />

<path d="M342,-20c0,0,-116,0,-203,97c0,0,-86,98,-86,264c0,0,0,161,96,261c0,0,95,101,230,101c0,0,100,0,165,-53c0,0,65,-54,65,-111c0,0,0,-29,-18,-46c0,0,-18,-18,-51,-18c0,0,-44,0,-66,29c0,0,-13,15,-17,59c0,0,-4,45,-30,68c0,0,-26,22,-73,22c0,0,-74,0,-120,-55c0,0,-60,-73,-60,-193c0,0,0,-122,60,-216c0,0,60,-93,162,-93c0,0,73,0,131,49c0,0,41,35,80,126l22,-10C629,261,601,125,521,52c0,0,-81,-72,-179,-72Z" 
id="f0_1z"
transform="scale(0.001,-0.001)" />

<path d="M26,0V27H62c0,0,63,0,91,37c0,0,18,24,18,115V833c0,0,0,77,-10,102c0,0,-7,18,-30,32c0,0,-33,18,-69,18H26v27H459V985H422c0,0,-35,0,-67,-17c0,0,-23,-12,-32,-36c0,0,-9,-25,-9,-99V542H784V833c0,0,0,77,-10,102c0,0,-8,18,-31,32c0,0,-33,18,-68,18H639v27h432V985h-36c0,0,-36,0,-68,-17c0,0,-24,-12,-32,-36c0,0,-9,-25,-9,-99V179c0,0,0,-77,10,-102c0,0,7,-18,31,-32c0,0,32,-18,68,-18h36V0H639V27h36c0,0,62,0,90,37c0,0,19,24,19,115V487H314V179c0,0,0,-77,9,-102c0,0,8,-18,32,-32c0,0,32,-18,67,-18h37V0Z" 
id="f0_18"
transform="scale(0.001,-0.001)" />

<path d="M911,-16L244,799V175c0,0,0,-93,21,-116c0,0,28,-32,86,-32h36V0H36V27H71c0,0,65,0,92,39c0,0,16,24,16,109V879c0,0,-44,52,-67,68c0,0,-23,17,-67,31c0,0,-21,7,-64,7v27H253L873,253V837c0,0,0,93,-21,116c0,0,-28,32,-87,32H730v27h351V985h-36c0,0,-64,0,-91,-39c0,0,-16,-24,-16,-109V-16Z" 
id="f0_1e"
transform="scale(0.001,-0.001)" />

<path d="M545,30c0,0,143,0,236,111c0,0,93,111,93,351c0,0,0,259,-103,386c0,0,-82,102,-226,102c0,0,-136,0,-218,-101C327,879,225,754,225,512c0,0,0,-247,106,-380c0,0,81,-102,214,-102Zm2,-51c0,0,-209,0,-351,147C196,126,54,274,54,510c0,0,0,240,164,393c0,0,142,131,341,131c0,0,197,0,341,-149c0,0,145,-149,145,-373c0,0,0,-230,-146,-382C899,130,754,-21,547,-21Z" 
id="f0_1f"
transform="scale(0.001,-0.001)" />

<path d="M238,-17c0,0,-103,0,-139,25C99,8,62,33,62,62c0,0,0,22,17,38c0,0,18,16,42,16c0,0,19,0,38,-6c0,0,13,-3,58,-27c0,0,45,-23,62,-28c0,0,27,-8,59,-8c0,0,76,0,132,59c0,0,56,59,56,140c0,0,0,59,-26,115c0,0,-19,41,-42,63c0,0,-32,30,-88,54c0,0,-56,25,-114,25H232v22c0,0,59,8,118,42c0,0,59,35,86,85c0,0,27,49,27,108c0,0,0,76,-48,124c0,0,-48,47,-120,47c0,0,-116,0,-193,-124L77,819c0,0,44,102,110,158c0,0,66,56,164,56c0,0,122,0,187,-80c0,0,49,-58,49,-126c0,0,0,-110,-139,-228c0,0,93,-36,141,-104c0,0,48,-68,48,-160c0,0,0,-131,-84,-227C553,108,444,-17,238,-17Z" 
id="f0_n"
transform="scale(0.001,-0.001)" />

<path d="M399,62c0,0,68,0,131,68V481c0,0,-5,51,-27,93c0,0,-22,42,-59,63c0,0,-37,21,-72,21c0,0,-65,0,-117,-59c0,0,-67,-77,-67,-226c0,0,0,-151,65,-231c0,0,66,-80,146,-80ZM330,-20c0,0,-112,0,-196,93c0,0,-83,94,-83,240c0,0,0,147,92,269c0,0,93,122,238,122c0,0,90,0,149,-58V773c0,0,0,117,-6,144c0,0,-5,27,-17,37c0,0,-12,9,-30,9c0,0,-20,0,-52,-12l-9,27l204,83h33V270c0,0,0,-120,6,-146c0,0,5,-27,18,-37c0,0,12,-11,28,-11c0,0,21,0,54,13l9,-26L564,-20H530V78C530,78,480,25,432,2c0,0,-47,-22,-102,-22Z" 
id="f0_20"
transform="scale(0.001,-0.001)" />

<path d="M145,-328c0,0,-44,0,-73,25c0,0,-28,25,-28,58c0,0,0,31,21,50c0,0,20,19,56,19c0,0,25,0,67,-16c0,0,30,-11,38,-11c0,0,22,0,49,23c0,0,26,23,53,89L376,28L131,542c0,0,-11,24,-36,58c0,0,-19,27,-30,36c0,0,-18,12,-56,21v26H328V657H312c0,0,-33,0,-50,-15c0,0,-17,-14,-17,-36c0,0,0,-30,25,-81L437,179L589,557c0,0,12,31,12,62c0,0,0,13,-5,20c0,0,-6,8,-19,13c0,0,-12,5,-44,5v26H754V657c0,0,-27,-3,-42,-12c0,0,-15,-9,-33,-34c0,0,-7,-10,-25,-58L376,-128c0,0,-40,-99,-105,-150c0,0,-66,-50,-126,-50Z" 
id="f0_2l"
transform="scale(0.001,-0.001)" />

<path d="M292,-20c0,0,-57,0,-100,33c0,0,-42,33,-58,85c0,0,-17,52,-17,148V551c0,0,0,49,-10,68c0,0,-11,18,-31,29c0,0,-19,9,-68,9c-2,0,-4,0,-6,0v26H242V226c0,0,0,-95,33,-125c0,0,33,-30,80,-30c0,0,32,0,73,21c0,0,40,20,96,76V555c0,0,0,59,-21,80c0,0,-22,21,-89,22v26H647V269c0,0,0,-119,6,-145c0,0,6,-27,18,-37c0,0,12,-11,29,-11c0,0,23,0,52,13L763,63L558,-20H524V124C524,124,436,29,390,4c0,0,-47,-24,-98,-24Z" 
id="f0_2h"
transform="scale(0.001,-0.001)" />

<path d="M82,-253v33c0,0,77,25,119,78c0,0,42,54,42,114c0,0,0,14,-7,23c0,0,-5,6,-11,6c0,0,-8,0,-35,-14c0,0,-14,-7,-28,-7c0,0,-37,0,-58,21C104,1,82,23,82,61c0,0,0,36,28,62c0,0,28,27,68,27c0,0,49,0,88,-43c0,0,38,-43,38,-113c0,0,0,-77,-53,-143c0,0,-53,-66,-169,-104Z" 
id="f0_g"
transform="scale(0.001,-0.001)" />

<path d="M13,0V26c0,0,52,0,78,13c0,0,16,8,24,25c0,0,11,25,11,86V773c0,0,0,118,-5,145c0,0,-5,26,-17,36c0,0,-12,10,-32,10c0,0,-15,0,-47,-13L13,978l203,83h34V381L424,540c0,0,55,50,64,64c0,0,6,9,6,18c0,0,0,15,-12,26c0,0,-13,11,-41,12v23H738V660c0,0,-61,-2,-102,-19c0,0,-40,-17,-89,-62L372,418L547,196c0,0,73,-92,98,-117c0,0,36,-35,63,-45c0,0,18,-8,65,-8V0H441V26c0,0,28,1,38,9c0,0,10,8,10,22c0,0,0,17,-29,56L250,381V154c0,0,0,-67,10,-88c0,0,9,-21,26,-30c0,0,17,-9,75,-10V0Z" 
id="f0_27"
transform="scale(0.001,-0.001)" />

<path d="M114,0V27h27c0,0,65,0,93,15c0,0,27,15,37,41c0,0,10,27,10,122V729c0,0,0,71,-7,89c0,0,-7,17,-25,30c0,0,-18,12,-42,12c0,0,-38,0,-93,-24l-13,26l372,171h25V205c0,0,0,-93,8,-119c0,0,8,-26,34,-42c0,0,27,-17,84,-17h23V0Z" 
id="f1_l"
transform="scale(0.001,-0.001)" />

<path d="M254,-20c0,0,-128,0,-187,41C67,21,24,51,24,98c0,0,0,34,25,59c0,0,25,24,57,24c0,0,25,0,46,-11c0,0,12,-6,85,-65c0,0,73,-59,136,-59c0,0,56,0,95,44c0,0,40,43,40,110c0,0,0,102,-72,189c0,0,-72,86,-210,118v27c0,0,85,24,118,46c0,0,33,21,57,64c0,0,24,44,24,89c0,0,0,61,-46,106c0,0,-45,44,-112,44c0,0,-105,0,-178,-110l-27,9c0,0,53,125,137,188c0,0,84,63,187,63c0,0,105,0,174,-65c0,0,68,-64,68,-150c0,0,0,-56,-32,-107c0,0,-32,-52,-100,-92c0,0,88,-42,134,-105c0,0,46,-62,46,-156c0,0,0,-158,-115,-269C561,89,447,-20,254,-20Z" 
id="f1_n"
transform="scale(0.001,-0.001)" />

<path d="M191,-18c0,0,-51,0,-87,36c0,0,-37,36,-37,87c0,0,0,52,37,88c0,0,36,37,87,37c0,0,52,0,89,-37c0,0,36,-36,36,-88c0,0,0,-51,-37,-87c0,0,-36,-36,-88,-36Z" 
id="f1_i"
transform="scale(0.001,-0.001)" />

<path d="M37,0V16c0,0,275,327,333,439c0,0,59,113,59,220c0,0,0,79,-49,131c0,0,-49,52,-119,52c0,0,-115,0,-178,-115l-28,9c0,0,40,143,123,212c0,0,82,69,189,69c0,0,77,0,141,-36c0,0,63,-36,99,-98c0,0,36,-63,36,-117c0,0,0,-99,-56,-202c0,0,-75,-138,-329,-384H477c0,0,81,0,105,6c0,0,24,7,40,23c0,0,15,16,41,67h27L633,0Z" 
id="f1_m"
transform="scale(0.001,-0.001)" />

<path d="M30,0V27H40c0,0,1,0,2,0c6,0,36,1,62,11c0,0,29,12,44,31c0,0,15,20,23,55c0,0,2,8,2,76V841c0,0,0,77,-9,96c0,0,-8,19,-33,33c0,0,-26,15,-69,15H30v27H445L729,346l274,666h412V985h-33c0,0,-45,0,-72,-16c0,0,-19,-10,-30,-35c0,0,-8,-18,-8,-93V173c0,0,0,-78,8,-97c0,0,8,-20,34,-34c0,0,25,-15,68,-15h33V0H886V27h33c0,0,44,0,71,16c0,0,19,11,30,36c0,0,8,18,8,94V923L641,0H623L229,916V203c0,0,0,-74,4,-91c0,0,10,-38,42,-61c0,0,33,-24,102,-24V0Z" 
id="f1_1d"
transform="scale(0.001,-0.001)" />

<path d="M32,0V26c0,0,46,2,69,27c0,0,14,18,14,92V551c0,0,0,75,-17,95c0,0,-17,21,-66,24v27H325V145c0,0,0,-74,17,-95c0,0,17,-21,68,-24V0ZM220,804c0,0,-48,0,-82,33c0,0,-33,34,-33,82c0,0,0,48,33,82c0,0,34,33,82,33c0,0,48,0,82,-33c0,0,33,-34,33,-82c0,0,0,-48,-34,-82c0,0,-34,-33,-81,-33Z" 
id="f1_25"
transform="scale(0.001,-0.001)" />

<path d="M32,0V26c0,0,46,2,69,27c0,0,14,18,14,92V867c0,0,0,74,-17,94c0,0,-17,21,-66,24v27H325V145c0,0,0,-74,17,-95c0,0,17,-21,68,-24V0Z" 
id="f1_28"
transform="scale(0.001,-0.001)" />

<path d="M381,31c0,0,33,0,56,19c0,0,29,25,38,71c0,0,15,71,15,286c0,0,0,127,-14,174c0,0,-14,48,-42,69c0,0,-19,16,-50,16c0,0,-38,0,-65,-29c0,0,-27,-29,-36,-113c0,0,-8,-85,-8,-235c0,0,0,-80,10,-150c0,0,8,-53,35,-80c0,0,27,-28,61,-28Zm2,-51c0,0,-157,0,-242,110c0,0,-85,110,-85,256c0,0,0,150,87,261c0,0,86,112,238,112c0,0,90,0,169,-47c0,0,78,-47,119,-134c0,0,40,-86,40,-189c0,0,0,-149,-75,-249c0,0,-91,-120,-251,-120Z" 
id="f1_2b"
transform="scale(0.001,-0.001)" />

<path d="M52,0V26c0,0,44,5,62,29c0,0,13,16,13,97V546c0,0,0,79,-14,98c0,0,-15,20,-61,26v27H336V607c0,0,54,59,104,85c0,0,49,27,106,27c0,0,68,0,113,-38c0,0,44,-38,59,-94c0,0,12,-42,12,-163V152c0,0,0,-81,15,-101c0,0,14,-19,61,-25V0H452V26c0,0,40,6,57,33c0,0,12,19,12,93V462c0,0,0,86,-7,109c0,0,-6,22,-22,35c0,0,-16,12,-36,12c0,0,-64,0,-120,-92V152c0,0,0,-79,15,-100c0,0,15,-20,55,-26V0Z" 
id="f1_2a"
transform="scale(0.001,-0.001)" />

<path d="M140,538v33c0,0,87,37,126,96c0,0,39,60,39,122c0,0,0,12,-5,19c0,0,-5,6,-11,6c0,0,-4,0,-13,-5c0,0,-22,-13,-54,-13c0,0,-44,0,-76,34c0,0,-33,35,-33,81c0,0,0,49,38,86c0,0,37,37,90,37c0,0,64,0,110,-49c0,0,45,-50,45,-136c0,0,0,-107,-65,-190c0,0,-64,-82,-191,-121Z" 
id="f1_53"
transform="scale(0.001,-0.001)" />

<path d="M312,-20c0,0,-50,0,-134,30c0,0,-22,9,-30,9c0,0,-25,0,-41,-37H82L70,232H97c0,0,33,-99,91,-148c0,0,59,-49,111,-49c0,0,35,0,58,22c0,0,22,22,22,54c0,0,0,35,-22,61c0,0,-22,27,-100,80c0,0,-114,79,-147,120c0,0,-49,62,-49,136c0,0,0,80,55,145c0,0,56,66,161,66c0,0,56,0,109,-28c0,0,20,-11,33,-11c0,0,13,0,21,5c0,0,9,6,27,32h26L504,479H477c0,0,-45,106,-94,145c0,0,-48,39,-96,39c0,0,-31,0,-52,-21c0,0,-22,-20,-22,-47c0,0,0,-20,15,-39c0,0,24,-30,133,-105c0,0,110,-74,144,-126c0,0,35,-52,35,-116c0,0,0,-58,-29,-114C511,95,482,39,429,9c0,0,-53,-29,-117,-29Z" 
id="f1_2f"
transform="scale(0.001,-0.001)" />

<path d="M244,0V27h34c0,0,44,0,71,16c0,0,19,11,30,36c0,0,8,18,8,94V953H314c0,0,-103,0,-149,-43c0,0,-66,-60,-83,-172H55v274H965V738H938c0,0,-24,95,-53,136c0,0,-29,41,-80,66c0,0,-28,13,-99,13H631V173c0,0,0,-78,8,-97c0,0,9,-20,34,-34c0,0,25,-15,68,-15h33V0Z" 
id="f1_1k"
transform="scale(0.001,-0.001)" />

<path d="M458,424c0,0,0,120,-13,165c0,0,-13,44,-40,67c0,0,-16,14,-42,14c0,0,-39,0,-63,-38c0,0,-44,-66,-44,-182V424ZM358,-20c0,0,-155,0,-235,119c0,0,-64,96,-64,239c0,0,0,174,94,277c0,0,94,104,221,104c0,0,106,0,184,-87c0,0,78,-87,84,-257H259c0,0,7,-139,74,-220c0,0,51,-62,124,-62c0,0,45,0,81,25c0,0,37,25,79,90l25,-16C642,192,585,76,517,28c0,0,-69,-48,-159,-48Z" 
id="f1_21"
transform="scale(0.001,-0.001)" />

<path d="M298,-9c0,0,-67,0,-113,36c0,0,-46,37,-58,83c0,0,-8,25,-8,137V624H28v26c0,0,94,66,161,139c0,0,66,73,115,163h25V697H494V624H329V193c0,0,0,-60,5,-78c0,0,6,-17,20,-28c0,0,14,-11,26,-11c0,0,48,0,92,75l22,-17C494,134,434,-9,298,-9Z" 
id="f1_2g"
transform="scale(0.001,-0.001)" />

<path d="M25,0V27H61c0,0,64,0,91,39c0,0,16,24,16,109V837c0,0,0,67,-15,97c0,0,-10,22,-38,36c0,0,-28,15,-90,15v27H312L678,220l363,792h285V985h-35c0,0,-64,0,-91,-39c0,0,-17,-24,-17,-109V175c0,0,0,-93,21,-116c0,0,28,-32,87,-32h35V0H898V27h36c0,0,64,0,90,39c0,0,17,24,17,109V852L649,0H625L234,852V175c0,0,0,-93,20,-116c0,0,27,-32,87,-32h35V0Z" 
id="f0_1d"
transform="scale(0.001,-0.001)" />

<path d="M177,647v35c0,0,77,46,105,86c0,0,19,28,19,68c0,0,0,23,-8,34c0,0,-9,11,-19,11c0,0,-9,0,-22,-5c0,0,-19,-7,-32,-7c0,0,-30,0,-53,23c0,0,-23,22,-23,56c0,0,0,37,23,58c0,0,31,28,75,28c0,0,50,0,90,-42c0,0,40,-42,40,-105c0,0,0,-88,-67,-160c0,0,-44,-48,-128,-80Z" 
id="f0_53"
transform="scale(0.001,-0.001)" />

<path d="M474,-21L174,817c0,0,-34,94,-42,112c0,0,-15,28,-41,42c0,0,-26,14,-70,14v27H395V985H377c0,0,-40,0,-60,-18c0,0,-21,-18,-21,-44c0,0,0,-26,33,-120L528,235L696,718l-30,85l-24,68c0,0,-16,37,-35,66c0,0,-10,14,-24,24c0,0,-19,13,-38,19c0,0,-14,5,-44,5v27H894V985H867c0,0,-41,0,-61,-18c0,0,-19,-18,-19,-49c0,0,0,-38,33,-133L1015,235l193,557c0,0,32,93,32,129c0,0,0,17,-10,32c0,0,-11,15,-28,21c0,0,-28,11,-74,11v27h302V985c0,0,-39,0,-64,-15c0,0,-25,-14,-47,-53c0,0,-15,-26,-47,-124L990,-21H960L729,624L501,-21Z" 
id="f0_1n"
transform="scale(0.001,-0.001)" />

<path d="M384,85c0,0,44,0,78,19c0,0,35,19,68,62V487c0,0,0,55,-15,87c0,0,-14,33,-51,55c0,0,-38,22,-85,22c0,0,-84,0,-143,-71c0,0,-60,-70,-60,-214c0,0,0,-138,61,-209c0,0,61,-72,147,-72Zm35,-411v27h15c0,0,41,0,63,12c0,0,15,8,24,30c0,0,9,21,9,83V119C530,119,462,39,411,9c0,0,-50,-29,-105,-29c0,0,-99,0,-177,90c0,0,-78,90,-78,241c0,0,0,174,103,283c0,0,103,109,248,109c0,0,43,0,78,-12c0,0,36,-12,65,-35c0,0,43,20,83,47h25V-174c0,0,0,-66,9,-85c0,0,9,-19,28,-30c0,0,19,-10,74,-10v-27Z" 
id="f0_2d"
transform="scale(0.001,-0.001)" />

<path d="M253,0V27h36c0,0,64,0,91,39c0,0,16,24,16,109V948H274c0,0,-71,0,-100,-10c0,0,-39,-14,-67,-54c0,0,-27,-41,-33,-109H46l12,237H883L894,775H865c0,0,-8,62,-22,89c0,0,-23,43,-61,64c0,0,-39,20,-101,20H539V175c0,0,0,-93,20,-116c0,0,28,-32,87,-32h36V0Z" 
id="f0_1k"
transform="scale(0.001,-0.001)" />

<path d="M376,-20L133,556c0,0,-17,41,-31,58c0,0,-15,18,-39,30c0,0,-12,7,-50,13v26H335V657H314c0,0,-29,0,-44,-14c0,0,-16,-14,-15,-38c0,0,-1,-26,15,-62L429,165L588,557c0,0,17,42,17,64c0,0,0,10,-6,17c0,0,-8,11,-21,15c0,0,-13,4,-52,4v26H750V657c0,0,-39,-3,-54,-16c0,0,-26,-23,-47,-76L409,-20Z" 
id="f0_2i"
transform="scale(0.001,-0.001)" />

<path d="M316,27c0,0,57,0,105,53c0,0,65,72,125,295c0,0,-40,153,-104,214c0,0,-63,61,-129,61c0,0,-73,0,-122,-80c0,0,-48,-80,-48,-255c0,0,0,-104,20,-163c0,0,21,-60,64,-92c0,0,42,-33,89,-33Zm4,-49c0,0,-165,0,-243,108C77,86,0,196,0,336c0,0,0,164,91,265c0,0,91,102,213,102c0,0,85,0,150,-52c0,0,65,-51,118,-192l65,224H760L662,344c0,0,-9,-32,-30,-100c0,0,29,-115,43,-137c0,0,27,-41,68,-41c0,0,30,0,55,24c0,0,26,25,34,77h30C862,167,852,60,817,19c0,0,-35,-40,-81,-40c0,0,-42,0,-77,34c0,0,-35,36,-62,154c0,0,-33,-65,-65,-99C532,68,488,22,437,0c0,0,-52,-22,-117,-22Z" 
id="f2_1x"
transform="scale(0.001,-0.001)" />

<path d="M62,286V399H448V286Z" 
id="f0_h"
transform="scale(0.001,-0.001)" />

<path d="M404,381V781L110,381ZM404,0V227H38V381l480,652h91V381h93V227H609V0Z" 
id="f1_o"
transform="scale(0.001,-0.001)" />

<path d="M910,-21L225,820V176c0,0,0,-87,40,-118c0,0,40,-31,91,-31h24V0H21V27c0,0,83,1,116,35c0,0,33,33,33,114V891l-21,26c0,0,-32,41,-57,53c0,0,-24,13,-71,15v27H380L880,385V819c0,0,0,92,-26,124c0,0,-34,42,-116,42c-1,0,-3,0,-4,0v27h334V985c0,0,-64,-9,-86,-22c0,0,-22,-13,-35,-42c0,0,-12,-30,-12,-102V-21Z" 
id="f1_1e"
transform="scale(0.001,-0.001)" />

<path d="M52,0V26c0,0,44,5,62,29c0,0,13,16,13,97V860c0,0,0,80,-14,99c0,0,-15,20,-61,26v27H336V608c0,0,58,61,106,86c0,0,47,25,99,25c0,0,65,0,112,-38c0,0,47,-37,62,-87c0,0,15,-51,15,-170V152c0,0,0,-81,15,-100c0,0,15,-20,61,-26V0H452V26c0,0,37,6,56,30c0,0,13,20,13,96V463c0,0,0,86,-7,108c0,0,-6,22,-22,35c0,0,-16,12,-36,12c0,0,-30,0,-59,-21c0,0,-28,-20,-61,-72V152c0,0,0,-75,12,-94c0,0,14,-26,58,-32V0Z" 
id="f1_24"
transform="scale(0.001,-0.001)" />

<path d="M182,-328c0,0,-62,0,-101,35c0,0,-38,35,-38,85c0,0,0,44,26,72c0,0,27,28,66,28c0,0,37,0,60,-23c0,0,22,-24,23,-74c0,0,1,-29,7,-37c0,0,6,-8,17,-8c0,0,18,0,38,21c0,0,30,32,70,144l22,57L146,488c0,0,-50,118,-74,144c0,0,-25,27,-59,38v27H384V670c0,0,-36,-2,-51,-14c0,0,-15,-13,-15,-31c0,0,0,-28,37,-112L475,239l81,212c0,0,44,113,44,157c0,0,0,27,-18,44c0,0,-18,16,-65,18v27H750V670c0,0,-34,-4,-56,-27c0,0,-22,-22,-72,-155L422,-27c0,0,-75,-194,-111,-239c0,0,-52,-62,-129,-62Z" 
id="f1_2l"
transform="scale(0.001,-0.001)" />

<path d="M397,69c0,0,65,0,123,103V539c0,0,-55,105,-134,105c0,0,-28,0,-46,-15c0,0,-27,-23,-45,-81c0,0,-17,-58,-17,-178c0,0,0,-132,19,-195c0,0,19,-63,53,-91c0,0,17,-15,47,-15ZM332,-20c0,0,-133,0,-211,119c0,0,-62,97,-62,238c0,0,0,112,38,202c0,0,39,89,107,134c0,0,67,46,145,46c0,0,50,0,88,-20c0,0,39,-19,83,-67V842c0,0,0,80,-7,96c0,0,-8,22,-26,32c0,0,-18,11,-68,11v31H729V209c0,0,0,-81,5,-96c0,0,6,-25,22,-36c0,0,17,-12,58,-15V37L520,-20V90C520,90,467,26,426,3c0,0,-42,-23,-94,-23Z" 
id="f1_20"
transform="scale(0.001,-0.001)" />

<path d="M57,0V26c0,0,45,4,61,25c0,0,16,22,16,113V550c0,0,0,59,-6,76c0,0,-7,21,-22,30c0,0,-14,10,-49,14v27H342l1,-158c0,0,69,109,121,144c0,0,52,36,100,36c0,0,42,0,66,-26c0,0,25,-26,25,-73c0,0,0,-50,-24,-77c0,0,-25,-28,-59,-28c0,0,-39,0,-68,25c0,0,-28,26,-33,29c0,0,-8,4,-17,4c0,0,-22,0,-41,-16c0,0,-31,-26,-46,-73c0,0,-24,-72,-24,-159V122c0,0,0,-42,5,-54c0,0,9,-21,27,-30c0,0,17,-9,59,-12V0Z" 
id="f1_2e"
transform="scale(0.001,-0.001)" />

<path d="M474,-326c0,0,-112,57,-188,133c0,0,-107,108,-165,254c0,0,-58,147,-58,305c0,0,0,231,114,421c0,0,114,191,297,273v-31c0,0,-92,-51,-151,-139c0,0,-59,-88,-88,-223c0,0,-30,-135,-30,-281c0,0,0,-160,25,-290c0,0,20,-102,47,-164c0,0,28,-62,75,-120c0,0,47,-57,122,-109v-29Z" 
id="f0_c"
transform="scale(0.001,-0.001)" />

<path d="M33,0V27c0,0,264,241,371,393c0,0,108,152,108,278c0,0,0,96,-59,158c0,0,-59,62,-141,62c0,0,-75,0,-134,-43c0,0,-59,-44,-88,-128H63c0,0,18,138,95,212c0,0,77,74,193,74c0,0,123,0,205,-80c0,0,83,-79,83,-186c0,0,0,-77,-36,-154c0,0,-55,-121,-179,-256C424,357,238,154,191,112H455c0,0,81,0,114,6c0,0,32,6,58,25c0,0,27,18,46,52h27L630,0Z" 
id="f0_m"
transform="scale(0.001,-0.001)" />

<path d="M197,0V27c0,0,71,2,92,13c0,0,21,10,29,29c0,0,9,18,9,109V725c0,0,0,110,-8,141c0,0,-5,24,-19,35c0,0,-14,11,-33,11c0,0,-28,0,-77,-23l-11,23l246,121h25V178c0,0,0,-85,7,-106c0,0,7,-21,29,-32c0,0,23,-11,91,-13V0Z" 
id="f0_l"
transform="scale(0.001,-0.001)" />

<path d="M35,-326v29c0,0,92,51,151,139c0,0,60,87,89,221c0,0,28,136,28,282c0,0,0,159,-24,290c0,0,-19,103,-47,165c0,0,-28,62,-75,119c0,0,-46,57,-122,110v31c0,0,113,-56,188,-132c0,0,107,-109,165,-255c0,0,58,-147,58,-306c0,0,0,-231,-114,-420c0,0,-113,-191,-297,-273Z" 
id="f0_d"
transform="scale(0.001,-0.001)" />

<path d="M107,-21V325h27c0,0,19,-109,52,-163c0,0,33,-54,100,-90c0,0,68,-36,148,-36c0,0,93,0,148,49c0,0,54,50,54,117c0,0,0,37,-21,75c0,0,-20,38,-64,71c0,0,-29,22,-159,95c0,0,-130,72,-185,115c0,0,-55,44,-83,96c0,0,-28,52,-28,114c0,0,0,109,83,188c0,0,84,78,213,78c0,0,81,0,171,-39c0,0,42,-19,59,-19c0,0,20,0,32,11c0,0,12,12,20,47h27V684H674c0,0,-14,101,-48,161c0,0,-35,60,-100,95c0,0,-64,35,-133,35c0,0,-77,0,-128,-47c0,0,-51,-48,-51,-108c0,0,0,-46,32,-84c0,0,47,-56,221,-149c0,0,142,-76,194,-117c0,0,51,-41,80,-96c0,0,28,-55,28,-115c0,0,0,-115,-90,-198c0,0,-89,-82,-229,-82c0,0,-44,0,-83,6c0,0,-23,4,-95,27c0,0,-73,24,-93,24c0,0,-18,0,-29,-11c0,0,-11,-12,-16,-46Z" 
id="f0_1j"
transform="scale(0.001,-0.001)" />

<path d="M578,166c0,0,66,0,109,13c0,0,44,12,74,51c0,0,31,39,31,93c0,0,0,46,-22,78c0,0,-21,33,-64,49c0,0,-44,16,-132,16H439V241c0,0,1,-48,4,-56c0,0,3,-11,12,-15c0,0,9,-4,47,-4ZM553,619c0,0,90,0,132,15c0,0,43,15,65,45c0,0,21,30,21,70c0,0,0,41,-20,70c0,0,-21,30,-59,42c0,0,-39,12,-139,12H439V619ZM58,0V144h42c0,0,41,0,55,7c0,0,15,7,21,20c0,0,6,13,6,59V810c0,0,0,46,-6,59c0,0,-6,13,-21,20c0,0,-14,8,-55,8H59v143H650c0,0,135,0,213,-31c0,0,77,-32,119,-91c0,0,42,-60,42,-130c0,0,0,-52,-22,-98c0,0,-22,-46,-64,-82c0,0,-41,-35,-109,-58c0,0,73,-19,111,-41c0,0,56,-32,89,-88c0,0,33,-56,33,-126c0,0,0,-82,-50,-152c0,0,-50,-70,-141,-106C871,37,780,0,604,0Z" 
id="f3_12"
transform="scale(0.001,-0.001)" />

<path d="M52,0V144H93c0,0,44,0,58,6c0,0,13,6,20,20c0,0,6,14,6,55V803c0,0,0,49,-6,64c0,0,-7,15,-22,24c0,0,-10,6,-51,6H52v143H559V897H513c0,0,-40,0,-53,-7c0,0,-13,-8,-20,-23c0,0,-6,-15,-6,-58V233c0,0,0,-47,5,-61c0,0,6,-13,18,-19c0,0,16,-9,47,-9h55V0Z" 
id="f3_19"
transform="scale(0.001,-0.001)" />

<path d="M611,148c0,0,117,0,187,88c0,0,83,105,83,281c0,0,0,124,-35,208c0,0,-36,84,-96,126c0,0,-61,42,-132,42c0,0,-118,0,-189,-89c0,0,-88,-112,-88,-289c0,0,0,-176,82,-279c0,0,71,-88,188,-88ZM608,-17c0,0,-231,0,-378,126C230,109,53,262,53,518c0,0,0,237,155,389c0,0,156,151,407,151c0,0,248,0,401,-151c0,0,153,-150,153,-386c0,0,0,-159,-70,-282c0,0,-70,-123,-193,-190c0,0,-124,-66,-298,-66Z" 
id="f3_1f"
transform="scale(0.001,-0.001)" />

<path d="M59,0V144h42c0,0,39,0,54,7c0,0,15,7,22,22c0,0,7,15,7,57V813c0,0,0,40,-5,52c0,0,-7,17,-21,24c0,0,-13,8,-42,8H59v143H530L711,408l185,632h481V897h-52c0,0,-41,0,-57,-18c0,0,-16,-17,-16,-66V222c0,0,0,-39,4,-48c0,0,7,-15,19,-21c0,0,16,-9,43,-9h59V0H876V144h39c0,0,42,0,57,6c0,0,15,7,22,21c0,0,7,14,7,51V862L748,0H604L359,835V202c0,0,0,-22,8,-34c0,0,8,-12,22,-18c0,0,15,-6,47,-6h50V0Z" 
id="f3_1d"
transform="scale(0.001,-0.001)" />

<path d="M63,0V144h49c0,0,31,0,46,8c0,0,16,8,23,22c0,0,7,14,7,48V812c0,0,0,37,-7,53c0,0,-7,17,-20,24c0,0,-13,8,-44,8H63v143H570V897H526c0,0,-37,0,-47,-4c0,0,-18,-8,-26,-23c0,0,-8,-15,-8,-49V226c0,0,0,-36,3,-44c0,0,4,-8,14,-13c0,0,10,-5,40,-5c0,0,100,0,161,26c0,0,61,27,110,84c0,0,49,58,84,158L994,385L857,0Z" 
id="f3_1c"
transform="scale(0.001,-0.001)" />

<path d="M59,0V144H85c0,0,52,0,70,7c0,0,18,8,25,26c0,0,4,11,4,64V808c0,0,0,46,-7,60c0,0,-6,14,-19,22c0,0,-14,7,-53,7H59v143H928L1046,712L911,663c0,0,-34,81,-80,130c0,0,-46,49,-102,65c0,0,-55,16,-129,16H441V615h52c0,0,59,0,80,9c0,0,20,8,29,26c0,0,9,19,9,73v40H744V322H611v45c0,0,0,45,-11,66c0,0,-11,21,-29,29c0,0,-19,7,-83,7H441V230c0,0,0,-38,4,-47c0,0,3,-8,14,-12c0,0,11,-5,47,-5h87c0,0,98,0,165,28c0,0,67,28,120,91c0,0,53,63,81,149l136,-47L959,0Z" 
id="f3_15"
transform="scale(0.001,-0.001)" />

<path d="M579,-17c0,0,-147,0,-266,70c0,0,-119,70,-189,197c0,0,-71,127,-71,277c0,0,0,149,69,271c0,0,69,123,187,191c0,0,119,69,265,69c0,0,149,0,260,-62l25,44H965L1067,667L928,627c0,0,-69,133,-130,189c0,0,-85,77,-185,77c0,0,-72,0,-135,-41c0,0,-63,-40,-100,-118c0,0,-37,-78,-37,-183c0,0,0,-161,85,-276c0,0,85,-116,222,-116c0,0,87,0,168,50c0,0,100,62,173,167l116,-86C1105,290,992,136,899,76c0,0,-144,-93,-320,-93Z" 
id="f3_13"
transform="scale(0.001,-0.001)" />

<path d="M561,-17c0,0,-97,0,-173,29c0,0,-76,29,-133,84c0,0,-57,55,-80,116c0,0,-22,61,-22,181V794c0,0,0,56,-6,72c0,0,-6,16,-20,23c0,0,-13,8,-52,8H27v143H536V897H486c0,0,-35,0,-49,-9c0,0,-15,-8,-22,-23c0,0,-6,-15,-6,-62V424c0,0,0,-106,21,-158c0,0,21,-52,64,-79c0,0,43,-28,105,-28c0,0,61,0,109,30c0,0,48,30,68,76c0,0,21,46,21,152V834c0,0,0,26,-7,37c0,0,-9,15,-24,21c0,0,-10,5,-53,5H673v143h429V897h-34c0,0,-49,0,-61,-6c0,0,-18,-9,-26,-26c0,0,-6,-12,-6,-62V393c0,0,0,-114,-33,-191C942,202,896,98,797,40c0,0,-100,-57,-236,-57Z" 
id="f3_1l"
transform="scale(0.001,-0.001)" />

<path d="M567,-17c0,0,-83,0,-152,21c0,0,-70,21,-145,71L237,0H126L52,404l140,33c0,0,49,-123,153,-205c0,0,104,-82,228,-82c0,0,56,0,93,14c0,0,37,14,56,39c0,0,18,25,18,52c0,0,0,45,-43,77c0,0,-44,32,-154,63L369,446c0,0,-40,11,-107,42c0,0,-68,31,-104,64c0,0,-36,34,-60,86c0,0,-24,53,-24,111c0,0,0,83,46,153c0,0,46,69,138,113c0,0,92,43,204,43c0,0,135,0,244,-70l29,52H842L932,692L792,652c0,0,-69,125,-157,183c0,0,-88,58,-187,58c0,0,-64,0,-101,-26c0,0,-37,-27,-37,-59c0,0,0,-36,34,-67c0,0,32,-32,121,-56L665,626c0,0,166,-47,237,-126c0,0,70,-80,70,-186c0,0,0,-135,-107,-229C865,85,745,-17,567,-17Z" 
id="f3_1j"
transform="scale(0.001,-0.001)" />

<path d="M200,-281l-84,93c0,0,98,89,124,124c0,0,26,35,42,85C282,21,268,10,253,5C253,5,238,0,223,0c0,0,-42,0,-75,36c0,0,-33,36,-33,86c0,0,0,60,42,100c0,0,41,41,101,41c0,0,44,0,85,-25c0,0,41,-25,63,-69c0,0,22,-43,22,-101c0,0,0,-93,-62,-183c0,0,-63,-90,-166,-166Z" 
id="f3_g"
transform="scale(0.001,-0.001)" />

<path d="M532,575c0,0,81,0,119,17c0,0,38,16,61,51c0,0,23,35,23,83c0,0,0,71,-55,113c0,0,-41,31,-121,31H443V575ZM61,0V144H96c0,0,46,0,61,6c0,0,15,7,22,22c0,0,7,14,7,60V804c0,0,0,48,-6,63c0,0,-6,15,-19,23c0,0,-13,7,-50,7H61v143H611c0,0,104,0,173,-21c0,0,69,-21,119,-64c0,0,49,-44,76,-103c0,0,27,-59,27,-126c0,0,0,-133,-102,-223c0,0,-103,-90,-284,-90H443V218c0,0,0,-37,5,-47c0,0,7,-14,21,-21c0,0,13,-6,46,-6h53V0Z" 
id="f3_1g"
transform="scale(0.001,-0.001)" />

<path d="M280,0V144h27c0,0,54,0,69,7c0,0,15,7,23,24c0,0,8,16,8,67V405L129,827c0,0,-33,49,-57,61c0,0,-18,9,-71,9v143H518V897H479c0,0,-41,0,-51,-7c0,0,-11,-6,-11,-20c0,0,0,-20,24,-59L579,586L730,821c0,0,20,31,22,34c0,0,3,9,3,17c0,0,0,13,-8,19c0,0,-9,6,-40,6H653v143h416V897c0,0,-55,-1,-77,-13c0,0,-22,-12,-52,-57L663,422V236c0,0,0,-49,6,-64c0,0,7,-14,22,-21c0,0,15,-7,60,-7h37V0Z" 
id="f3_1p"
transform="scale(0.001,-0.001)" />

<path d="M593,600c0,0,92,0,137,17c0,0,45,17,68,48c0,0,22,31,22,76c0,0,0,41,-21,71c0,0,-21,29,-60,43c0,0,-40,14,-128,14H439V600ZM55,0V144h46c0,0,37,0,52,8c0,0,16,7,23,23c0,0,4,9,4,56V816c0,0,0,35,-6,49c0,0,-5,15,-18,19c0,0,-18,8,-41,8H55v148H697c0,0,62,0,135,-11c0,0,74,-11,133,-49c0,0,60,-38,92,-96c0,0,33,-59,33,-132c0,0,0,-118,-84,-192c0,0,-85,-73,-201,-96L1019,215l9,-11c0,0,21,-25,38,-38c0,0,17,-12,34,-17c0,0,18,-5,48,-5h45V0H859L526,448H439V241c0,0,0,-54,6,-69c0,0,6,-14,19,-21c0,0,13,-7,52,-7h48V0Z" 
id="f3_1i"
transform="scale(0.001,-0.001)" />

<path d="M54,0V144H88c0,0,44,0,61,7c0,0,17,8,24,21c0,0,6,14,6,59V797c0,0,0,53,-6,69c0,0,-7,16,-20,23c0,0,-14,8,-53,8H54v143H561V897H515c0,0,-39,0,-53,-8c0,0,-14,-8,-20,-23c0,0,-6,-14,-6,-63V622H815V817c0,0,0,36,-4,48c0,0,-6,18,-20,25c0,0,-14,7,-63,7H688v143h510V897h-43c0,0,-43,0,-57,-7c0,0,-14,-8,-20,-21c0,0,-5,-14,-5,-66V239c0,0,0,-52,7,-67c0,0,7,-16,21,-22c0,0,15,-6,67,-6h30V0H688V144h34c0,0,47,0,64,7c0,0,17,8,23,22c0,0,6,14,6,66V460H436V239c0,0,0,-52,5,-65c0,0,7,-18,22,-24c0,0,16,-6,63,-6h35V0Z" 
id="f3_18"
transform="scale(0.001,-0.001)" />

<path d="M280,0V144h30c0,0,51,0,66,6c0,0,14,6,21,22c0,0,8,17,8,67V851c0,0,0,26,-6,33c0,0,-6,7,-26,7c0,0,-38,0,-86,-29c0,0,-48,-29,-85,-82c0,0,-15,-21,-63,-118L2,711l128,365h99l10,-36H826l13,36h99L1067,711L928,662c0,0,-46,91,-66,119c0,0,-40,55,-92,86c0,0,-38,24,-77,24c0,0,-18,0,-24,-9c0,0,-7,-8,-7,-39V244c0,0,0,-53,4,-66c0,0,3,-13,12,-21c0,0,9,-8,25,-11c0,0,16,-2,84,-2V0Z" 
id="f3_1k"
transform="scale(0.001,-0.001)" />

<path d="M59,0V144h44c0,0,37,0,51,6c0,0,14,6,22,22c0,0,8,16,8,47V816c0,0,0,34,-8,50c0,0,-7,16,-20,24c0,0,-12,7,-42,7H59v143H480L786,433V805c0,0,0,48,-5,60c0,0,-8,17,-20,25c0,0,-13,7,-49,7H661v143h428V897h-47c0,0,-36,0,-51,-9c0,0,-15,-8,-21,-22c0,0,-6,-14,-6,-61V0H750L364,767V230c0,0,0,-46,5,-59c0,0,6,-12,20,-20c0,0,15,-7,50,-7h50V0Z" 
id="f3_1e"
transform="scale(0.001,-0.001)" />

<path d="M433,0L117,807c0,0,-20,49,-30,62c0,0,-11,14,-30,21c0,0,-16,7,-49,7c-2,0,-4,0,-6,0v143H497V897H481c0,0,-47,0,-60,-4c0,0,-13,-4,-22,-16c0,0,-9,-12,-9,-24c0,0,0,-16,17,-65L591,271L787,802c0,0,15,39,15,54c0,0,0,21,-14,31c0,0,-14,10,-60,10H696v143h403V897c0,0,-50,0,-67,-12c0,0,-26,-17,-52,-83L668,0Z" 
id="f3_1m"
transform="scale(0.001,-0.001)" />

<path d="M514,166c0,0,122,0,191,38c0,0,69,38,111,121c0,0,43,83,43,199c0,0,0,113,-40,197c0,0,-40,84,-99,119c0,0,-59,34,-168,34H437V226c0,0,0,-33,4,-40c0,0,6,-12,17,-16c0,0,12,-4,56,-4ZM55,0V144H91c0,0,46,0,60,7c0,0,15,8,24,26c0,0,6,14,6,61V807c0,0,0,48,-6,62c0,0,-7,13,-21,21c0,0,-15,7,-62,7H56v143H601c0,0,186,0,296,-59c0,0,110,-58,175,-174c0,0,65,-116,65,-278c0,0,0,-112,-33,-201c0,0,-33,-89,-99,-160c0,0,-66,-71,-141,-107C864,61,807,34,703,17C703,17,599,0,536,0Z" 
id="f3_14"
transform="scale(0.001,-0.001)" />

<path d="M610,480L509,765L404,480ZM2,0V144c0,0,39,0,56,6c0,0,18,7,30,21c0,0,11,13,25,49l322,820H669L981,237c0,0,25,-64,45,-79c0,0,19,-14,68,-14c2,0,3,0,5,0V0H606V144h30c0,0,41,0,58,11c0,0,16,11,16,27c0,0,0,13,-14,55l-32,94H349L310,226c0,0,-12,-33,-12,-44c0,0,0,-11,8,-21c0,0,9,-10,28,-14c0,0,13,-3,71,-3V0Z" 
id="f3_11"
transform="scale(0.001,-0.001)" />

<path d="M59,0V144H92c0,0,57,0,74,14c0,0,18,15,18,59V815c0,0,0,41,-7,55c0,0,-7,13,-22,20c0,0,-16,7,-63,7H59v143H919L1037,709L902,662c0,0,-33,72,-63,109c0,0,-29,37,-70,61c0,0,-41,25,-89,33c0,0,-32,5,-114,5H438V594h66c0,0,37,0,58,12c0,0,22,11,31,29c0,0,9,18,9,60v55H736V284H602v67c0,0,0,29,-5,43c0,0,-7,18,-19,29c0,0,-12,11,-27,15c0,0,-15,5,-55,5H438V224c0,0,0,-39,7,-53c0,0,6,-14,21,-21c0,0,15,-6,58,-6h42V0Z" 
id="f3_16"
transform="scale(0.001,-0.001)" />

<path d="M495,160c0,0,61,0,122,27c0,0,-17,28,-29,62L548,388c0,0,-22,73,-35,102c0,0,-13,29,-26,45c0,0,-13,16,-34,32c0,0,-73,-37,-110,-92c0,0,-37,-56,-37,-119c0,0,0,-82,56,-139c0,0,55,-57,133,-57ZM453,713c0,0,19,0,38,12c0,0,20,12,28,33c0,0,12,26,12,59c0,0,0,52,-22,78c0,0,-23,25,-54,25c0,0,-34,0,-56,-27c0,0,-22,-27,-22,-80c0,0,0,-46,23,-73c0,0,22,-27,53,-27ZM434,-17c0,0,-169,0,-274,96C160,79,55,176,55,316c0,0,0,117,67,204c0,0,52,68,177,138c0,0,-52,33,-79,77c0,0,-26,45,-26,99c0,0,0,93,72,159c0,0,73,65,190,65c0,0,120,0,187,-60c0,0,67,-60,67,-151c0,0,0,-76,-38,-130c0,0,-30,-42,-90,-72c0,0,41,-19,65,-40c0,0,33,-29,67,-79c0,0,21,-33,84,-160c0,0,43,98,43,141c0,0,0,12,-7,21c0,0,-8,9,-20,11c0,0,-9,3,-59,3V684h366V542h-45c0,0,-38,0,-53,-8c0,0,-15,-7,-25,-25c0,0,-6,-10,-24,-83c0,0,-13,-47,-40,-105c0,0,-27,-58,-60,-105c0,0,33,-50,55,-65c0,0,22,-16,45,-16c0,0,26,0,44,17c0,0,17,18,17,46c0,0,0,26,-22,64c0,0,-22,35,-22,60c0,0,0,38,30,67c0,0,30,29,72,29c0,0,54,0,91,-44c0,0,37,-44,37,-123c0,0,0,-117,-82,-193c0,0,-83,-75,-218,-75c0,0,-68,0,-113,17c0,0,-45,17,-97,65c0,0,-119,-82,-277,-82Z" 
id="f3_a"
transform="scale(0.001,-0.001)" />

<path d="M261,-11c0,0,-58,0,-99,40c0,0,-41,41,-41,98c0,0,0,58,41,98c0,0,41,41,99,41c0,0,57,0,98,-41c0,0,41,-40,41,-98c0,0,0,-57,-41,-98c0,0,-41,-40,-98,-40Z" 
id="f3_i"
transform="scale(0.001,-0.001)" />


</defs>
</svg>