<?xml version="1.0" encoding="UTF-8" standalone="no"?>
<!DOCTYPE svg PUBLIC "-//W3C//DTD SVG 1.1//EN"
"http://www.w3.org/Graphics/SVG/1.1/DTD/svg11.dtd">
<svg viewBox="0 0 909 1286" version="1.1" xmlns="http://www.w3.org/2000/svg" xmlns:xlink="http://www.w3.org/1999/xlink">
<defs>
<style type="text/css"><![CDATA[
.g0_69{
}
.g1_69{
fill: #FFFFFF;
}
.g2_69{
fill: #009900;
fill-opacity: 0.4;
}
]]></style>
</defs>
<path fill-rule="evenodd" d="M56.8,137.9l-.7,-11.8l.7,-11.3H328.5l12.1,11.3l-13.5,11.6l-270.3,.2Z" class="g0_69" />
<path fill-rule="evenodd" d="M55.7,138.2L55,126.3v-.2h1.5l.7,11.9l-.7,.2h-.8Z" class="g0_69" />
<path fill-rule="evenodd" d="M55,126.1l.7,-11.9v-.5h.8v.7h.7l-.7,11.9l-.8,-.2H55Z" class="g0_69" />
<path fill-rule="evenodd" d="M56.5,113.7H329.1l.2,.2l-.6,.5v.7H56.5v-1.4Z" class="g0_69" />
<path fill-rule="evenodd" d="M329.1,113.9l12.4,11.9l.6,.5l-.6,.6l-.5,-.6l-.6,.6L328,114.9l.5,-.5l.6,-.5Z" class="g0_69" />
<path fill-rule="evenodd" d="M341.7,126.9l-14.1,11.7l-.2,.2h-.2V138l-.5,-.5l13.9,-11.9l.6,.7l.5,.6Z" class="g0_69" />
<path fill-rule="evenodd" d="M327.2,138.8L56.5,139h-.8v-.8h.8v-.7l270.7,-.2v1.5Z" class="g0_69" />
<g fill="#FFFFFF" >
<use xlink:href="#f0_s0" transform="matrix(12,0,0,12,70.4,131.1)" />
<use xlink:href="#f0_nt" transform="matrix(12,0,0,12,79.6,131.1)" />
<use xlink:href="#f0_1x" transform="matrix(12,0,0,12,95.1,131.1)" />
<use xlink:href="#f0_24" transform="matrix(12,0,0,12,111.1,131.1)" />
<use xlink:href="#f0_1y" transform="matrix(12,0,0,12,123.4,131.1)" />
<use xlink:href="#f0_24" transform="matrix(12,0,0,12,135.5,131.1)" />
<use xlink:href="#f0_1x" transform="matrix(12,0,0,12,147.9,131.1)" />
<use xlink:href="#f0_t" transform="matrix(12,0,0,12,164.1,131.1)" />
<use xlink:href="#f0_2j" transform="matrix(12,0,0,12,173.1,131.1)" />
<use xlink:href="#f0_2n" transform="matrix(12,0,0,12,183.1,131.1)" />
<use xlink:href="#f0_5" transform="matrix(12,0,0,12,197.1,131.1)" />
<use xlink:href="#f0_1y" transform="matrix(12,0,0,12,208.1,131.1)" />
<use xlink:href="#f0_p" transform="matrix(12,0,0,12,220.2,131.1)" />
<use xlink:href="#f0_2g" transform="matrix(12,0,0,12,236.9,131.1)" />
<use xlink:href="#f0_24" transform="matrix(12,0,0,12,246.8,131.1)" />
<use xlink:href="#f0_1r" transform="matrix(12,0,0,12,259,131.1)" />
<use xlink:href="#f0_3f" transform="matrix(12,0,0,12,265.1,131.1)" />
<use xlink:href="#f0_1x" transform="matrix(12,0,0,12,274.6,131.1)" />
<use xlink:href="#f0_t" transform="matrix(12,0,0,12,290.8,131.1)" />
<use xlink:href="#f0_2j" transform="matrix(12,0,0,12,299.6,131.1)" />
<use xlink:href="#f0_2n" transform="matrix(12,0,0,12,309.7,131.1)" />
</g>
<image preserveAspectRatio="none" x="94" y="172" width="722" height="906" xlink:href="img/1.png" />
<path fill-rule="evenodd" d="M53.9,69.5H856.2V97.9H53.9V69.5l1.5,26.8H854.5V71H55.4V96.3L53.9,69.5Z" class="g1_69" />
<path fill-rule="evenodd" d="M55.2,94.6H854.7v3.1H55.2V94.6Z" class="g0_69" />
<path fill-rule="evenodd" d="M55.2,69.7H854.7v3.1H55.2V69.7Z" class="g0_69" />
<path fill-rule="evenodd" d="M53.7,1177.4H854.8v2.3H53.7v-2.3Z" class="g0_69" />
<path fill-rule="evenodd" d="M453.8,168.3V109.8h1.6v58.5h-1.6Z" class="g0_69" />
<path fill-rule="evenodd" d="M454.1,1178.1V1077.4h1.5v100.7h-1.5Z" class="g0_69" />
<g fill="#000000" >
<use xlink:href="#f1_12" transform="matrix(10,0,0,10,143.4,87.6)" />
<use xlink:href="#f1_19" transform="matrix(10,0,0,10,154.4,87.6)" />
<use xlink:href="#f1_1f" transform="matrix(10,0,0,10,160.4,87.6)" />
<use xlink:href="#f1_1d" transform="matrix(10,0,0,10,172.6,87.6)" />
<use xlink:href="#f1_1f" transform="matrix(10,0,0,10,186.9,87.6)" />
<use xlink:href="#f1_1c" transform="matrix(10,0,0,10,199,87.6)" />
<use xlink:href="#f1_15" transform="matrix(10,0,0,10,208.8,87.6)" />
<use xlink:href="#f1_13" transform="matrix(10,0,0,10,219.7,87.6)" />
<use xlink:href="#f1_1l" transform="matrix(10,0,0,10,231,87.6)" />
<use xlink:href="#f1_1c" transform="matrix(10,0,0,10,242.2,87.6)" />
<use xlink:href="#f1_15" transform="matrix(10,0,0,10,252,87.6)" />
<use xlink:href="#f1_1j" transform="matrix(10,0,0,10,262.9,87.6)" />
<use xlink:href="#f1_g" transform="matrix(10,0,0,10,273,87.6)" />
<use xlink:href="#f1_1g" transform="matrix(10,0,0,10,288.4,87.6)" />
<use xlink:href="#f1_1f" transform="matrix(10,0,0,10,298.5,87.6)" />
<use xlink:href="#f1_1c" transform="matrix(10,0,0,10,310.6,87.6)" />
<use xlink:href="#f1_1p" transform="matrix(10,0,0,10,320.4,87.6)" />
<use xlink:href="#f1_1d" transform="matrix(10,0,0,10,331,87.6)" />
<use xlink:href="#f1_15" transform="matrix(10,0,0,10,345.3,87.6)" />
<use xlink:href="#f1_1i" transform="matrix(10,0,0,10,356.3,87.6)" />
<use xlink:href="#f1_1j" transform="matrix(10,0,0,10,368.1,87.6)" />
<use xlink:href="#f1_g" transform="matrix(10,0,0,10,378.2,87.6)" />
<use xlink:href="#f1_13" transform="matrix(10,0,0,10,393.6,87.6)" />
<use xlink:href="#f1_18" transform="matrix(10,0,0,10,404.9,87.6)" />
<use xlink:href="#f1_15" transform="matrix(10,0,0,10,417.3,87.6)" />
<use xlink:href="#f1_1d" transform="matrix(10,0,0,10,428.3,87.6)" />
<use xlink:href="#f1_19" transform="matrix(10,0,0,10,442.6,87.6)" />
<use xlink:href="#f1_1j" transform="matrix(10,0,0,10,448.7,87.6)" />
<use xlink:href="#f1_1k" transform="matrix(10,0,0,10,458.7,87.6)" />
<use xlink:href="#f1_1i" transform="matrix(10,0,0,10,469.4,87.6)" />
<use xlink:href="#f1_1p" transform="matrix(10,0,0,10,481.2,87.6)" />
<use xlink:href="#f1_19" transform="matrix(10,0,0,10,502.2,87.6)" />
<use xlink:href="#f1_1e" transform="matrix(10,0,0,10,508.3,87.6)" />
<use xlink:href="#f1_15" transform="matrix(10,0,0,10,529.8,87.6)" />
<use xlink:href="#f1_1m" transform="matrix(10,0,0,10,540.8,87.6)" />
<use xlink:href="#f1_15" transform="matrix(10,0,0,10,551.7,87.6)" />
<use xlink:href="#f1_1i" transform="matrix(10,0,0,10,562.7,87.6)" />
<use xlink:href="#f1_1p" transform="matrix(10,0,0,10,574.5,87.6)" />
<use xlink:href="#f1_14" transform="matrix(10,0,0,10,585.2,87.6)" />
<use xlink:href="#f1_11" transform="matrix(10,0,0,10,597,87.6)" />
<use xlink:href="#f1_1p" transform="matrix(10,0,0,10,608,87.6)" />
<use xlink:href="#f1_1c" transform="matrix(10,0,0,10,629,87.6)" />
<use xlink:href="#f1_19" transform="matrix(10,0,0,10,638.7,87.6)" />
<use xlink:href="#f1_16" transform="matrix(10,0,0,10,644.8,87.6)" />
<use xlink:href="#f1_15" transform="matrix(10,0,0,10,655.1,87.6)" />
<use xlink:href="#f1_a" transform="matrix(10,0,0,10,676.4,87.6)" />
<use xlink:href="#f1_15" transform="matrix(10,0,0,10,698.9,87.6)" />
<use xlink:href="#f1_1e" transform="matrix(10,0,0,10,709.8,87.6)" />
<use xlink:href="#f1_1m" transform="matrix(10,0,0,10,721.1,87.6)" />
<use xlink:href="#f1_i" transform="matrix(10,0,0,10,732,87.6)" />
<use xlink:href="#f1_13" transform="matrix(10,0,0,10,742.3,87.6)" />
<use xlink:href="#f1_18" transform="matrix(10,0,0,10,753.6,87.6)" />
<use xlink:href="#f1_15" transform="matrix(10,0,0,10,766.1,87.6)" />
<use xlink:href="#f1_1d" transform="matrix(10,0,0,10,777,87.6)" />
<use xlink:href="#f1_19" transform="matrix(10,0,0,10,791.3,87.6)" />
<use xlink:href="#f1_1j" transform="matrix(10,0,0,10,797.4,87.6)" />
<use xlink:href="#f1_1k" transform="matrix(10,0,0,10,807.4,87.6)" />
<use xlink:href="#f1_1i" transform="matrix(10,0,0,10,818.1,87.6)" />
<use xlink:href="#f1_1p" transform="matrix(10,0,0,10,829.9,87.6)" />
</g>
<path d="M55.3,95H854.2V72.7H55.3V95Z" class="g2_69" />
<defs>
<path d="M337,-17c0,0,-50,0,-93,8c0,0,-43,7,-76,16c0,0,-34,11,-55,22c0,0,-22,11,-29,17c0,0,-6,6,-10,13c0,0,-3,8,-6,18c0,0,-2,10,-3,25c0,0,-1,16,-1,37c0,0,0,36,6,50c0,0,6,13,17,13c0,0,8,0,26,-10c0,0,18,-10,47,-21c0,0,28,-12,66,-22c0,0,38,-10,87,-10c0,0,41,0,72,10c0,0,31,9,53,27c0,0,22,17,33,42c0,0,11,25,11,56c0,0,0,34,-13,61c0,0,-13,26,-39,45c0,0,-26,20,-65,30c0,0,-39,10,-92,10H189c0,0,-9,0,-16,3c0,0,-7,3,-11,11c0,0,-5,8,-7,23c0,0,-1,14,-1,37c0,0,0,22,1,36c0,0,2,13,6,21c0,0,4,7,11,10c0,0,6,3,15,3h85c0,0,43,0,77,10c0,0,33,10,56,29c0,0,23,19,35,45c0,0,12,27,12,59c0,0,0,25,-8,47c0,0,-9,22,-25,38c0,0,-16,16,-41,26c0,0,-26,9,-60,9c0,0,-39,0,-73,-11c0,0,-34,-12,-62,-26c0,0,-27,-13,-46,-25c0,0,-19,-12,-28,-12c0,0,-6,0,-10,2c0,0,-5,3,-8,11c0,0,-3,7,-4,21c0,0,-2,14,-2,37c0,0,0,18,1,31c0,0,1,12,3,20c0,0,2,8,5,14c0,0,4,6,11,13c0,0,8,7,31,21c0,0,23,14,58,28c0,0,35,13,81,22c0,0,46,10,100,10c0,0,70,0,124,-17c0,0,54,-16,91,-47c0,0,37,-31,56,-76c0,0,19,-46,19,-102c0,0,0,-44,-11,-83c0,0,-12,-38,-33,-68c0,0,-22,-29,-54,-50c0,0,-33,-21,-75,-32v-2c0,0,50,-6,91,-26c0,0,40,-19,68,-49c0,0,28,-30,43,-68c0,0,15,-37,15,-81c0,0,0,-72,-28,-128c0,0,-27,-56,-77,-94C604,60,555,22,487,2c0,0,-69,-19,-150,-19Z" 
id="f0_s0"
transform="scale(0.001,-0.001)" />

<path d="M204,-9c0,0,-63,0,-87,23c0,0,-24,23,-24,89c0,0,0,70,24,94c0,0,25,24,88,24c0,0,62,0,86,-24c0,0,24,-23,24,-90c0,0,0,-69,-24,-93c0,0,-25,-23,-87,-23Z" 
id="f0_nt"
transform="scale(0.001,-0.001)" />

<path d="M198,-4c0,0,-27,0,-45,2c0,0,-18,2,-28,5c0,0,-11,4,-15,10c0,0,-4,6,-4,13V887c0,0,0,38,20,58c0,0,20,20,53,20H308c0,0,34,0,59,-6c0,0,24,-5,42,-18c0,0,18,-13,30,-35c0,0,12,-21,21,-52L669,279h3L889,852c0,0,9,32,21,53c0,0,11,22,27,35c0,0,15,14,36,19c0,0,21,6,48,6h132c0,0,21,0,35,-5c0,0,15,-5,24,-15c0,0,9,-11,14,-25c0,0,5,-15,5,-33V26c0,0,0,-7,-4,-13c0,0,-4,-6,-15,-10c0,0,-11,-3,-29,-5c0,0,-18,-2,-45,-2c0,0,-27,0,-45,2c0,0,-18,2,-28,5c0,0,-11,4,-15,10c0,0,-5,6,-5,13V813h-1L764,27c0,0,-3,-10,-10,-16c0,0,-6,-6,-18,-10c0,0,-12,-3,-29,-4c0,0,-18,-1,-44,-1c0,0,-25,0,-43,2c0,0,-18,2,-29,5c0,0,-12,4,-19,10c0,0,-6,6,-9,14L293,813h-2V26c0,0,0,-7,-4,-13c0,0,-4,-6,-15,-10c0,0,-11,-3,-29,-5c0,0,-17,-2,-45,-2Z" 
id="f0_1x"
transform="scale(0.001,-0.001)" />

<path d="M514,145c0,0,72,0,121,27c0,0,48,26,78,73c0,0,30,46,42,107c0,0,13,62,13,131c0,0,0,76,-12,139c0,0,-12,62,-41,106c0,0,-29,45,-76,69c0,0,-48,24,-120,24c0,0,-72,0,-120,-27c0,0,-49,-27,-79,-73c0,0,-29,-45,-42,-106c0,0,-12,-61,-12,-129c0,0,0,-79,12,-142c0,0,12,-63,40,-108c0,0,28,-44,76,-68c0,0,48,-23,120,-23ZM508,-17c0,0,-113,0,-196,29c0,0,-84,29,-140,90c0,0,-56,60,-84,154c0,0,-28,93,-28,221c0,0,0,117,29,210c0,0,30,94,89,160c0,0,59,65,146,101c0,0,87,35,202,35c0,0,110,0,194,-29c0,0,84,-30,140,-90c0,0,56,-60,85,-153c0,0,29,-92,29,-217c0,0,0,-120,-30,-215c0,0,-30,-95,-89,-161C855,118,796,52,709,17c0,0,-87,-34,-201,-34Z" 
id="f0_24"
transform="scale(0.001,-0.001)" />

<path d="M193,-4c0,0,-26,0,-43,2c0,0,-18,2,-27,6c0,0,-10,4,-14,10c0,0,-3,6,-3,13V895c0,0,0,35,20,53c0,0,21,17,50,17H282c0,0,28,0,47,-5c0,0,20,-5,35,-16c0,0,15,-11,29,-31c0,0,13,-20,27,-49L608,511c0,0,17,-32,33,-63c0,0,16,-31,31,-62c0,0,14,-31,29,-60c0,0,14,-30,27,-60h1c0,0,-2,52,-3,109c0,0,-1,57,-1,108V936c0,0,0,7,4,13c0,0,5,6,15,11c0,0,10,4,28,6c0,0,17,2,44,2c0,0,25,0,42,-2c0,0,17,-2,27,-6c0,0,9,-5,13,-11c0,0,4,-6,4,-13V68c0,0,0,-17,-6,-30c0,0,-6,-14,-17,-23C879,15,869,6,856,2c0,0,-14,-3,-28,-3H744c0,0,-26,0,-45,4c0,0,-19,5,-35,19c0,0,-16,14,-31,38c0,0,-15,23,-34,60L359,572c0,0,-21,40,-43,86c0,0,-21,47,-38,91h-2c0,0,3,-54,5,-107c0,0,2,-53,2,-110V27c0,0,0,-7,-5,-13c0,0,-4,-6,-14,-10c0,0,-10,-4,-27,-6c0,0,-17,-2,-44,-2Z" 
id="f0_1y"
transform="scale(0.001,-0.001)" />

<path d="M164,0c0,0,-25,0,-42,15c0,0,-16,14,-16,47V903c0,0,0,33,16,48c0,0,17,14,42,14H645c0,0,7,0,12,-4c0,0,5,-3,9,-13c0,0,4,-9,6,-24c0,0,2,-14,2,-36c0,0,0,-21,-2,-36c0,0,-2,-14,-6,-23c0,0,-4,-9,-9,-13c0,0,-5,-4,-12,-4H301V576H593c0,0,6,0,12,-4c0,0,6,-4,9,-13c0,0,4,-8,6,-23c0,0,2,-14,2,-35c0,0,0,-22,-2,-36c0,0,-2,-14,-6,-23c0,0,-3,-8,-9,-12c0,0,-6,-4,-12,-4H301V154H649c0,0,6,0,12,-5c0,0,5,-4,9,-13c0,0,4,-9,6,-23c0,0,2,-15,2,-36c0,0,0,-22,-2,-36c0,0,-2,-15,-6,-24c0,0,-4,-9,-9,-13c0,0,-6,-4,-12,-4Z" 
id="f0_t"
transform="scale(0.001,-0.001)" />

<path d="M402,542c0,0,41,0,72,10c0,0,32,10,52,28c0,0,21,18,32,44c0,0,10,25,10,56c0,0,0,48,-21,81c0,0,-22,33,-71,46c0,0,-15,4,-34,6c0,0,-19,2,-52,2H302V542ZM203,-4c0,0,-28,0,-47,2c0,0,-19,2,-30,5c0,0,-11,4,-16,10c0,0,-4,6,-4,13V903c0,0,0,33,16,48c0,0,17,14,42,14H414c0,0,38,0,62,-1c0,0,25,-2,45,-4c0,0,58,-8,105,-28c0,0,46,-21,79,-53c0,0,32,-32,49,-77c0,0,17,-44,17,-101c0,0,0,-49,-12,-89c0,0,-12,-40,-36,-71c0,0,-24,-31,-59,-54c0,0,-35,-23,-80,-38c0,0,22,-10,41,-25c0,0,19,-15,36,-36c0,0,17,-22,31,-49c0,0,15,-27,30,-61L803,87c0,0,11,-28,15,-41c0,0,3,-14,3,-21c0,0,0,-8,-3,-14c0,0,-3,-5,-14,-9c0,0,-11,-3,-33,-4c0,0,-21,-2,-59,-2c0,0,-31,0,-50,2c0,0,-18,1,-29,4c0,0,-11,4,-15,11c0,0,-5,6,-8,15L524,244c0,0,-16,37,-31,65c0,0,-14,28,-33,48c0,0,-18,19,-42,28c0,0,-24,10,-55,10H302V27c0,0,0,-8,-5,-14c0,0,-5,-6,-16,-10c0,0,-11,-3,-30,-5c0,0,-18,-2,-48,-2Z" 
id="f0_2j"
transform="scale(0.001,-0.001)" />

<path d="M320,-17c0,0,-50,0,-93,9c0,0,-43,8,-76,19c0,0,-32,11,-54,24C97,35,75,48,65,58c0,0,-10,9,-14,28c0,0,-4,18,-4,52c0,0,0,23,1,39c0,0,2,15,5,25c0,0,4,10,9,14c0,0,6,4,13,4c0,0,11,0,30,-12c0,0,19,-13,49,-28c0,0,30,-15,71,-27c0,0,42,-12,96,-12c0,0,36,0,64,8c0,0,29,9,49,25c0,0,19,15,30,38c0,0,10,23,10,52c0,0,0,33,-18,56c0,0,-18,24,-46,42c0,0,-29,18,-66,34c0,0,-36,16,-75,34c0,0,-39,18,-76,41c0,0,-36,23,-65,54c0,0,-29,32,-47,75c0,0,-17,44,-17,104c0,0,0,70,25,122c0,0,26,53,70,88c0,0,43,34,103,51c0,0,59,18,125,18c0,0,35,0,69,-6c0,0,34,-5,64,-14c0,0,30,-9,53,-20c0,0,23,-11,31,-18c0,0,7,-8,10,-13c0,0,3,-5,4,-14c0,0,2,-8,3,-21c0,0,1,-13,1,-33c0,0,0,-21,-1,-36c0,0,-1,-15,-4,-25c0,0,-3,-9,-7,-14c0,0,-5,-4,-14,-4c0,0,-8,0,-26,10c0,0,-18,10,-44,23c0,0,-26,12,-60,22c0,0,-34,10,-75,10c0,0,-32,0,-56,-8c0,0,-24,-8,-40,-21c0,0,-16,-14,-24,-34c0,0,-8,-19,-8,-41c0,0,0,-32,18,-56c0,0,17,-23,46,-42c0,0,30,-18,67,-34c0,0,38,-16,76,-34c0,0,39,-18,76,-41c0,0,38,-22,67,-54c0,0,29,-32,47,-75c0,0,18,-43,18,-101c0,0,0,-76,-29,-133c0,0,-28,-58,-77,-96C572,60,524,21,459,2c0,0,-65,-19,-139,-19Z" 
id="f0_2n"
transform="scale(0.001,-0.001)" />

<path d="M589,371L453,782h-1L317,371ZM106,-4c0,0,-35,0,-54,2C52,-2,32,0,25,8c0,0,-7,9,-5,24c0,0,2,16,11,42L329,931c0,0,4,13,10,21c0,0,6,7,19,12c0,0,13,4,36,5c0,0,23,1,61,1c0,0,44,0,71,-1c0,0,26,-1,40,-5c0,0,15,-5,21,-13c0,0,6,-8,11,-22L896,73c0,0,9,-27,11,-43c0,0,3,-15,-6,-23c0,0,-8,-7,-29,-9c0,0,-21,-2,-57,-2c0,0,-38,0,-59,1c0,0,-22,1,-33,4c0,0,-11,3,-16,9c0,0,-4,6,-7,16L635,220H272L211,31c0,0,-2,-11,-7,-18c0,0,-5,-7,-16,-11c0,0,-11,-3,-31,-4c0,0,-19,-2,-51,-2Z" 
id="f0_5"
transform="scale(0.001,-0.001)" />

<path d="M403,155c0,0,81,0,136,21c0,0,55,21,92,63c0,0,37,42,55,105c0,0,18,63,18,146c0,0,0,69,-16,128c0,0,-16,59,-51,102c0,0,-36,43,-91,67c0,0,-56,25,-146,25H301V155ZM164,0c0,0,-25,0,-42,15c0,0,-16,14,-16,47V903c0,0,0,33,16,48c0,0,17,14,42,14H411c0,0,129,0,219,-30c0,0,90,-30,152,-90c0,0,61,-59,93,-146c0,0,32,-87,32,-202c0,0,0,-133,-34,-227c0,0,-35,-95,-100,-154c0,0,-65,-60,-158,-88C615,28,523,0,394,0Z" 
id="f0_p"
transform="scale(0.001,-0.001)" />

<path d="M390,486c0,0,47,0,79,13c0,0,31,12,51,35c0,0,20,23,31,55c0,0,10,31,10,69c0,0,0,50,-18,83c0,0,-17,33,-44,49c0,0,-26,15,-54,19c0,0,-29,5,-59,5H302V486ZM203,-4c0,0,-28,0,-47,2c0,0,-19,2,-30,5c0,0,-11,4,-16,10c0,0,-4,6,-4,13V895c0,0,0,35,18,53c0,0,18,17,48,17H400c0,0,34,0,65,-3c0,0,31,-2,74,-11c0,0,43,-8,88,-31c0,0,44,-24,75,-59c0,0,32,-36,48,-83c0,0,17,-47,17,-106c0,0,0,-82,-26,-144c0,0,-25,-63,-74,-106c0,0,-48,-43,-118,-65c0,0,-71,-23,-166,-23H302V26c0,0,0,-7,-5,-13c0,0,-5,-6,-16,-10c0,0,-11,-3,-30,-5c0,0,-18,-2,-48,-2Z" 
id="f0_2g"
transform="scale(0.001,-0.001)" />

<path d="M164,0c0,0,-25,0,-42,15c0,0,-16,14,-16,47V939c0,0,0,7,4,13c0,0,5,6,16,10c0,0,12,3,31,6c0,0,19,2,47,2c0,0,29,0,48,-2c0,0,18,-3,29,-6c0,0,11,-4,16,-10c0,0,5,-6,5,-13V162H606c0,0,7,0,13,-4c0,0,5,-4,9,-13c0,0,4,-10,6,-25c0,0,2,-15,2,-38c0,0,0,-22,-2,-37c0,0,-2,-16,-6,-26c0,0,-4,-10,-9,-15c0,0,-6,-4,-13,-4Z" 
id="f0_1r"
transform="scale(0.001,-0.001)" />

<path d="M396,-4c0,0,-29,0,-47,2c0,0,-19,2,-30,5c0,0,-12,4,-16,10c0,0,-5,6,-5,13V366L34,892c0,0,-14,28,-18,43c0,0,-4,16,4,23c0,0,9,8,32,10c0,0,23,2,64,2c0,0,34,0,55,-2c0,0,20,-1,32,-5c0,0,12,-4,18,-11c0,0,6,-7,11,-17L339,697c0,0,16,-34,31,-72c0,0,15,-38,31,-80h1c0,0,15,41,29,79c0,0,15,38,29,72L566,932c0,0,4,12,9,19c0,0,6,7,17,11c0,0,11,5,31,6c0,0,19,2,51,2c0,0,43,0,66,-2c0,0,24,-2,33,-10c0,0,8,-7,4,-23c0,0,-5,-16,-18,-43L495,366V26c0,0,0,-7,-5,-13c0,0,-5,-6,-16,-10c0,0,-11,-3,-30,-5c0,0,-19,-2,-48,-2Z" 
id="f0_3f"
transform="scale(0.001,-0.001)" />

<path d="M578,166c0,0,66,0,109,13c0,0,44,12,74,51c0,0,31,39,31,93c0,0,0,46,-22,78c0,0,-21,33,-64,49c0,0,-44,16,-132,16H439V241c0,0,1,-48,4,-56c0,0,3,-11,12,-15c0,0,9,-4,47,-4ZM553,619c0,0,90,0,132,15c0,0,43,15,65,45c0,0,21,30,21,70c0,0,0,41,-20,70c0,0,-21,30,-59,42c0,0,-39,12,-139,12H439V619ZM58,0V144h42c0,0,41,0,55,7c0,0,15,7,21,20c0,0,6,13,6,59V810c0,0,0,46,-6,59c0,0,-6,13,-21,20c0,0,-14,8,-55,8H59v143H650c0,0,135,0,213,-31c0,0,77,-32,119,-91c0,0,42,-60,42,-130c0,0,0,-52,-22,-98c0,0,-22,-46,-64,-82c0,0,-41,-35,-109,-58c0,0,73,-19,111,-41c0,0,56,-32,89,-88c0,0,33,-56,33,-126c0,0,0,-82,-50,-152c0,0,-50,-70,-141,-106C871,37,780,0,604,0Z" 
id="f1_12"
transform="scale(0.001,-0.001)" />

<path d="M52,0V144H93c0,0,44,0,58,6c0,0,13,6,20,20c0,0,6,14,6,55V803c0,0,0,49,-6,64c0,0,-7,15,-22,24c0,0,-10,6,-51,6H52v143H559V897H513c0,0,-40,0,-53,-7c0,0,-13,-8,-20,-23c0,0,-6,-15,-6,-58V233c0,0,0,-47,5,-61c0,0,6,-13,18,-19c0,0,16,-9,47,-9h55V0Z" 
id="f1_19"
transform="scale(0.001,-0.001)" />

<path d="M611,148c0,0,117,0,187,88c0,0,83,105,83,281c0,0,0,124,-35,208c0,0,-36,84,-96,126c0,0,-61,42,-132,42c0,0,-118,0,-189,-89c0,0,-88,-112,-88,-289c0,0,0,-176,82,-279c0,0,71,-88,188,-88ZM608,-17c0,0,-231,0,-378,126C230,109,53,262,53,518c0,0,0,237,155,389c0,0,156,151,407,151c0,0,248,0,401,-151c0,0,153,-150,153,-386c0,0,0,-159,-70,-282c0,0,-70,-123,-193,-190c0,0,-124,-66,-298,-66Z" 
id="f1_1f"
transform="scale(0.001,-0.001)" />

<path d="M59,0V144h42c0,0,39,0,54,7c0,0,15,7,22,22c0,0,7,15,7,57V813c0,0,0,40,-5,52c0,0,-7,17,-21,24c0,0,-13,8,-42,8H59v143H530L711,408l185,632h481V897h-52c0,0,-41,0,-57,-18c0,0,-16,-17,-16,-66V222c0,0,0,-39,4,-48c0,0,7,-15,19,-21c0,0,16,-9,43,-9h59V0H876V144h39c0,0,42,0,57,6c0,0,15,7,22,21c0,0,7,14,7,51V862L748,0H604L359,835V202c0,0,0,-22,8,-34c0,0,8,-12,22,-18c0,0,15,-6,47,-6h50V0Z" 
id="f1_1d"
transform="scale(0.001,-0.001)" />

<path d="M63,0V144h49c0,0,31,0,46,8c0,0,16,8,23,22c0,0,7,14,7,48V812c0,0,0,37,-7,53c0,0,-7,17,-20,24c0,0,-13,8,-44,8H63v143H570V897H526c0,0,-37,0,-47,-4c0,0,-18,-8,-26,-23c0,0,-8,-15,-8,-49V226c0,0,0,-36,3,-44c0,0,4,-8,14,-13c0,0,10,-5,40,-5c0,0,100,0,161,26c0,0,61,27,110,84c0,0,49,58,84,158L994,385L857,0Z" 
id="f1_1c"
transform="scale(0.001,-0.001)" />

<path d="M59,0V144H85c0,0,52,0,70,7c0,0,18,8,25,26c0,0,4,11,4,64V808c0,0,0,46,-7,60c0,0,-6,14,-19,22c0,0,-14,7,-53,7H59v143H928L1046,712L911,663c0,0,-34,81,-80,130c0,0,-46,49,-102,65c0,0,-55,16,-129,16H441V615h52c0,0,59,0,80,9c0,0,20,8,29,26c0,0,9,19,9,73v40H744V322H611v45c0,0,0,45,-11,66c0,0,-11,21,-29,29c0,0,-19,7,-83,7H441V230c0,0,0,-38,4,-47c0,0,3,-8,14,-12c0,0,11,-5,47,-5h87c0,0,98,0,165,28c0,0,67,28,120,91c0,0,53,63,81,149l136,-47L959,0Z" 
id="f1_15"
transform="scale(0.001,-0.001)" />

<path d="M579,-17c0,0,-147,0,-266,70c0,0,-119,70,-189,197c0,0,-71,127,-71,277c0,0,0,149,69,271c0,0,69,123,187,191c0,0,119,69,265,69c0,0,149,0,260,-62l25,44H965L1067,667L928,627c0,0,-69,133,-130,189c0,0,-85,77,-185,77c0,0,-72,0,-135,-41c0,0,-63,-40,-100,-118c0,0,-37,-78,-37,-183c0,0,0,-161,85,-276c0,0,85,-116,222,-116c0,0,87,0,168,50c0,0,100,62,173,167l116,-86C1105,290,992,136,899,76c0,0,-144,-93,-320,-93Z" 
id="f1_13"
transform="scale(0.001,-0.001)" />

<path d="M561,-17c0,0,-97,0,-173,29c0,0,-76,29,-133,84c0,0,-57,55,-80,116c0,0,-22,61,-22,181V794c0,0,0,56,-6,72c0,0,-6,16,-20,23c0,0,-13,8,-52,8H27v143H536V897H486c0,0,-35,0,-49,-9c0,0,-15,-8,-22,-23c0,0,-6,-15,-6,-62V424c0,0,0,-106,21,-158c0,0,21,-52,64,-79c0,0,43,-28,105,-28c0,0,61,0,109,30c0,0,48,30,68,76c0,0,21,46,21,152V834c0,0,0,26,-7,37c0,0,-9,15,-24,21c0,0,-10,5,-53,5H673v143h429V897h-34c0,0,-49,0,-61,-6c0,0,-18,-9,-26,-26c0,0,-6,-12,-6,-62V393c0,0,0,-114,-33,-191C942,202,896,98,797,40c0,0,-100,-57,-236,-57Z" 
id="f1_1l"
transform="scale(0.001,-0.001)" />

<path d="M567,-17c0,0,-83,0,-152,21c0,0,-70,21,-145,71L237,0H126L52,404l140,33c0,0,49,-123,153,-205c0,0,104,-82,228,-82c0,0,56,0,93,14c0,0,37,14,56,39c0,0,18,25,18,52c0,0,0,45,-43,77c0,0,-44,32,-154,63L369,446c0,0,-40,11,-107,42c0,0,-68,31,-104,64c0,0,-36,34,-60,86c0,0,-24,53,-24,111c0,0,0,83,46,153c0,0,46,69,138,113c0,0,92,43,204,43c0,0,135,0,244,-70l29,52H842L932,692L792,652c0,0,-69,125,-157,183c0,0,-88,58,-187,58c0,0,-64,0,-101,-26c0,0,-37,-27,-37,-59c0,0,0,-36,34,-67c0,0,32,-32,121,-56L665,626c0,0,166,-47,237,-126c0,0,70,-80,70,-186c0,0,0,-135,-107,-229C865,85,745,-17,567,-17Z" 
id="f1_1j"
transform="scale(0.001,-0.001)" />

<path d="M200,-281l-84,93c0,0,98,89,124,124c0,0,26,35,42,85C282,21,268,10,253,5C253,5,238,0,223,0c0,0,-42,0,-75,36c0,0,-33,36,-33,86c0,0,0,60,42,100c0,0,41,41,101,41c0,0,44,0,85,-25c0,0,41,-25,63,-69c0,0,22,-43,22,-101c0,0,0,-93,-62,-183c0,0,-63,-90,-166,-166Z" 
id="f1_g"
transform="scale(0.001,-0.001)" />

<path d="M532,575c0,0,81,0,119,17c0,0,38,16,61,51c0,0,23,35,23,83c0,0,0,71,-55,113c0,0,-41,31,-121,31H443V575ZM61,0V144H96c0,0,46,0,61,6c0,0,15,7,22,22c0,0,7,14,7,60V804c0,0,0,48,-6,63c0,0,-6,15,-19,23c0,0,-13,7,-50,7H61v143H611c0,0,104,0,173,-21c0,0,69,-21,119,-64c0,0,49,-44,76,-103c0,0,27,-59,27,-126c0,0,0,-133,-102,-223c0,0,-103,-90,-284,-90H443V218c0,0,0,-37,5,-47c0,0,7,-14,21,-21c0,0,13,-6,46,-6h53V0Z" 
id="f1_1g"
transform="scale(0.001,-0.001)" />

<path d="M280,0V144h27c0,0,54,0,69,7c0,0,15,7,23,24c0,0,8,16,8,67V405L129,827c0,0,-33,49,-57,61c0,0,-18,9,-71,9v143H518V897H479c0,0,-41,0,-51,-7c0,0,-11,-6,-11,-20c0,0,0,-20,24,-59L579,586L730,821c0,0,20,31,22,34c0,0,3,9,3,17c0,0,0,13,-8,19c0,0,-9,6,-40,6H653v143h416V897c0,0,-55,-1,-77,-13c0,0,-22,-12,-52,-57L663,422V236c0,0,0,-49,6,-64c0,0,7,-14,22,-21c0,0,15,-7,60,-7h37V0Z" 
id="f1_1p"
transform="scale(0.001,-0.001)" />

<path d="M593,600c0,0,92,0,137,17c0,0,45,17,68,48c0,0,22,31,22,76c0,0,0,41,-21,71c0,0,-21,29,-60,43c0,0,-40,14,-128,14H439V600ZM55,0V144h46c0,0,37,0,52,8c0,0,16,7,23,23c0,0,4,9,4,56V816c0,0,0,35,-6,49c0,0,-5,15,-18,19c0,0,-18,8,-41,8H55v148H697c0,0,62,0,135,-11c0,0,74,-11,133,-49c0,0,60,-38,92,-96c0,0,33,-59,33,-132c0,0,0,-118,-84,-192c0,0,-85,-73,-201,-96L1019,215l9,-11c0,0,21,-25,38,-38c0,0,17,-12,34,-17c0,0,18,-5,48,-5h45V0H859L526,448H439V241c0,0,0,-54,6,-69c0,0,6,-14,19,-21c0,0,13,-7,52,-7h48V0Z" 
id="f1_1i"
transform="scale(0.001,-0.001)" />

<path d="M54,0V144H88c0,0,44,0,61,7c0,0,17,8,24,21c0,0,6,14,6,59V797c0,0,0,53,-6,69c0,0,-7,16,-20,23c0,0,-14,8,-53,8H54v143H561V897H515c0,0,-39,0,-53,-8c0,0,-14,-8,-20,-23c0,0,-6,-14,-6,-63V622H815V817c0,0,0,36,-4,48c0,0,-6,18,-20,25c0,0,-14,7,-63,7H688v143h510V897h-43c0,0,-43,0,-57,-7c0,0,-14,-8,-20,-21c0,0,-5,-14,-5,-66V239c0,0,0,-52,7,-67c0,0,7,-16,21,-22c0,0,15,-6,67,-6h30V0H688V144h34c0,0,47,0,64,7c0,0,17,8,23,22c0,0,6,14,6,66V460H436V239c0,0,0,-52,5,-65c0,0,7,-18,22,-24c0,0,16,-6,63,-6h35V0Z" 
id="f1_18"
transform="scale(0.001,-0.001)" />

<path d="M280,0V144h30c0,0,51,0,66,6c0,0,14,6,21,22c0,0,8,17,8,67V851c0,0,0,26,-6,33c0,0,-6,7,-26,7c0,0,-38,0,-86,-29c0,0,-48,-29,-85,-82c0,0,-15,-21,-63,-118L2,711l128,365h99l10,-36H826l13,36h99L1067,711L928,662c0,0,-46,91,-66,119c0,0,-40,55,-92,86c0,0,-38,24,-77,24c0,0,-18,0,-24,-9c0,0,-7,-8,-7,-39V244c0,0,0,-53,4,-66c0,0,3,-13,12,-21c0,0,9,-8,25,-11c0,0,16,-2,84,-2V0Z" 
id="f1_1k"
transform="scale(0.001,-0.001)" />

<path d="M59,0V144h44c0,0,37,0,51,6c0,0,14,6,22,22c0,0,8,16,8,47V816c0,0,0,34,-8,50c0,0,-7,16,-20,24c0,0,-12,7,-42,7H59v143H480L786,433V805c0,0,0,48,-5,60c0,0,-8,17,-20,25c0,0,-13,7,-49,7H661v143h428V897h-47c0,0,-36,0,-51,-9c0,0,-15,-8,-21,-22c0,0,-6,-14,-6,-61V0H750L364,767V230c0,0,0,-46,5,-59c0,0,6,-12,20,-20c0,0,15,-7,50,-7h50V0Z" 
id="f1_1e"
transform="scale(0.001,-0.001)" />

<path d="M433,0L117,807c0,0,-20,49,-30,62c0,0,-11,14,-30,21c0,0,-16,7,-49,7c-2,0,-4,0,-6,0v143H497V897H481c0,0,-47,0,-60,-4c0,0,-13,-4,-22,-16c0,0,-9,-12,-9,-24c0,0,0,-16,17,-65L591,271L787,802c0,0,15,39,15,54c0,0,0,21,-14,31c0,0,-14,10,-60,10H696v143h403V897c0,0,-50,0,-67,-12c0,0,-26,-17,-52,-83L668,0Z" 
id="f1_1m"
transform="scale(0.001,-0.001)" />

<path d="M514,166c0,0,122,0,191,38c0,0,69,38,111,121c0,0,43,83,43,199c0,0,0,113,-40,197c0,0,-40,84,-99,119c0,0,-59,34,-168,34H437V226c0,0,0,-33,4,-40c0,0,6,-12,17,-16c0,0,12,-4,56,-4ZM55,0V144H91c0,0,46,0,60,7c0,0,15,8,24,26c0,0,6,14,6,61V807c0,0,0,48,-6,62c0,0,-7,13,-21,21c0,0,-15,7,-62,7H56v143H601c0,0,186,0,296,-59c0,0,110,-58,175,-174c0,0,65,-116,65,-278c0,0,0,-112,-33,-201c0,0,-33,-89,-99,-160c0,0,-66,-71,-141,-107C864,61,807,34,703,17C703,17,599,0,536,0Z" 
id="f1_14"
transform="scale(0.001,-0.001)" />

<path d="M610,480L509,765L404,480ZM2,0V144c0,0,39,0,56,6c0,0,18,7,30,21c0,0,11,13,25,49l322,820H669L981,237c0,0,25,-64,45,-79c0,0,19,-14,68,-14c2,0,3,0,5,0V0H606V144h30c0,0,41,0,58,11c0,0,16,11,16,27c0,0,0,13,-14,55l-32,94H349L310,226c0,0,-12,-33,-12,-44c0,0,0,-11,8,-21c0,0,9,-10,28,-14c0,0,13,-3,71,-3V0Z" 
id="f1_11"
transform="scale(0.001,-0.001)" />

<path d="M59,0V144H92c0,0,57,0,74,14c0,0,18,15,18,59V815c0,0,0,41,-7,55c0,0,-7,13,-22,20c0,0,-16,7,-63,7H59v143H919L1037,709L902,662c0,0,-33,72,-63,109c0,0,-29,37,-70,61c0,0,-41,25,-89,33c0,0,-32,5,-114,5H438V594h66c0,0,37,0,58,12c0,0,22,11,31,29c0,0,9,18,9,60v55H736V284H602v67c0,0,0,29,-5,43c0,0,-7,18,-19,29c0,0,-12,11,-27,15c0,0,-15,5,-55,5H438V224c0,0,0,-39,7,-53c0,0,6,-14,21,-21c0,0,15,-6,58,-6h42V0Z" 
id="f1_16"
transform="scale(0.001,-0.001)" />

<path d="M495,160c0,0,61,0,122,27c0,0,-17,28,-29,62L548,388c0,0,-22,73,-35,102c0,0,-13,29,-26,45c0,0,-13,16,-34,32c0,0,-73,-37,-110,-92c0,0,-37,-56,-37,-119c0,0,0,-82,56,-139c0,0,55,-57,133,-57ZM453,713c0,0,19,0,38,12c0,0,20,12,28,33c0,0,12,26,12,59c0,0,0,52,-22,78c0,0,-23,25,-54,25c0,0,-34,0,-56,-27c0,0,-22,-27,-22,-80c0,0,0,-46,23,-73c0,0,22,-27,53,-27ZM434,-17c0,0,-169,0,-274,96C160,79,55,176,55,316c0,0,0,117,67,204c0,0,52,68,177,138c0,0,-52,33,-79,77c0,0,-26,45,-26,99c0,0,0,93,72,159c0,0,73,65,190,65c0,0,120,0,187,-60c0,0,67,-60,67,-151c0,0,0,-76,-38,-130c0,0,-30,-42,-90,-72c0,0,41,-19,65,-40c0,0,33,-29,67,-79c0,0,21,-33,84,-160c0,0,43,98,43,141c0,0,0,12,-7,21c0,0,-8,9,-20,11c0,0,-9,3,-59,3V684h366V542h-45c0,0,-38,0,-53,-8c0,0,-15,-7,-25,-25c0,0,-6,-10,-24,-83c0,0,-13,-47,-40,-105c0,0,-27,-58,-60,-105c0,0,33,-50,55,-65c0,0,22,-16,45,-16c0,0,26,0,44,17c0,0,17,18,17,46c0,0,0,26,-22,64c0,0,-22,35,-22,60c0,0,0,38,30,67c0,0,30,29,72,29c0,0,54,0,91,-44c0,0,37,-44,37,-123c0,0,0,-117,-82,-193c0,0,-83,-75,-218,-75c0,0,-68,0,-113,17c0,0,-45,17,-97,65c0,0,-119,-82,-277,-82Z" 
id="f1_a"
transform="scale(0.001,-0.001)" />

<path d="M261,-11c0,0,-58,0,-99,40c0,0,-41,41,-41,98c0,0,0,58,41,98c0,0,41,41,99,41c0,0,57,0,98,-41c0,0,41,-40,41,-98c0,0,0,-57,-41,-98c0,0,-41,-40,-98,-40Z" 
id="f1_i"
transform="scale(0.001,-0.001)" />


</defs>
</svg>