<?xml version="1.0" encoding="UTF-8" standalone="no"?>
<!DOCTYPE svg PUBLIC "-//W3C//DTD SVG 1.1//EN"
"http://www.w3.org/Graphics/SVG/1.1/DTD/svg11.dtd">
<svg viewBox="0 0 909 1286" version="1.1" xmlns="http://www.w3.org/2000/svg" xmlns:xlink="http://www.w3.org/1999/xlink">
<defs>
<style type="text/css"><![CDATA[
.g0_57{
fill: #FFFFFF;
}
.g1_57{
}
.g2_57{
fill: #009900;
fill-opacity: 0.4;
}
]]></style>
</defs>
<path fill-rule="evenodd" d="M54.1,68H856.2V96.4H54.1V68l1.5,27H854.7V69.7H55.6V95L54.1,68Z" class="g0_57" />
<path fill-rule="evenodd" d="M55.6,93.3H855.1v3H55.6v-3Z" class="g1_57" />
<path fill-rule="evenodd" d="M55.6,68.2H855.1v3.1H55.6V68.2Z" class="g1_57" />
<path fill-rule="evenodd" d="M55,1176.4H855.1v2.4H55v-2.4Z" class="g1_57" />
<path fill-rule="evenodd" d="M453.9,1176.3V109.8h1.7V1176.3h-1.7Z" class="g1_57" />
<image preserveAspectRatio="none" x="187" y="134" width="536" height="446" xlink:href="img/1.png" />
<g fill="#000000" >
<use xlink:href="#f0_r" transform="matrix(10,0,0,10,65.6,646.6)" />
<use xlink:href="#f0_i" transform="matrix(10,0,0,10,73.2,646.6)" />
<use xlink:href="#f0_m" transform="matrix(10,0,0,10,77.2,646.6)" />
<use xlink:href="#f0_13" transform="matrix(10,0,0,10,91.9,646.6)" />
<use xlink:href="#f0_21" transform="matrix(10,0,0,10,103,646.6)" />
<use xlink:href="#f0_28" transform="matrix(10,0,0,10,109.8,646.6)" />
<use xlink:href="#f0_28" transform="matrix(10,0,0,10,114,646.6)" />
<use xlink:href="#f0_2h" transform="matrix(10,0,0,10,118.1,646.6)" />
<use xlink:href="#f0_28" transform="matrix(10,0,0,10,126.5,646.6)" />
<use xlink:href="#f0_2b" transform="matrix(10,0,0,10,130.7,646.6)" />
<use xlink:href="#f0_2f" transform="matrix(10,0,0,10,138.6,646.6)" />
<use xlink:href="#f0_21" transform="matrix(10,0,0,10,144.3,646.6)" />
<use xlink:href="#f1_13" transform="matrix(10,0,0,10,89.5,672.1)" />
<use xlink:href="#f1_21" transform="matrix(10,0,0,10,99.4,672.1)" />
<use xlink:href="#f1_28" transform="matrix(10,0,0,10,106.3,672.1)" />
<use xlink:href="#f1_28" transform="matrix(10,0,0,10,110.6,672.1)" />
<use xlink:href="#f1_2h" transform="matrix(10,0,0,10,114.6,672.1)" />
<use xlink:href="#f1_28" transform="matrix(10,0,0,10,122.3,672.1)" />
<use xlink:href="#f1_2b" transform="matrix(10,0,0,10,126.5,672.1)" />
<use xlink:href="#f1_2f" transform="matrix(10,0,0,10,134,672.1)" />
<use xlink:href="#f1_21" transform="matrix(10,0,0,10,139.9,672.1)" />
<use xlink:href="#f1_2b" transform="matrix(10,0,0,10,152.5,672.1)" />
<use xlink:href="#f1_1z" transform="matrix(10,0,0,10,160.4,672.1)" />
<use xlink:href="#f1_1z" transform="matrix(10,0,0,10,167.2,672.1)" />
<use xlink:href="#f1_2h" transform="matrix(10,0,0,10,174,672.1)" />
<use xlink:href="#f1_2e" transform="matrix(10,0,0,10,181.5,672.1)" />
<use xlink:href="#f1_2f" transform="matrix(10,0,0,10,186.6,672.1)" />
<use xlink:href="#f1_21" transform="matrix(10,0,0,10,198.2,672.1)" />
<use xlink:href="#f1_2k" transform="matrix(10,0,0,10,205,672.1)" />
<use xlink:href="#f1_1z" transform="matrix(10,0,0,10,212.3,672.1)" />
<use xlink:href="#f1_28" transform="matrix(10,0,0,10,219.3,672.1)" />
<use xlink:href="#f1_2h" transform="matrix(10,0,0,10,223.3,672.1)" />
<use xlink:href="#f1_2f" transform="matrix(10,0,0,10,231,672.1)" />
<use xlink:href="#f1_25" transform="matrix(10,0,0,10,236.7,672.1)" />
<use xlink:href="#f1_2i" transform="matrix(10,0,0,10,240.9,672.1)" />
<use xlink:href="#f1_21" transform="matrix(10,0,0,10,248.6,672.1)" />
<use xlink:href="#f1_28" transform="matrix(10,0,0,10,255.4,672.1)" />
<use xlink:href="#f1_2l" transform="matrix(10,0,0,10,259.6,672.1)" />
<use xlink:href="#f1_25" transform="matrix(10,0,0,10,273,672.1)" />
<use xlink:href="#f1_2a" transform="matrix(10,0,0,10,277.2,672.1)" />
<use xlink:href="#f1_2c" transform="matrix(10,0,0,10,290.3,672.1)" />
<use xlink:href="#f1_28" transform="matrix(10,0,0,10,297.9,672.1)" />
<use xlink:href="#f1_1x" transform="matrix(10,0,0,10,302.3,672.1)" />
<use xlink:href="#f1_2a" transform="matrix(10,0,0,10,309.1,672.1)" />
<use xlink:href="#f1_2g" transform="matrix(10,0,0,10,316.6,672.1)" />
<use xlink:href="#f1_2f" transform="matrix(10,0,0,10,320.9,672.1)" />
<use xlink:href="#f1_1x" transform="matrix(10,0,0,10,332.6,672.1)" />
<use xlink:href="#f1_2a" transform="matrix(10,0,0,10,339.4,672.1)" />
<use xlink:href="#f1_20" transform="matrix(10,0,0,10,346.9,672.1)" />
<use xlink:href="#f1_25" transform="matrix(10,0,0,10,360.3,672.1)" />
<use xlink:href="#f1_2g" transform="matrix(10,0,0,10,364.5,672.1)" />
<use xlink:href="#f1_25" transform="matrix(10,0,0,10,374.4,672.1)" />
<use xlink:href="#f1_2f" transform="matrix(10,0,0,10,378.6,672.1)" />
<use xlink:href="#f1_2g" transform="matrix(10,0,0,10,390.2,672.1)" />
<use xlink:href="#f1_24" transform="matrix(10,0,0,10,394.4,672.1)" />
<use xlink:href="#f1_21" transform="matrix(10,0,0,10,402,672.1)" />
<use xlink:href="#f1_29" transform="matrix(10,0,0,10,414.5,672.1)" />
<use xlink:href="#f1_2b" transform="matrix(10,0,0,10,426.1,672.1)" />
<use xlink:href="#f1_2f" transform="matrix(10,0,0,10,434,672.1)" />
<use xlink:href="#f1_2g" transform="matrix(10,0,0,10,439.6,672.1)" />
<use xlink:href="#f1_1x" transform="matrix(10,0,0,10,89.5,692.1)" />
<use xlink:href="#f1_1y" transform="matrix(10,0,0,10,96.6,692.1)" />
<use xlink:href="#f1_2h" transform="matrix(10,0,0,10,104.7,692.1)" />
<use xlink:href="#f1_2a" transform="matrix(10,0,0,10,112.6,692.1)" />
<use xlink:href="#f1_20" transform="matrix(10,0,0,10,120.6,692.1)" />
<use xlink:href="#f1_1x" transform="matrix(10,0,0,10,128.7,692.1)" />
<use xlink:href="#f1_2a" transform="matrix(10,0,0,10,135.9,692.1)" />
<use xlink:href="#f1_2g" transform="matrix(10,0,0,10,143.9,692.1)" />
<use xlink:href="#f1_2b" transform="matrix(10,0,0,10,154.7,692.1)" />
<use xlink:href="#f1_2e" transform="matrix(10,0,0,10,162.8,692.1)" />
<use xlink:href="#f1_23" transform="matrix(10,0,0,10,168.3,692.1)" />
<use xlink:href="#f1_1x" transform="matrix(10,0,0,10,176.2,692.1)" />
<use xlink:href="#f1_2a" transform="matrix(10,0,0,10,183.3,692.1)" />
<use xlink:href="#f1_25" transform="matrix(10,0,0,10,191.4,692.1)" />
<use xlink:href="#f1_1z" transform="matrix(10,0,0,10,196,692.1)" />
<use xlink:href="#f1_2f" transform="matrix(10,0,0,10,209.6,692.1)" />
<use xlink:href="#f1_2h" transform="matrix(10,0,0,10,215.8,692.1)" />
<use xlink:href="#f1_1y" transform="matrix(10,0,0,10,223.7,692.1)" />
<use xlink:href="#f1_2f" transform="matrix(10,0,0,10,231.9,692.1)" />
<use xlink:href="#f1_2g" transform="matrix(10,0,0,10,238.2,692.1)" />
<use xlink:href="#f1_1x" transform="matrix(10,0,0,10,242.7,692.1)" />
<use xlink:href="#f1_2a" transform="matrix(10,0,0,10,250.3,692.1)" />
<use xlink:href="#f1_1z" transform="matrix(10,0,0,10,258,692.1)" />
<use xlink:href="#f1_21" transform="matrix(10,0,0,10,265.1,692.1)" />
<use xlink:href="#f1_25" transform="matrix(10,0,0,10,278.5,692.1)" />
<use xlink:href="#f1_2a" transform="matrix(10,0,0,10,283.1,692.1)" />
<use xlink:href="#f1_2c" transform="matrix(10,0,0,10,297.4,692.1)" />
<use xlink:href="#f1_28" transform="matrix(10,0,0,10,305.5,692.1)" />
<use xlink:href="#f1_1x" transform="matrix(10,0,0,10,310.4,692.1)" />
<use xlink:href="#f1_2a" transform="matrix(10,0,0,10,317.6,692.1)" />
<use xlink:href="#f1_2g" transform="matrix(10,0,0,10,325.4,692.1)" />
<use xlink:href="#f1_27" transform="matrix(10,0,0,10,336.3,692.1)" />
<use xlink:href="#f1_25" transform="matrix(10,0,0,10,344,692.1)" />
<use xlink:href="#f1_2a" transform="matrix(10,0,0,10,348.9,692.1)" />
<use xlink:href="#f1_23" transform="matrix(10,0,0,10,356.8,692.1)" />
<use xlink:href="#f1_20" transform="matrix(10,0,0,10,364.5,692.1)" />
<use xlink:href="#f1_2b" transform="matrix(10,0,0,10,372.9,692.1)" />
<use xlink:href="#f1_29" transform="matrix(10,0,0,10,381,692.1)" />
<use xlink:href="#f1_i" transform="matrix(10,0,0,10,392.7,692.1)" />
<use xlink:href="#f1_19" transform="matrix(10,0,0,10,403.5,692.1)" />
<use xlink:href="#f1_2g" transform="matrix(10,0,0,10,408.9,692.1)" />
<use xlink:href="#f1_25" transform="matrix(10,0,0,10,419.7,692.1)" />
<use xlink:href="#f1_2f" transform="matrix(10,0,0,10,424.3,692.1)" />
<use xlink:href="#f1_1x" transform="matrix(10,0,0,10,436.9,692.1)" />
<use xlink:href="#f1_2c" transform="matrix(10,0,0,10,89.5,711.9)" />
<use xlink:href="#f1_2e" transform="matrix(10,0,0,10,97.2,711.9)" />
<use xlink:href="#f1_21" transform="matrix(10,0,0,10,101.9,711.9)" />
<use xlink:href="#f1_20" transform="matrix(10,0,0,10,108.9,711.9)" />
<use xlink:href="#f1_2b" transform="matrix(10,0,0,10,116.2,711.9)" />
<use xlink:href="#f1_29" transform="matrix(10,0,0,10,124.1,711.9)" />
<use xlink:href="#f1_25" transform="matrix(10,0,0,10,135.3,711.9)" />
<use xlink:href="#f1_2a" transform="matrix(10,0,0,10,139.5,711.9)" />
<use xlink:href="#f1_1x" transform="matrix(10,0,0,10,147.2,711.9)" />
<use xlink:href="#f1_2a" transform="matrix(10,0,0,10,153.6,711.9)" />
<use xlink:href="#f1_2g" transform="matrix(10,0,0,10,161.2,711.9)" />
<use xlink:href="#f1_1z" transform="matrix(10,0,0,10,168.1,711.9)" />
<use xlink:href="#f1_2b" transform="matrix(10,0,0,10,174.9,711.9)" />
<use xlink:href="#f1_2a" transform="matrix(10,0,0,10,182.6,711.9)" />
<use xlink:href="#f1_2f" transform="matrix(10,0,0,10,189.9,711.9)" />
<use xlink:href="#f1_2g" transform="matrix(10,0,0,10,195.8,711.9)" />
<use xlink:href="#f1_25" transform="matrix(10,0,0,10,199.8,711.9)" />
<use xlink:href="#f1_2g" transform="matrix(10,0,0,10,204.1,711.9)" />
<use xlink:href="#f1_2h" transform="matrix(10,0,0,10,208.3,711.9)" />
<use xlink:href="#f1_21" transform="matrix(10,0,0,10,215.6,711.9)" />
<use xlink:href="#f1_2a" transform="matrix(10,0,0,10,222.4,711.9)" />
<use xlink:href="#f1_2g" transform="matrix(10,0,0,10,229.9,711.9)" />
<use xlink:href="#f1_2b" transform="matrix(10,0,0,10,236.5,711.9)" />
<use xlink:href="#f1_22" transform="matrix(10,0,0,10,244.2,711.9)" />
<use xlink:href="#f1_1z" transform="matrix(10,0,0,10,251.7,711.9)" />
<use xlink:href="#f1_21" transform="matrix(10,0,0,10,258.5,711.9)" />
<use xlink:href="#f1_28" transform="matrix(10,0,0,10,265.5,711.9)" />
<use xlink:href="#f1_28" transform="matrix(10,0,0,10,269.3,711.9)" />
<use xlink:href="#f1_2j" transform="matrix(10,0,0,10,276.3,711.9)" />
<use xlink:href="#f1_1x" transform="matrix(10,0,0,10,286.9,711.9)" />
<use xlink:href="#f1_28" transform="matrix(10,0,0,10,293.9,711.9)" />
<use xlink:href="#f1_28" transform="matrix(10,0,0,10,297.8,711.9)" />
<use xlink:href="#f1_2b" transform="matrix(10,0,0,10,304.7,711.9)" />
<use xlink:href="#f1_22" transform="matrix(10,0,0,10,312.6,711.9)" />
<use xlink:href="#f1_2c" transform="matrix(10,0,0,10,320,711.9)" />
<use xlink:href="#f1_28" transform="matrix(10,0,0,10,327.8,711.9)" />
<use xlink:href="#f1_1x" transform="matrix(10,0,0,10,331.7,711.9)" />
<use xlink:href="#f1_2a" transform="matrix(10,0,0,10,338.7,711.9)" />
<use xlink:href="#f1_2g" transform="matrix(10,0,0,10,346,711.9)" />
<use xlink:href="#f1_1z" transform="matrix(10,0,0,10,353,711.9)" />
<use xlink:href="#f1_21" transform="matrix(10,0,0,10,359.7,711.9)" />
<use xlink:href="#f1_28" transform="matrix(10,0,0,10,366.5,711.9)" />
<use xlink:href="#f1_28" transform="matrix(10,0,0,10,370.4,711.9)" />
<use xlink:href="#f1_2f" transform="matrix(10,0,0,10,374.6,711.9)" />
<use xlink:href="#f1_i" transform="matrix(10,0,0,10,380.4,711.9)" />
<use xlink:href="#f1_13" transform="matrix(10,0,0,10,387,711.9)" />
<use xlink:href="#f1_21" transform="matrix(10,0,0,10,396.9,711.9)" />
<use xlink:href="#f1_28" transform="matrix(10,0,0,10,403.9,711.9)" />
<use xlink:href="#f1_28" transform="matrix(10,0,0,10,407.7,711.9)" />
<use xlink:href="#f1_2h" transform="matrix(10,0,0,10,412,711.9)" />
<use xlink:href="#f1_28" transform="matrix(10,0,0,10,419.3,711.9)" />
<use xlink:href="#f1_2b" transform="matrix(10,0,0,10,423.5,711.9)" />
<use xlink:href="#f1_2f" transform="matrix(10,0,0,10,431.2,711.9)" />
<use xlink:href="#f1_21" transform="matrix(10,0,0,10,436.9,711.9)" />
<use xlink:href="#f1_25" transform="matrix(10,0,0,10,89.5,731.7)" />
<use xlink:href="#f1_2f" transform="matrix(10,0,0,10,93.7,731.7)" />
<use xlink:href="#f1_1x" transform="matrix(10,0,0,10,104.1,731.7)" />
<use xlink:href="#f1_2f" transform="matrix(10,0,0,10,115.5,731.7)" />
<use xlink:href="#f1_2g" transform="matrix(10,0,0,10,121.2,731.7)" />
<use xlink:href="#f1_2e" transform="matrix(10,0,0,10,125.4,731.7)" />
<use xlink:href="#f1_1x" transform="matrix(10,0,0,10,130.5,731.7)" />
<use xlink:href="#f1_25" transform="matrix(10,0,0,10,137.5,731.7)" />
<use xlink:href="#f1_23" transform="matrix(10,0,0,10,141.5,731.7)" />
<use xlink:href="#f1_24" transform="matrix(10,0,0,10,149.2,731.7)" />
<use xlink:href="#f1_2g" transform="matrix(10,0,0,10,156.6,731.7)" />
<use xlink:href="#f1_1z" transform="matrix(10,0,0,10,165.6,731.7)" />
<use xlink:href="#f1_24" transform="matrix(10,0,0,10,172.3,731.7)" />
<use xlink:href="#f1_1x" transform="matrix(10,0,0,10,179.9,731.7)" />
<use xlink:href="#f1_25" transform="matrix(10,0,0,10,186.6,731.7)" />
<use xlink:href="#f1_2a" transform="matrix(10,0,0,10,191,731.7)" />
<use xlink:href="#f1_2c" transform="matrix(10,0,0,10,203,731.7)" />
<use xlink:href="#f1_2b" transform="matrix(10,0,0,10,210.7,731.7)" />
<use xlink:href="#f1_28" transform="matrix(10,0,0,10,218.5,731.7)" />
<use xlink:href="#f1_2l" transform="matrix(10,0,0,10,222.6,731.7)" />
<use xlink:href="#f1_2f" transform="matrix(10,0,0,10,230.1,731.7)" />
<use xlink:href="#f1_1x" transform="matrix(10,0,0,10,235.8,731.7)" />
<use xlink:href="#f1_1z" transform="matrix(10,0,0,10,242.8,731.7)" />
<use xlink:href="#f1_1z" transform="matrix(10,0,0,10,249.5,731.7)" />
<use xlink:href="#f1_24" transform="matrix(10,0,0,10,256.1,731.7)" />
<use xlink:href="#f1_1x" transform="matrix(10,0,0,10,263.7,731.7)" />
<use xlink:href="#f1_2e" transform="matrix(10,0,0,10,270.4,731.7)" />
<use xlink:href="#f1_25" transform="matrix(10,0,0,10,275.8,731.7)" />
<use xlink:href="#f1_20" transform="matrix(10,0,0,10,279.8,731.7)" />
<use xlink:href="#f1_21" transform="matrix(10,0,0,10,287.5,731.7)" />
<use xlink:href="#f1_1z" transform="matrix(10,0,0,10,299,731.7)" />
<use xlink:href="#f1_2b" transform="matrix(10,0,0,10,305.8,731.7)" />
<use xlink:href="#f1_29" transform="matrix(10,0,0,10,313.5,731.7)" />
<use xlink:href="#f1_2c" transform="matrix(10,0,0,10,324.9,731.7)" />
<use xlink:href="#f1_2b" transform="matrix(10,0,0,10,332.6,731.7)" />
<use xlink:href="#f1_2f" transform="matrix(10,0,0,10,340.5,731.7)" />
<use xlink:href="#f1_21" transform="matrix(10,0,0,10,346.2,731.7)" />
<use xlink:href="#f1_20" transform="matrix(10,0,0,10,353.1,731.7)" />
<use xlink:href="#f1_2b" transform="matrix(10,0,0,10,365.4,731.7)" />
<use xlink:href="#f1_2a" transform="matrix(10,0,0,10,372.9,731.7)" />
<use xlink:href="#f1_28" transform="matrix(10,0,0,10,380.6,731.7)" />
<use xlink:href="#f1_2l" transform="matrix(10,0,0,10,384.7,731.7)" />
<use xlink:href="#f1_2b" transform="matrix(10,0,0,10,397,731.7)" />
<use xlink:href="#f1_22" transform="matrix(10,0,0,10,404.5,731.7)" />
<use xlink:href="#f2_1y" transform="matrix(10,0,0,10,414.2,731.7)" />
<use xlink:href="#f1_h" transform="matrix(10,0,0,10,422.8,731.7)" />
<use xlink:href="#f1_14" transform="matrix(10,0,0,10,427.9,731.7)" />
<use xlink:href="#f1_h" transform="matrix(10,0,0,10,438.9,731.7)" />
<use xlink:href="#f1_23" transform="matrix(10,0,0,10,89.5,751.7)" />
<use xlink:href="#f1_28" transform="matrix(10,0,0,10,96.6,751.7)" />
<use xlink:href="#f1_2h" transform="matrix(10,0,0,10,100.8,751.7)" />
<use xlink:href="#f1_1z" transform="matrix(10,0,0,10,108.2,751.7)" />
<use xlink:href="#f1_2b" transform="matrix(10,0,0,10,114.6,751.7)" />
<use xlink:href="#f1_2f" transform="matrix(10,0,0,10,122.3,751.7)" />
<use xlink:href="#f1_21" transform="matrix(10,0,0,10,127.8,751.7)" />
<use xlink:href="#f1_2h" transform="matrix(10,0,0,10,137.1,751.7)" />
<use xlink:href="#f1_2a" transform="matrix(10,0,0,10,144.7,751.7)" />
<use xlink:href="#f1_25" transform="matrix(10,0,0,10,152,751.7)" />
<use xlink:href="#f1_2g" transform="matrix(10,0,0,10,155.8,751.7)" />
<use xlink:href="#f1_2f" transform="matrix(10,0,0,10,160.1,751.7)" />
<use xlink:href="#f1_2j" transform="matrix(10,0,0,10,168.1,751.7)" />
<use xlink:href="#f1_24" transform="matrix(10,0,0,10,178.9,751.7)" />
<use xlink:href="#f1_25" transform="matrix(10,0,0,10,186.1,751.7)" />
<use xlink:href="#f1_1z" transform="matrix(10,0,0,10,190.3,751.7)" />
<use xlink:href="#f1_24" transform="matrix(10,0,0,10,196.9,751.7)" />
<use xlink:href="#f1_1x" transform="matrix(10,0,0,10,206.8,751.7)" />
<use xlink:href="#f1_2e" transform="matrix(10,0,0,10,213.6,751.7)" />
<use xlink:href="#f1_21" transform="matrix(10,0,0,10,218.5,751.7)" />
<use xlink:href="#f1_26" transform="matrix(10,0,0,10,227.7,751.7)" />
<use xlink:href="#f1_2b" transform="matrix(10,0,0,10,231.9,751.7)" />
<use xlink:href="#f1_25" transform="matrix(10,0,0,10,239.6,751.7)" />
<use xlink:href="#f1_2a" transform="matrix(10,0,0,10,243.5,751.7)" />
<use xlink:href="#f1_21" transform="matrix(10,0,0,10,250.8,751.7)" />
<use xlink:href="#f1_20" transform="matrix(10,0,0,10,257.6,751.7)" />
<use xlink:href="#f1_1y" transform="matrix(10,0,0,10,267.9,751.7)" />
<use xlink:href="#f1_2l" transform="matrix(10,0,0,10,275.2,751.7)" />
<use xlink:href="#f1_23" transform="matrix(10,0,0,10,285.1,751.7)" />
<use xlink:href="#f1_28" transform="matrix(10,0,0,10,292.3,751.7)" />
<use xlink:href="#f1_2l" transform="matrix(10,0,0,10,296.5,751.7)" />
<use xlink:href="#f1_1z" transform="matrix(10,0,0,10,303.6,751.7)" />
<use xlink:href="#f1_2b" transform="matrix(10,0,0,10,310.2,751.7)" />
<use xlink:href="#f1_2f" transform="matrix(10,0,0,10,317.6,751.7)" />
<use xlink:href="#f1_25" transform="matrix(10,0,0,10,323.4,751.7)" />
<use xlink:href="#f1_20" transform="matrix(10,0,0,10,327.3,751.7)" />
<use xlink:href="#f1_25" transform="matrix(10,0,0,10,335,751.7)" />
<use xlink:href="#f1_1z" transform="matrix(10,0,0,10,338.8,751.7)" />
<use xlink:href="#f1_28" transform="matrix(10,0,0,10,348.4,751.7)" />
<use xlink:href="#f1_25" transform="matrix(10,0,0,10,352.6,751.7)" />
<use xlink:href="#f1_2a" transform="matrix(10,0,0,10,356.4,751.7)" />
<use xlink:href="#f1_27" transform="matrix(10,0,0,10,364,751.7)" />
<use xlink:href="#f1_1x" transform="matrix(10,0,0,10,371.3,751.7)" />
<use xlink:href="#f1_23" transform="matrix(10,0,0,10,377.7,751.7)" />
<use xlink:href="#f1_21" transform="matrix(10,0,0,10,385,751.7)" />
<use xlink:href="#f1_1y" transform="matrix(10,0,0,10,394.4,751.7)" />
<use xlink:href="#f1_21" transform="matrix(10,0,0,10,402.1,751.7)" />
<use xlink:href="#f1_2g" transform="matrix(10,0,0,10,408.5,751.7)" />
<use xlink:href="#f1_2j" transform="matrix(10,0,0,10,412.7,751.7)" />
<use xlink:href="#f1_21" transform="matrix(10,0,0,10,423,751.7)" />
<use xlink:href="#f1_21" transform="matrix(10,0,0,10,429.7,751.7)" />
<use xlink:href="#f1_2a" transform="matrix(10,0,0,10,436.3,751.7)" />
<use xlink:href="#f1_13" transform="matrix(10,0,0,10,89.5,771.5)" />
<use xlink:href="#f1_l" transform="matrix(10,0,0,10,99.4,771.5)" />
<use xlink:href="#f1_2b" transform="matrix(10,0,0,10,110.9,771.5)" />
<use xlink:href="#f1_22" transform="matrix(10,0,0,10,118.6,771.5)" />
<use xlink:href="#f1_2b" transform="matrix(10,0,0,10,127,771.5)" />
<use xlink:href="#f1_2a" transform="matrix(10,0,0,10,134.9,771.5)" />
<use xlink:href="#f1_21" transform="matrix(10,0,0,10,142.3,771.5)" />
<use xlink:href="#f1_23" transform="matrix(10,0,0,10,152.9,771.5)" />
<use xlink:href="#f1_28" transform="matrix(10,0,0,10,160.2,771.5)" />
<use xlink:href="#f1_2h" transform="matrix(10,0,0,10,164.5,771.5)" />
<use xlink:href="#f1_1z" transform="matrix(10,0,0,10,172.2,771.5)" />
<use xlink:href="#f1_2b" transform="matrix(10,0,0,10,178.9,771.5)" />
<use xlink:href="#f1_2f" transform="matrix(10,0,0,10,186.5,771.5)" />
<use xlink:href="#f1_21" transform="matrix(10,0,0,10,192.5,771.5)" />
<use xlink:href="#f1_2h" transform="matrix(10,0,0,10,203,771.5)" />
<use xlink:href="#f1_2a" transform="matrix(10,0,0,10,210.3,771.5)" />
<use xlink:href="#f1_25" transform="matrix(10,0,0,10,217.8,771.5)" />
<use xlink:href="#f1_2g" transform="matrix(10,0,0,10,222,771.5)" />
<use xlink:href="#f1_1x" transform="matrix(10,0,0,10,229.9,771.5)" />
<use xlink:href="#f1_2a" transform="matrix(10,0,0,10,236.9,771.5)" />
<use xlink:href="#f1_20" transform="matrix(10,0,0,10,244.2,771.5)" />
<use xlink:href="#f1_13" transform="matrix(10,0,0,10,255.8,771.5)" />
<use xlink:href="#f1_o" transform="matrix(10,0,0,10,266,771.5)" />
<use xlink:href="#f1_2b" transform="matrix(10,0,0,10,277.4,771.5)" />
<use xlink:href="#f1_22" transform="matrix(10,0,0,10,284.9,771.5)" />
<use xlink:href="#f1_2g" transform="matrix(10,0,0,10,293.5,771.5)" />
<use xlink:href="#f1_24" transform="matrix(10,0,0,10,297.7,771.5)" />
<use xlink:href="#f1_21" transform="matrix(10,0,0,10,305.4,771.5)" />
<use xlink:href="#f1_2a" transform="matrix(10,0,0,10,315.7,771.5)" />
<use xlink:href="#f1_21" transform="matrix(10,0,0,10,323.2,771.5)" />
<use xlink:href="#f1_2k" transform="matrix(10,0,0,10,330,771.5)" />
<use xlink:href="#f1_2g" transform="matrix(10,0,0,10,337.5,771.5)" />
<use xlink:href="#f1_23" transform="matrix(10,0,0,10,345.4,771.5)" />
<use xlink:href="#f1_28" transform="matrix(10,0,0,10,353.1,771.5)" />
<use xlink:href="#f1_2h" transform="matrix(10,0,0,10,357.3,771.5)" />
<use xlink:href="#f1_1z" transform="matrix(10,0,0,10,364.7,771.5)" />
<use xlink:href="#f1_2b" transform="matrix(10,0,0,10,371.6,771.5)" />
<use xlink:href="#f1_2f" transform="matrix(10,0,0,10,379.2,771.5)" />
<use xlink:href="#f1_21" transform="matrix(10,0,0,10,385.2,771.5)" />
<use xlink:href="#f1_2h" transform="matrix(10,0,0,10,395.7,771.5)" />
<use xlink:href="#f1_2a" transform="matrix(10,0,0,10,403,771.5)" />
<use xlink:href="#f1_25" transform="matrix(10,0,0,10,410.5,771.5)" />
<use xlink:href="#f1_2g" transform="matrix(10,0,0,10,414.7,771.5)" />
<use xlink:href="#f1_i" transform="matrix(10,0,0,10,418.9,771.5)" />
</g>
<image preserveAspectRatio="none" x="98" y="800" width="303" height="289" xlink:href="img/2.png" />
<g fill="#000000" >
<use xlink:href="#f0_r" transform="matrix(10,0,0,10,474.5,646.6)" />
<use xlink:href="#f0_i" transform="matrix(10,0,0,10,482.4,646.6)" />
<use xlink:href="#f0_n" transform="matrix(10,0,0,10,486.2,646.6)" />
<use xlink:href="#f0_17" transform="matrix(10,0,0,10,499.6,646.6)" />
<use xlink:href="#f0_28" transform="matrix(10,0,0,10,511.3,646.6)" />
<use xlink:href="#f0_2l" transform="matrix(10,0,0,10,515.5,646.6)" />
<use xlink:href="#f0_1z" transform="matrix(10,0,0,10,523.4,646.6)" />
<use xlink:href="#f0_2b" transform="matrix(10,0,0,10,530.2,646.6)" />
<use xlink:href="#f0_23" transform="matrix(10,0,0,10,537.9,646.6)" />
<use xlink:href="#f0_21" transform="matrix(10,0,0,10,545.4,646.6)" />
<use xlink:href="#f0_2a" transform="matrix(10,0,0,10,552.4,646.6)" />
<use xlink:href="#f1_1k" transform="matrix(10,0,0,10,500,672.1)" />
<use xlink:href="#f1_24" transform="matrix(10,0,0,10,509.5,672.1)" />
<use xlink:href="#f1_21" transform="matrix(10,0,0,10,516.8,672.1)" />
<use xlink:href="#f1_1z" transform="matrix(10,0,0,10,527.8,672.1)" />
<use xlink:href="#f1_1x" transform="matrix(10,0,0,10,534.8,672.1)" />
<use xlink:href="#f1_2e" transform="matrix(10,0,0,10,541.4,672.1)" />
<use xlink:href="#f1_1y" transform="matrix(10,0,0,10,546.7,672.1)" />
<use xlink:href="#f1_2b" transform="matrix(10,0,0,10,554.2,672.1)" />
<use xlink:href="#f1_24" transform="matrix(10,0,0,10,561.9,672.1)" />
<use xlink:href="#f1_2l" transform="matrix(10,0,0,10,569.4,672.1)" />
<use xlink:href="#f1_20" transform="matrix(10,0,0,10,577,672.1)" />
<use xlink:href="#f1_2e" transform="matrix(10,0,0,10,584.5,672.1)" />
<use xlink:href="#f1_1x" transform="matrix(10,0,0,10,589.8,672.1)" />
<use xlink:href="#f1_2g" transform="matrix(10,0,0,10,596.6,672.1)" />
<use xlink:href="#f1_21" transform="matrix(10,0,0,10,600.6,672.1)" />
<use xlink:href="#f1_2f" transform="matrix(10,0,0,10,607.6,672.1)" />
<use xlink:href="#f1_1x" transform="matrix(10,0,0,10,617.5,672.1)" />
<use xlink:href="#f1_2e" transform="matrix(10,0,0,10,624.5,672.1)" />
<use xlink:href="#f1_21" transform="matrix(10,0,0,10,629.4,672.1)" />
<use xlink:href="#f1_2f" transform="matrix(10,0,0,10,640.8,672.1)" />
<use xlink:href="#f1_2g" transform="matrix(10,0,0,10,646.5,672.1)" />
<use xlink:href="#f1_2b" transform="matrix(10,0,0,10,650.7,672.1)" />
<use xlink:href="#f1_2e" transform="matrix(10,0,0,10,658.6,672.1)" />
<use xlink:href="#f1_21" transform="matrix(10,0,0,10,663.5,672.1)" />
<use xlink:href="#f1_20" transform="matrix(10,0,0,10,670.5,672.1)" />
<use xlink:href="#f1_25" transform="matrix(10,0,0,10,682.4,672.1)" />
<use xlink:href="#f1_2a" transform="matrix(10,0,0,10,686.6,672.1)" />
<use xlink:href="#f1_1x" transform="matrix(10,0,0,10,698.2,672.1)" />
<use xlink:href="#f1_2a" transform="matrix(10,0,0,10,705.1,672.1)" />
<use xlink:href="#f1_25" transform="matrix(10,0,0,10,712.6,672.1)" />
<use xlink:href="#f1_29" transform="matrix(10,0,0,10,716.9,672.1)" />
<use xlink:href="#f1_1x" transform="matrix(10,0,0,10,728.4,672.1)" />
<use xlink:href="#f1_28" transform="matrix(10,0,0,10,735,672.1)" />
<use xlink:href="#f1_1y" transform="matrix(10,0,0,10,743.6,672.1)" />
<use xlink:href="#f1_2b" transform="matrix(10,0,0,10,751.2,672.1)" />
<use xlink:href="#f1_20" transform="matrix(10,0,0,10,759,672.1)" />
<use xlink:href="#f1_2l" transform="matrix(10,0,0,10,766.6,672.1)" />
<use xlink:href="#f1_1x" transform="matrix(10,0,0,10,778.5,672.1)" />
<use xlink:href="#f1_2f" transform="matrix(10,0,0,10,785.3,672.1)" />
<use xlink:href="#f1_23" transform="matrix(10,0,0,10,795.2,672.1)" />
<use xlink:href="#f1_28" transform="matrix(10,0,0,10,802.7,672.1)" />
<use xlink:href="#f1_2l" transform="matrix(10,0,0,10,806.9,672.1)" />
<use xlink:href="#f1_1z" transform="matrix(10,0,0,10,814.4,672.1)" />
<use xlink:href="#f1_2b" transform="matrix(10,0,0,10,821.2,672.1)" />
<use xlink:href="#f1_23" transform="matrix(10,0,0,10,828.7,672.1)" />
<use xlink:href="#f1_21" transform="matrix(10,0,0,10,836.4,672.1)" />
<use xlink:href="#f1_2a" transform="matrix(10,0,0,10,843.2,672.1)" />
<use xlink:href="#f1_i" transform="matrix(10,0,0,10,850.5,672.1)" />
<use xlink:href="#f1_19" transform="matrix(10,0,0,10,500.1,692.1)" />
<use xlink:href="#f1_2g" transform="matrix(10,0,0,10,505.3,692.1)" />
<use xlink:href="#f1_25" transform="matrix(10,0,0,10,514.6,692.1)" />
<use xlink:href="#f1_2f" transform="matrix(10,0,0,10,518.8,692.1)" />
<use xlink:href="#f1_1x" transform="matrix(10,0,0,10,530.2,692.1)" />
<use xlink:href="#f1_28" transform="matrix(10,0,0,10,537.2,692.1)" />
<use xlink:href="#f1_2f" transform="matrix(10,0,0,10,541.2,692.1)" />
<use xlink:href="#f1_2b" transform="matrix(10,0,0,10,547.1,692.1)" />
<use xlink:href="#f1_27" transform="matrix(10,0,0,10,560.3,692.1)" />
<use xlink:href="#f1_2a" transform="matrix(10,0,0,10,567.8,692.1)" />
<use xlink:href="#f1_2b" transform="matrix(10,0,0,10,575.1,692.1)" />
<use xlink:href="#f1_2j" transform="matrix(10,0,0,10,583,692.1)" />
<use xlink:href="#f1_2a" transform="matrix(10,0,0,10,593.6,692.1)" />
<use xlink:href="#f1_1x" transform="matrix(10,0,0,10,606.3,692.1)" />
<use xlink:href="#f1_2f" transform="matrix(10,0,0,10,613.3,692.1)" />
<use xlink:href="#f1_1x" transform="matrix(10,0,0,10,624.3,692.1)" />
<use xlink:href="#f1_2a" transform="matrix(10,0,0,10,631.2,692.1)" />
<use xlink:href="#f1_25" transform="matrix(10,0,0,10,638.6,692.1)" />
<use xlink:href="#f1_29" transform="matrix(10,0,0,10,642.8,692.1)" />
<use xlink:href="#f1_1x" transform="matrix(10,0,0,10,654.3,692.1)" />
<use xlink:href="#f1_28" transform="matrix(10,0,0,10,661.3,692.1)" />
<use xlink:href="#f1_2f" transform="matrix(10,0,0,10,670.8,692.1)" />
<use xlink:href="#f1_2g" transform="matrix(10,0,0,10,676.7,692.1)" />
<use xlink:href="#f1_1x" transform="matrix(10,0,0,10,680.9,692.1)" />
<use xlink:href="#f1_2e" transform="matrix(10,0,0,10,687.9,692.1)" />
<use xlink:href="#f1_1z" transform="matrix(10,0,0,10,692.8,692.1)" />
<use xlink:href="#f1_24" transform="matrix(10,0,0,10,699.8,692.1)" />
<use xlink:href="#f1_1y" transform="matrix(10,0,0,10,712.6,692.1)" />
<use xlink:href="#f1_21" transform="matrix(10,0,0,10,720.3,692.1)" />
<use xlink:href="#f1_1z" transform="matrix(10,0,0,10,727.1,692.1)" />
<use xlink:href="#f1_1x" transform="matrix(10,0,0,10,733.9,692.1)" />
<use xlink:href="#f1_2h" transform="matrix(10,0,0,10,740.7,692.1)" />
<use xlink:href="#f1_2f" transform="matrix(10,0,0,10,748.2,692.1)" />
<use xlink:href="#f1_21" transform="matrix(10,0,0,10,753.9,692.1)" />
<use xlink:href="#f1_25" transform="matrix(10,0,0,10,766.2,692.1)" />
<use xlink:href="#f1_2g" transform="matrix(10,0,0,10,770.4,692.1)" />
<use xlink:href="#f1_2f" transform="matrix(10,0,0,10,774.6,692.1)" />
<use xlink:href="#f1_2f" transform="matrix(10,0,0,10,786,692.1)" />
<use xlink:href="#f1_2g" transform="matrix(10,0,0,10,791.7,692.1)" />
<use xlink:href="#f1_2e" transform="matrix(10,0,0,10,796.1,692.1)" />
<use xlink:href="#f1_2h" transform="matrix(10,0,0,10,801.2,692.1)" />
<use xlink:href="#f1_1z" transform="matrix(10,0,0,10,808.5,692.1)" />
<use xlink:href="#f1_2g" transform="matrix(10,0,0,10,815.5,692.1)" />
<use xlink:href="#f1_2h" transform="matrix(10,0,0,10,819.5,692.1)" />
<use xlink:href="#f1_2e" transform="matrix(10,0,0,10,827.2,692.1)" />
<use xlink:href="#f1_21" transform="matrix(10,0,0,10,832.3,692.1)" />
<use xlink:href="#f1_25" transform="matrix(10,0,0,10,844.4,692.1)" />
<use xlink:href="#f1_2f" transform="matrix(10,0,0,10,848.5,692.1)" />
<use xlink:href="#f1_2f" transform="matrix(10,0,0,10,500.1,711.9)" />
<use xlink:href="#f1_25" transform="matrix(10,0,0,10,505.6,711.9)" />
<use xlink:href="#f1_29" transform="matrix(10,0,0,10,509.9,711.9)" />
<use xlink:href="#f1_25" transform="matrix(10,0,0,10,521.4,711.9)" />
<use xlink:href="#f1_28" transform="matrix(10,0,0,10,525.6,711.9)" />
<use xlink:href="#f1_1x" transform="matrix(10,0,0,10,529.5,711.9)" />
<use xlink:href="#f1_2e" transform="matrix(10,0,0,10,536.3,711.9)" />
<use xlink:href="#f1_2g" transform="matrix(10,0,0,10,544.1,711.9)" />
<use xlink:href="#f1_2b" transform="matrix(10,0,0,10,548.4,711.9)" />
<use xlink:href="#f1_1x" transform="matrix(10,0,0,10,558.4,711.9)" />
<use xlink:href="#f1_29" transform="matrix(10,0,0,10,565.4,711.9)" />
<use xlink:href="#f1_2l" transform="matrix(10,0,0,10,576.8,711.9)" />
<use xlink:href="#f1_28" transform="matrix(10,0,0,10,584.1,711.9)" />
<use xlink:href="#f1_2b" transform="matrix(10,0,0,10,588,711.9)" />
<use xlink:href="#f1_2c" transform="matrix(10,0,0,10,595.7,711.9)" />
<use xlink:href="#f1_21" transform="matrix(10,0,0,10,603.2,711.9)" />
<use xlink:href="#f1_1z" transform="matrix(10,0,0,10,610,711.9)" />
<use xlink:href="#f1_2g" transform="matrix(10,0,0,10,616.8,711.9)" />
<use xlink:href="#f1_25" transform="matrix(10,0,0,10,620.8,711.9)" />
<use xlink:href="#f1_2a" transform="matrix(10,0,0,10,624.6,711.9)" />
<use xlink:href="#f1_1x" transform="matrix(10,0,0,10,634.9,711.9)" />
<use xlink:href="#f1_2a" transform="matrix(10,0,0,10,641.7,711.9)" />
<use xlink:href="#f1_20" transform="matrix(10,0,0,10,648.8,711.9)" />
<use xlink:href="#f1_25" transform="matrix(10,0,0,10,659.5,711.9)" />
<use xlink:href="#f1_2f" transform="matrix(10,0,0,10,663.3,711.9)" />
<use xlink:href="#f1_2e" transform="matrix(10,0,0,10,672.1,711.9)" />
<use xlink:href="#f1_1x" transform="matrix(10,0,0,10,677.1,711.9)" />
<use xlink:href="#f1_2g" transform="matrix(10,0,0,10,683.9,711.9)" />
<use xlink:href="#f1_24" transform="matrix(10,0,0,10,687.9,711.9)" />
<use xlink:href="#f1_21" transform="matrix(10,0,0,10,695.2,711.9)" />
<use xlink:href="#f1_2e" transform="matrix(10,0,0,10,702,711.9)" />
<use xlink:href="#f1_29" transform="matrix(10,0,0,10,709.7,711.9)" />
<use xlink:href="#f1_2b" transform="matrix(10,0,0,10,721.3,711.9)" />
<use xlink:href="#f1_2e" transform="matrix(10,0,0,10,728.8,711.9)" />
<use xlink:href="#f1_21" transform="matrix(10,0,0,10,733.9,711.9)" />
<use xlink:href="#f1_24" transform="matrix(10,0,0,10,743.1,711.9)" />
<use xlink:href="#f1_25" transform="matrix(10,0,0,10,750.4,711.9)" />
<use xlink:href="#f1_23" transform="matrix(10,0,0,10,754.6,711.9)" />
<use xlink:href="#f1_24" transform="matrix(10,0,0,10,762,711.9)" />
<use xlink:href="#f1_28" transform="matrix(10,0,0,10,769.5,711.9)" />
<use xlink:href="#f1_2l" transform="matrix(10,0,0,10,773.5,711.9)" />
<use xlink:href="#f1_1y" transform="matrix(10,0,0,10,783.8,711.9)" />
<use xlink:href="#f1_2e" transform="matrix(10,0,0,10,791.3,711.9)" />
<use xlink:href="#f1_1x" transform="matrix(10,0,0,10,796,711.9)" />
<use xlink:href="#f1_2a" transform="matrix(10,0,0,10,802.8,711.9)" />
<use xlink:href="#f1_1z" transform="matrix(10,0,0,10,810.2,711.9)" />
<use xlink:href="#f1_24" transform="matrix(10,0,0,10,817.1,711.9)" />
<use xlink:href="#f1_21" transform="matrix(10,0,0,10,824.5,711.9)" />
<use xlink:href="#f1_20" transform="matrix(10,0,0,10,830.9,711.9)" />
<use xlink:href="#f1_i" transform="matrix(10,0,0,10,838.8,711.9)" />
<use xlink:href="#f1_19" transform="matrix(10,0,0,10,845.2,711.9)" />
<use xlink:href="#f1_2g" transform="matrix(10,0,0,10,850.3,711.9)" />
<use xlink:href="#f1_25" transform="matrix(10,0,0,10,500.1,731.7)" />
<use xlink:href="#f1_2f" transform="matrix(10,0,0,10,504.4,731.7)" />
<use xlink:href="#f1_2c" transform="matrix(10,0,0,10,513.3,731.7)" />
<use xlink:href="#f1_2e" transform="matrix(10,0,0,10,521,731.7)" />
<use xlink:href="#f1_21" transform="matrix(10,0,0,10,526.2,731.7)" />
<use xlink:href="#f1_2f" transform="matrix(10,0,0,10,533,731.7)" />
<use xlink:href="#f1_21" transform="matrix(10,0,0,10,538.6,731.7)" />
<use xlink:href="#f1_2a" transform="matrix(10,0,0,10,545.6,731.7)" />
<use xlink:href="#f1_2g" transform="matrix(10,0,0,10,552.9,731.7)" />
<use xlink:href="#f1_25" transform="matrix(10,0,0,10,560.6,731.7)" />
<use xlink:href="#f1_2a" transform="matrix(10,0,0,10,564.7,731.7)" />
<use xlink:href="#f1_28" transform="matrix(10,0,0,10,575.3,731.7)" />
<use xlink:href="#f1_25" transform="matrix(10,0,0,10,579.5,731.7)" />
<use xlink:href="#f1_2i" transform="matrix(10,0,0,10,583.7,731.7)" />
<use xlink:href="#f1_21" transform="matrix(10,0,0,10,591.4,731.7)" />
<use xlink:href="#f1_2e" transform="matrix(10,0,0,10,598.2,731.7)" />
<use xlink:href="#f1_g" transform="matrix(10,0,0,10,602.8,731.7)" />
<use xlink:href="#f1_29" transform="matrix(10,0,0,10,610,731.7)" />
<use xlink:href="#f1_2h" transform="matrix(10,0,0,10,621.5,731.7)" />
<use xlink:href="#f1_2f" transform="matrix(10,0,0,10,628.9,731.7)" />
<use xlink:href="#f1_1z" transform="matrix(10,0,0,10,634.9,731.7)" />
<use xlink:href="#f1_28" transform="matrix(10,0,0,10,641.7,731.7)" />
<use xlink:href="#f1_21" transform="matrix(10,0,0,10,645.9,731.7)" />
<use xlink:href="#f1_2f" transform="matrix(10,0,0,10,652.5,731.7)" />
<use xlink:href="#f1_1x" transform="matrix(10,0,0,10,661.5,731.7)" />
<use xlink:href="#f1_2a" transform="matrix(10,0,0,10,668.5,731.7)" />
<use xlink:href="#f1_20" transform="matrix(10,0,0,10,675.8,731.7)" />
<use xlink:href="#f1_1y" transform="matrix(10,0,0,10,686.6,731.7)" />
<use xlink:href="#f1_2e" transform="matrix(10,0,0,10,694.5,731.7)" />
<use xlink:href="#f1_1x" transform="matrix(10,0,0,10,699.6,731.7)" />
<use xlink:href="#f1_25" transform="matrix(10,0,0,10,706.4,731.7)" />
<use xlink:href="#f1_2a" transform="matrix(10,0,0,10,710.6,731.7)" />
<use xlink:href="#f1_i" transform="matrix(10,0,0,10,718,731.7)" />
<use xlink:href="#f1_1n" transform="matrix(10,0,0,10,725.1,731.7)" />
<use xlink:href="#f1_24" transform="matrix(10,0,0,10,739.4,731.7)" />
<use xlink:href="#f1_21" transform="matrix(10,0,0,10,746.9,731.7)" />
<use xlink:href="#f1_2a" transform="matrix(10,0,0,10,753.7,731.7)" />
<use xlink:href="#f1_2g" transform="matrix(10,0,0,10,764.5,731.7)" />
<use xlink:href="#f1_24" transform="matrix(10,0,0,10,768.8,731.7)" />
<use xlink:href="#f1_21" transform="matrix(10,0,0,10,776.1,731.7)" />
<use xlink:href="#f1_1y" transform="matrix(10,0,0,10,786.4,731.7)" />
<use xlink:href="#f1_2b" transform="matrix(10,0,0,10,793.9,731.7)" />
<use xlink:href="#f1_20" transform="matrix(10,0,0,10,801.7,731.7)" />
<use xlink:href="#f1_2l" transform="matrix(10,0,0,10,809.2,731.7)" />
<use xlink:href="#f1_2a" transform="matrix(10,0,0,10,819.9,731.7)" />
<use xlink:href="#f1_21" transform="matrix(10,0,0,10,827.2,731.7)" />
<use xlink:href="#f1_21" transform="matrix(10,0,0,10,834.2,731.7)" />
<use xlink:href="#f1_20" transform="matrix(10,0,0,10,841,731.7)" />
<use xlink:href="#f1_2f" transform="matrix(10,0,0,10,848.5,731.7)" />
<use xlink:href="#f1_23" transform="matrix(10,0,0,10,500.1,751.7)" />
<use xlink:href="#f1_28" transform="matrix(10,0,0,10,507.8,751.7)" />
<use xlink:href="#f1_2h" transform="matrix(10,0,0,10,512.2,751.7)" />
<use xlink:href="#f1_1z" transform="matrix(10,0,0,10,519.8,751.7)" />
<use xlink:href="#f1_2b" transform="matrix(10,0,0,10,526.7,751.7)" />
<use xlink:href="#f1_2f" transform="matrix(10,0,0,10,534.4,751.7)" />
<use xlink:href="#f1_21" transform="matrix(10,0,0,10,540.5,751.7)" />
<use xlink:href="#f1_g" transform="matrix(10,0,0,10,547.4,751.7)" />
<use xlink:href="#f1_21" transform="matrix(10,0,0,10,557.3,751.7)" />
<use xlink:href="#f1_2a" transform="matrix(10,0,0,10,564.5,751.7)" />
<use xlink:href="#f1_2m" transform="matrix(10,0,0,10,572,751.7)" />
<use xlink:href="#f1_2l" transform="matrix(10,0,0,10,579,751.7)" />
<use xlink:href="#f1_29" transform="matrix(10,0,0,10,586.3,751.7)" />
<use xlink:href="#f1_21" transform="matrix(10,0,0,10,598.2,751.7)" />
<use xlink:href="#f1_2f" transform="matrix(10,0,0,10,605.2,751.7)" />
<use xlink:href="#f1_1y" transform="matrix(10,0,0,10,617.1,751.7)" />
<use xlink:href="#f1_2e" transform="matrix(10,0,0,10,624.8,751.7)" />
<use xlink:href="#f1_21" transform="matrix(10,0,0,10,629.9,751.7)" />
<use xlink:href="#f1_1x" transform="matrix(10,0,0,10,636.9,751.7)" />
<use xlink:href="#f1_27" transform="matrix(10,0,0,10,643.9,751.7)" />
<use xlink:href="#f1_2g" transform="matrix(10,0,0,10,657.4,751.7)" />
<use xlink:href="#f1_24" transform="matrix(10,0,0,10,661.9,751.7)" />
<use xlink:href="#f1_21" transform="matrix(10,0,0,10,669.7,751.7)" />
<use xlink:href="#f1_23" transform="matrix(10,0,0,10,682.4,751.7)" />
<use xlink:href="#f1_28" transform="matrix(10,0,0,10,690.3,751.7)" />
<use xlink:href="#f1_2l" transform="matrix(10,0,0,10,694.3,751.7)" />
<use xlink:href="#f1_1z" transform="matrix(10,0,0,10,702,751.7)" />
<use xlink:href="#f1_2b" transform="matrix(10,0,0,10,709,751.7)" />
<use xlink:href="#f1_23" transform="matrix(10,0,0,10,716.7,751.7)" />
<use xlink:href="#f1_21" transform="matrix(10,0,0,10,724.6,751.7)" />
<use xlink:href="#f1_2a" transform="matrix(10,0,0,10,731.3,751.7)" />
<use xlink:href="#f1_20" transform="matrix(10,0,0,10,745.1,751.7)" />
<use xlink:href="#f1_2b" transform="matrix(10,0,0,10,753,751.7)" />
<use xlink:href="#f1_2j" transform="matrix(10,0,0,10,760.7,751.7)" />
<use xlink:href="#f1_2a" transform="matrix(10,0,0,10,771.3,751.7)" />
<use xlink:href="#f1_2g" transform="matrix(10,0,0,10,785.1,751.7)" />
<use xlink:href="#f1_2b" transform="matrix(10,0,0,10,789.3,751.7)" />
<use xlink:href="#f1_23" transform="matrix(10,0,0,10,803,751.7)" />
<use xlink:href="#f1_28" transform="matrix(10,0,0,10,810.9,751.7)" />
<use xlink:href="#f1_2h" transform="matrix(10,0,0,10,815.3,751.7)" />
<use xlink:href="#f1_1z" transform="matrix(10,0,0,10,822.8,751.7)" />
<use xlink:href="#f1_2b" transform="matrix(10,0,0,10,830,751.7)" />
<use xlink:href="#f1_2f" transform="matrix(10,0,0,10,837.7,751.7)" />
<use xlink:href="#f1_21" transform="matrix(10,0,0,10,843.5,751.7)" />
<use xlink:href="#f1_i" transform="matrix(10,0,0,10,850.5,751.7)" />
<use xlink:href="#f1_17" transform="matrix(10,0,0,10,500.1,771.5)" />
<use xlink:href="#f1_28" transform="matrix(10,0,0,10,510.9,771.5)" />
<use xlink:href="#f1_2l" transform="matrix(10,0,0,10,515.4,771.5)" />
<use xlink:href="#f1_1z" transform="matrix(10,0,0,10,522.5,771.5)" />
<use xlink:href="#f1_2b" transform="matrix(10,0,0,10,529.5,771.5)" />
<use xlink:href="#f1_23" transform="matrix(10,0,0,10,537,771.5)" />
<use xlink:href="#f1_21" transform="matrix(10,0,0,10,544.7,771.5)" />
<use xlink:href="#f1_2a" transform="matrix(10,0,0,10,551.5,771.5)" />
<use xlink:href="#f1_25" transform="matrix(10,0,0,10,563,771.5)" />
<use xlink:href="#f1_2f" transform="matrix(10,0,0,10,567.2,771.5)" />
<use xlink:href="#f1_1x" transform="matrix(10,0,0,10,577.1,771.5)" />
<use xlink:href="#f1_28" transform="matrix(10,0,0,10,584.1,771.5)" />
<use xlink:href="#f1_2f" transform="matrix(10,0,0,10,588.1,771.5)" />
<use xlink:href="#f1_2b" transform="matrix(10,0,0,10,594.2,771.5)" />
<use xlink:href="#f1_22" transform="matrix(10,0,0,10,605.7,771.5)" />
<use xlink:href="#f1_2b" transform="matrix(10,0,0,10,610.9,771.5)" />
<use xlink:href="#f1_2h" transform="matrix(10,0,0,10,618.6,771.5)" />
<use xlink:href="#f1_2a" transform="matrix(10,0,0,10,625.9,771.5)" />
<use xlink:href="#f1_20" transform="matrix(10,0,0,10,633.6,771.5)" />
<use xlink:href="#f1_25" transform="matrix(10,0,0,10,645.3,771.5)" />
<use xlink:href="#f1_2a" transform="matrix(10,0,0,10,649.6,771.5)" />
<use xlink:href="#f1_2l" transform="matrix(10,0,0,10,661.1,771.5)" />
<use xlink:href="#f1_21" transform="matrix(10,0,0,10,668.4,771.5)" />
<use xlink:href="#f1_1x" transform="matrix(10,0,0,10,675,771.5)" />
<use xlink:href="#f1_2f" transform="matrix(10,0,0,10,682,771.5)" />
<use xlink:href="#f1_2g" transform="matrix(10,0,0,10,687.7,771.5)" />
<use xlink:href="#f1_1x" transform="matrix(10,0,0,10,696.3,771.5)" />
<use xlink:href="#f1_2a" transform="matrix(10,0,0,10,703.1,771.5)" />
<use xlink:href="#f1_20" transform="matrix(10,0,0,10,710.4,771.5)" />
<use xlink:href="#f1_22" transform="matrix(10,0,0,10,722.2,771.5)" />
<use xlink:href="#f1_2h" transform="matrix(10,0,0,10,727.3,771.5)" />
<use xlink:href="#f1_2a" transform="matrix(10,0,0,10,734.6,771.5)" />
<use xlink:href="#f1_23" transform="matrix(10,0,0,10,742.3,771.5)" />
<use xlink:href="#f1_25" transform="matrix(10,0,0,10,749.8,771.5)" />
<use xlink:href="#f1_i" transform="matrix(10,0,0,10,754.1,771.5)" />
</g>
<path fill-rule="evenodd" d="M55.2,653.8V641.9h2.4v11.9H55.2Z" class="g1_57" />
<path fill-rule="evenodd" d="M55.2,641.7V628.5h1.1v1.1h1.3v12.1H55.2Z" class="g1_57" />
<path fill-rule="evenodd" d="M56.3,628.7H159.5l.2,.3l-.7,.8v1.1L56.3,631v-2.3Z" class="g1_57" />
<path fill-rule="evenodd" d="M159.7,629l10.1,12.1l.5,.7l-.5,.8l-1,-.8l-.9,.8L158,630.5l.9,-.7l.8,-.8Z" class="g1_57" />
<path fill-rule="evenodd" d="M169.8,642.6l-9.7,12.1l-.4,.4h-.6V654l-.9,-.8l9.7,-12.1l1,.7l.9,.8Z" class="g1_57" />
<path fill-rule="evenodd" d="M159.1,655.1L56.3,654.9H55.2v-1.1h1.1l.2,-1.1l102.6,.2v2.2Z" class="g1_57" />
<path fill-rule="evenodd" d="M465.7,653.6V641.7h2.2v11.9h-2.2Z" class="g1_57" />
<path fill-rule="evenodd" d="M465.7,641.7V628.5h1.1v1.1h1.1v12.1h-2.2Z" class="g1_57" />
<path fill-rule="evenodd" d="M466.8,628.5H569.3l.3,.3l-.9,.8v1.1l-101.9,.1v-2.3Z" class="g1_57" />
<path fill-rule="evenodd" d="M569.6,628.8l9.9,12.1l.6,.8l-.6,.7l-.9,-.7l-.9,.7l-9.9,-12.1l.9,-.7l.9,-.8Z" class="g1_57" />
<path fill-rule="evenodd" d="M579.5,642.4l-9.7,12.1l-.2,.4h-.5v-1.1l-.9,-.8l9.5,-12.1l.9,.8l.9,.7Z" class="g1_57" />
<path fill-rule="evenodd" d="M569.1,654.9H465.7v-1.3h1.1v-1.1l102.3,.2v2.2Z" class="g1_57" />
<g fill="#000000" >
<use xlink:href="#f3_12" transform="matrix(10,0,0,10,61.1,86.1)" />
<use xlink:href="#f3_19" transform="matrix(10,0,0,10,72.1,86.1)" />
<use xlink:href="#f3_1f" transform="matrix(10,0,0,10,78.1,86.1)" />
<use xlink:href="#f3_1d" transform="matrix(10,0,0,10,90.3,86.1)" />
<use xlink:href="#f3_1f" transform="matrix(10,0,0,10,104.6,86.1)" />
<use xlink:href="#f3_1c" transform="matrix(10,0,0,10,116.7,86.1)" />
<use xlink:href="#f3_15" transform="matrix(10,0,0,10,126.5,86.1)" />
<use xlink:href="#f3_13" transform="matrix(10,0,0,10,137.4,86.1)" />
<use xlink:href="#f3_1l" transform="matrix(10,0,0,10,148.7,86.1)" />
<use xlink:href="#f3_1c" transform="matrix(10,0,0,10,159.9,86.1)" />
<use xlink:href="#f3_15" transform="matrix(10,0,0,10,169.7,86.1)" />
<use xlink:href="#f3_1j" transform="matrix(10,0,0,10,180.6,86.1)" />
<use xlink:href="#f3_g" transform="matrix(10,0,0,10,190.7,86.1)" />
<use xlink:href="#f3_1g" transform="matrix(10,0,0,10,201,86.1)" />
<use xlink:href="#f3_1f" transform="matrix(10,0,0,10,211,86.1)" />
<use xlink:href="#f3_1c" transform="matrix(10,0,0,10,223.2,86.1)" />
<use xlink:href="#f3_1p" transform="matrix(10,0,0,10,232.9,86.1)" />
<use xlink:href="#f3_1d" transform="matrix(10,0,0,10,243.6,86.1)" />
<use xlink:href="#f3_15" transform="matrix(10,0,0,10,257.9,86.1)" />
<use xlink:href="#f3_1i" transform="matrix(10,0,0,10,268.8,86.1)" />
<use xlink:href="#f3_1j" transform="matrix(10,0,0,10,280.7,86.1)" />
<use xlink:href="#f3_g" transform="matrix(10,0,0,10,290.7,86.1)" />
<use xlink:href="#f3_13" transform="matrix(10,0,0,10,301,86.1)" />
<use xlink:href="#f3_18" transform="matrix(10,0,0,10,312.3,86.1)" />
<use xlink:href="#f3_15" transform="matrix(10,0,0,10,324.7,86.1)" />
<use xlink:href="#f3_1d" transform="matrix(10,0,0,10,335.7,86.1)" />
<use xlink:href="#f3_19" transform="matrix(10,0,0,10,350,86.1)" />
<use xlink:href="#f3_1j" transform="matrix(10,0,0,10,356.1,86.1)" />
<use xlink:href="#f3_1k" transform="matrix(10,0,0,10,366.1,86.1)" />
<use xlink:href="#f3_1i" transform="matrix(10,0,0,10,376.8,86.1)" />
<use xlink:href="#f3_1p" transform="matrix(10,0,0,10,388.6,86.1)" />
<use xlink:href="#f3_19" transform="matrix(10,0,0,10,404.4,86.1)" />
<use xlink:href="#f3_1e" transform="matrix(10,0,0,10,410.5,86.1)" />
<use xlink:href="#f3_15" transform="matrix(10,0,0,10,426.9,86.1)" />
<use xlink:href="#f3_1m" transform="matrix(10,0,0,10,437.8,86.1)" />
<use xlink:href="#f3_15" transform="matrix(10,0,0,10,448.8,86.1)" />
<use xlink:href="#f3_1i" transform="matrix(10,0,0,10,459.8,86.1)" />
<use xlink:href="#f3_1p" transform="matrix(10,0,0,10,471.6,86.1)" />
<use xlink:href="#f3_14" transform="matrix(10,0,0,10,482.3,86.1)" />
<use xlink:href="#f3_11" transform="matrix(10,0,0,10,494.1,86.1)" />
<use xlink:href="#f3_1p" transform="matrix(10,0,0,10,505.1,86.1)" />
<use xlink:href="#f3_1c" transform="matrix(10,0,0,10,520.9,86.1)" />
<use xlink:href="#f3_19" transform="matrix(10,0,0,10,530.6,86.1)" />
<use xlink:href="#f3_16" transform="matrix(10,0,0,10,536.7,86.1)" />
<use xlink:href="#f3_15" transform="matrix(10,0,0,10,547,86.1)" />
<use xlink:href="#f3_a" transform="matrix(10,0,0,10,563.2,86.1)" />
<use xlink:href="#f3_15" transform="matrix(10,0,0,10,580.5,86.1)" />
<use xlink:href="#f3_1e" transform="matrix(10,0,0,10,591.4,86.1)" />
<use xlink:href="#f3_1m" transform="matrix(10,0,0,10,602.7,86.1)" />
<use xlink:href="#f3_i" transform="matrix(10,0,0,10,613.6,86.1)" />
<use xlink:href="#f3_13" transform="matrix(10,0,0,10,623.9,86.1)" />
<use xlink:href="#f3_18" transform="matrix(10,0,0,10,635.2,86.1)" />
<use xlink:href="#f3_15" transform="matrix(10,0,0,10,647.7,86.1)" />
<use xlink:href="#f3_1d" transform="matrix(10,0,0,10,658.6,86.1)" />
<use xlink:href="#f3_19" transform="matrix(10,0,0,10,672.9,86.1)" />
<use xlink:href="#f3_1j" transform="matrix(10,0,0,10,679,86.1)" />
<use xlink:href="#f3_1k" transform="matrix(10,0,0,10,689,86.1)" />
<use xlink:href="#f3_1i" transform="matrix(10,0,0,10,699.7,86.1)" />
<use xlink:href="#f3_1p" transform="matrix(10,0,0,10,711.5,86.1)" />
</g>
<path d="M55.8,93.2H854.6V70.9H55.8V93.2Z" class="g2_57" />
<defs>
<path d="M271,-20L546,815H337c0,0,-123,0,-185,-33c0,0,-43,-22,-71,-84H52l73,314H729L388,-20Z" 
id="f0_r"
transform="scale(0.001,-0.001)" />

<path d="M191,-18c0,0,-51,0,-87,36c0,0,-37,36,-37,87c0,0,0,52,37,88c0,0,36,37,87,37c0,0,52,0,89,-37c0,0,36,-36,36,-88c0,0,0,-51,-37,-87c0,0,-36,-36,-88,-36Z" 
id="f0_i"
transform="scale(0.001,-0.001)" />

<path d="M37,0V16c0,0,275,327,333,439c0,0,59,113,59,220c0,0,0,79,-49,131c0,0,-49,52,-119,52c0,0,-115,0,-178,-115l-28,9c0,0,40,143,123,212c0,0,82,69,189,69c0,0,77,0,141,-36c0,0,63,-36,99,-98c0,0,36,-63,36,-117c0,0,0,-99,-56,-202c0,0,-75,-138,-329,-384H477c0,0,81,0,105,6c0,0,24,7,40,23c0,0,15,16,41,67h27L633,0Z" 
id="f0_m"
transform="scale(0.001,-0.001)" />

<path d="M610,-21c0,0,-162,0,-287,63c0,0,-126,65,-194,187c0,0,-68,121,-68,258c0,0,0,145,75,275c0,0,76,129,205,201c0,0,128,71,273,71c0,0,107,0,225,-46c0,0,69,-27,88,-27c0,0,24,0,41,18c0,0,18,17,23,55h29V683H991c0,0,-33,138,-122,211c0,0,-90,73,-203,73c0,0,-95,0,-174,-54c0,0,-79,-55,-116,-143c0,0,-47,-112,-47,-250c0,0,0,-135,34,-247c0,0,35,-111,108,-168c0,0,73,-57,189,-57c0,0,96,0,175,42c0,0,80,41,168,144V146c0,0,-85,-89,-178,-129c0,0,-92,-38,-215,-38Z" 
id="f0_13"
transform="scale(0.001,-0.001)" />

<path d="M458,424c0,0,0,120,-13,165c0,0,-13,44,-40,67c0,0,-16,14,-42,14c0,0,-39,0,-63,-38c0,0,-44,-66,-44,-182V424ZM358,-20c0,0,-155,0,-235,119c0,0,-64,96,-64,239c0,0,0,174,94,277c0,0,94,104,221,104c0,0,106,0,184,-87c0,0,78,-87,84,-257H259c0,0,7,-139,74,-220c0,0,51,-62,124,-62c0,0,45,0,81,25c0,0,37,25,79,90l25,-16C642,192,585,76,517,28c0,0,-69,-48,-159,-48Z" 
id="f0_21"
transform="scale(0.001,-0.001)" />

<path d="M32,0V26c0,0,46,2,69,27c0,0,14,18,14,92V867c0,0,0,74,-17,94c0,0,-17,21,-66,24v27H325V145c0,0,0,-74,17,-95c0,0,17,-21,68,-24V0Z" 
id="f0_28"
transform="scale(0.001,-0.001)" />

<path d="M304,-20c0,0,-59,0,-105,36c0,0,-45,36,-61,84c0,0,-16,49,-16,169V546c0,0,0,79,-14,98c0,0,-15,20,-61,26v27H331V221c0,0,0,-74,8,-96c0,0,7,-21,22,-33c0,0,15,-11,35,-11c0,0,27,0,49,14c0,0,30,20,71,78V546c0,0,0,79,-14,98c0,0,-15,20,-61,26v27H726V152c0,0,0,-81,14,-100c0,0,15,-20,61,-26V0H516V93C516,93,466,34,416,7c0,0,-50,-27,-112,-27Z" 
id="f0_2h"
transform="scale(0.001,-0.001)" />

<path d="M381,31c0,0,33,0,56,19c0,0,29,25,38,71c0,0,15,71,15,286c0,0,0,127,-14,174c0,0,-14,48,-42,69c0,0,-19,16,-50,16c0,0,-38,0,-65,-29c0,0,-27,-29,-36,-113c0,0,-8,-85,-8,-235c0,0,0,-80,10,-150c0,0,8,-53,35,-80c0,0,27,-28,61,-28Zm2,-51c0,0,-157,0,-242,110c0,0,-85,110,-85,256c0,0,0,150,87,261c0,0,86,112,238,112c0,0,90,0,169,-47c0,0,78,-47,119,-134c0,0,40,-86,40,-189c0,0,0,-149,-75,-249c0,0,-91,-120,-251,-120Z" 
id="f0_2b"
transform="scale(0.001,-0.001)" />

<path d="M312,-20c0,0,-50,0,-134,30c0,0,-22,9,-30,9c0,0,-25,0,-41,-37H82L70,232H97c0,0,33,-99,91,-148c0,0,59,-49,111,-49c0,0,35,0,58,22c0,0,22,22,22,54c0,0,0,35,-22,61c0,0,-22,27,-100,80c0,0,-114,79,-147,120c0,0,-49,62,-49,136c0,0,0,80,55,145c0,0,56,66,161,66c0,0,56,0,109,-28c0,0,20,-11,33,-11c0,0,13,0,21,5c0,0,9,6,27,32h26L504,479H477c0,0,-45,106,-94,145c0,0,-48,39,-96,39c0,0,-31,0,-52,-21c0,0,-22,-20,-22,-47c0,0,0,-20,15,-39c0,0,24,-30,133,-105c0,0,110,-74,144,-126c0,0,35,-52,35,-116c0,0,0,-58,-29,-114C511,95,482,39,429,9c0,0,-53,-29,-117,-29Z" 
id="f0_2f"
transform="scale(0.001,-0.001)" />

<path d="M548,-21c0,0,-251,0,-389,185C159,164,56,303,56,490c0,0,0,152,68,278c0,0,67,127,186,197c0,0,119,69,260,69c0,0,109,0,216,-53c0,0,31,-17,44,-17c0,0,20,0,35,14c0,0,20,21,28,56h26L943,690H919c0,0,-46,155,-131,224c0,0,-86,68,-206,68c0,0,-100,0,-181,-51c0,0,-81,-52,-128,-163c0,0,-46,-112,-46,-279c0,0,0,-137,44,-238c0,0,44,-101,132,-154c0,0,88,-54,201,-54c0,0,99,0,174,42c0,0,75,42,165,167l23,-14C966,238,890,103,789,40c0,0,-102,-61,-241,-61Z" 
id="f1_13"
transform="scale(0.001,-0.001)" />

<path d="M479,469c0,0,-4,66,-16,93c0,0,-18,42,-55,65c0,0,-37,24,-78,24c0,0,-62,0,-111,-48c0,0,-48,-48,-57,-134ZM355,-20c0,0,-123,0,-211,95c0,0,-87,96,-87,258c0,0,0,175,90,273c0,0,89,98,225,98c0,0,115,0,189,-76c0,0,74,-75,74,-202H162c0,0,0,-152,74,-239c0,0,75,-86,175,-86c0,0,67,0,117,36c0,0,50,37,83,127l24,-15c0,0,-16,-102,-91,-186c0,0,-76,-83,-189,-83Z" 
id="f1_21"
transform="scale(0.001,-0.001)" />

<path d="M58,0V26c0,0,47,0,64,10c0,0,18,10,28,32c0,0,9,23,9,86V775c0,0,0,116,-5,142c0,0,-5,27,-17,37c0,0,-11,9,-29,9c0,0,-20,0,-49,-12L46,978l204,83h34V154c0,0,0,-64,9,-85c0,0,9,-21,29,-32c0,0,19,-11,72,-11V0Z" 
id="f1_28"
transform="scale(0.001,-0.001)" />

<path d="M292,-20c0,0,-57,0,-100,33c0,0,-42,33,-58,85c0,0,-17,52,-17,148V551c0,0,0,49,-10,68c0,0,-11,18,-31,29c0,0,-19,9,-68,9c-2,0,-4,0,-6,0v26H242V226c0,0,0,-95,33,-125c0,0,33,-30,80,-30c0,0,32,0,73,21c0,0,40,20,96,76V555c0,0,0,59,-21,80c0,0,-22,21,-89,22v26H647V269c0,0,0,-119,6,-145c0,0,6,-27,18,-37c0,0,12,-11,29,-11c0,0,23,0,52,13L763,63L558,-20H524V124C524,124,436,29,390,4c0,0,-47,-24,-98,-24Z" 
id="f1_2h"
transform="scale(0.001,-0.001)" />

<path d="M406,32c0,0,72,0,119,60c0,0,47,59,47,205c0,0,0,181,-78,286c0,0,-53,71,-135,71c0,0,-40,0,-79,-23c0,0,-40,-24,-65,-83c0,0,-24,-58,-24,-151c0,0,0,-149,59,-257c0,0,59,-108,156,-108ZM374,-20c0,0,-154,0,-245,122c0,0,-77,104,-77,233c0,0,0,94,46,187c0,0,47,92,123,137c0,0,76,44,161,44c0,0,155,0,249,-118c0,0,80,-100,80,-231c0,0,0,-91,-44,-185C667,169,623,75,546,27c0,0,-77,-47,-172,-47Z" 
id="f1_2b"
transform="scale(0.001,-0.001)" />

<path d="M312,-20c0,0,-62,0,-143,22c0,0,-25,8,-40,8c0,0,-18,0,-27,-19H77V234h25c0,0,21,-105,80,-158c0,0,59,-53,132,-53c0,0,51,0,84,31c0,0,32,30,32,72c0,0,0,52,-36,87c0,0,-36,35,-144,88c0,0,-109,54,-142,97c0,0,-34,43,-34,107c0,0,0,85,58,141c0,0,58,57,150,57c0,0,40,0,97,-17c0,0,38,-11,51,-11c0,0,12,0,19,5c0,0,7,5,15,23h25V470H464c0,0,-28,110,-72,149c0,0,-45,40,-113,40c0,0,-53,0,-85,-28c0,0,-32,-27,-32,-61c0,0,0,-41,24,-71c0,0,23,-31,94,-65L389,381c0,0,152,-74,152,-194c0,0,0,-94,-71,-151c0,0,-70,-56,-158,-56Z" 
id="f1_2f"
transform="scale(0.001,-0.001)" />

<path d="M342,-20c0,0,-116,0,-203,97c0,0,-86,98,-86,264c0,0,0,161,96,261c0,0,95,101,230,101c0,0,100,0,165,-53c0,0,65,-54,65,-111c0,0,0,-29,-18,-46c0,0,-18,-18,-51,-18c0,0,-44,0,-66,29c0,0,-13,15,-17,59c0,0,-4,45,-30,68c0,0,-26,22,-73,22c0,0,-74,0,-120,-55c0,0,-60,-73,-60,-193c0,0,0,-122,60,-216c0,0,60,-93,162,-93c0,0,73,0,131,49c0,0,41,35,80,126l22,-10C629,261,601,125,521,52c0,0,-81,-72,-179,-72Z" 
id="f1_1z"
transform="scale(0.001,-0.001)" />

<path d="M17,0V26c0,0,52,0,77,17c0,0,19,12,26,38c0,0,4,13,4,73V419c0,0,0,119,-5,142c0,0,-4,23,-17,33c0,0,-13,11,-33,11c0,0,-23,0,-52,-11l-7,26l207,83h31V549c0,0,86,154,176,154c0,0,41,0,68,-25c0,0,27,-25,27,-58c0,0,0,-29,-20,-49c0,0,-19,-20,-46,-20c0,0,-26,0,-58,25c0,0,-33,26,-48,26c0,0,-14,0,-29,-15c0,0,-34,-30,-70,-101V159c0,0,0,-56,15,-85c0,0,9,-20,34,-34c0,0,24,-14,71,-14V0Z" 
id="f1_2e"
transform="scale(0.001,-0.001)" />

<path d="M25,0V26c0,0,27,4,47,19c0,0,29,22,96,111L311,346L182,535c0,0,-55,81,-86,102c0,0,-30,20,-75,20v26H341V657c0,0,-30,0,-42,-10c0,0,-13,-11,-13,-28c0,0,0,-19,27,-56c0,0,8,-12,25,-37l48,-78l56,77c0,0,55,74,55,94c0,0,0,16,0,27c0,0,0,11,0,11v26H674V657c0,0,-37,-2,-64,-20c0,0,-37,-26,-100,-111L416,402L587,156c0,0,63,-91,89,-109c0,0,27,-18,70,-21V0H423V26c0,0,34,0,53,15c0,0,14,11,14,28c0,0,0,17,-48,87L341,302L232,157c0,0,-50,-69,-50,-82c0,0,0,-18,17,-32c0,0,17,-15,50,-17V0Z" 
id="f1_2k"
transform="scale(0.001,-0.001)" />

<path d="M55,0V26c0,0,50,0,67,10c0,0,17,10,27,32c0,0,10,23,10,86V418c0,0,0,111,-6,144c0,0,-6,24,-17,33c0,0,-11,10,-30,10c0,0,-21,0,-51,-11L45,620l206,83h33V154c0,0,0,-64,9,-85c0,0,9,-22,27,-32c0,0,19,-11,67,-11V0ZM222,909c0,0,-32,0,-54,23c0,0,-22,22,-22,53c0,0,0,32,22,54c0,0,22,22,54,22c0,0,31,0,53,-22c0,0,22,-22,22,-54c0,0,0,-31,-22,-53c0,0,-22,-23,-53,-23Z" 
id="f1_25"
transform="scale(0.001,-0.001)" />

<path d="M376,-20L133,556c0,0,-17,41,-31,58c0,0,-15,18,-39,30c0,0,-12,7,-50,13v26H335V657H314c0,0,-29,0,-44,-14c0,0,-16,-14,-15,-38c0,0,-1,-26,15,-62L429,165L588,557c0,0,17,42,17,64c0,0,0,10,-6,17c0,0,-8,11,-21,15c0,0,-13,4,-52,4v26H750V657c0,0,-39,-3,-54,-16c0,0,-26,-23,-47,-76L409,-20Z" 
id="f1_2i"
transform="scale(0.001,-0.001)" />

<path d="M145,-328c0,0,-44,0,-73,25c0,0,-28,25,-28,58c0,0,0,31,21,50c0,0,20,19,56,19c0,0,25,0,67,-16c0,0,30,-11,38,-11c0,0,22,0,49,23c0,0,26,23,53,89L376,28L131,542c0,0,-11,24,-36,58c0,0,-19,27,-30,36c0,0,-18,12,-56,21v26H328V657H312c0,0,-33,0,-50,-15c0,0,-17,-14,-17,-36c0,0,0,-30,25,-81L437,179L589,557c0,0,12,31,12,62c0,0,0,13,-5,20c0,0,-6,8,-19,13c0,0,-12,5,-44,5v26H754V657c0,0,-27,-3,-42,-12c0,0,-15,-9,-33,-34c0,0,-7,-10,-25,-58L376,-128c0,0,-40,-99,-105,-150c0,0,-66,-50,-126,-50Z" 
id="f1_2l"
transform="scale(0.001,-0.001)" />

<path d="M21,0V26H35c0,0,53,0,71,27c0,0,18,27,18,101V408c0,0,0,123,-5,150c0,0,-6,27,-17,37c0,0,-12,10,-31,10c0,0,-21,0,-50,-11L10,620l206,83h32V558c0,0,120,145,229,145c0,0,56,0,96,-28c0,0,40,-28,64,-92c0,0,16,-45,16,-137V154c0,0,0,-65,11,-88c0,0,8,-19,26,-29c0,0,18,-11,68,-11V0H419V26h14c0,0,47,0,66,15c0,0,20,15,27,43c0,0,3,11,3,70V434c0,0,0,93,-24,135c0,0,-24,42,-81,42c0,0,-88,0,-176,-97V154c0,0,0,-69,9,-86c0,0,10,-21,28,-31c0,0,19,-11,75,-11V0Z" 
id="f1_2a"
transform="scale(0.001,-0.001)" />

<path d="M398,24c0,0,74,0,120,58c0,0,61,76,61,214c0,0,0,156,-69,240c0,0,-47,59,-113,59c0,0,-36,0,-71,-18c0,0,-27,-14,-88,-81V242c0,0,0,-83,6,-109c0,0,11,-43,51,-76c0,0,41,-33,103,-33ZM-4,-326v27H15c5,0,42,0,69,16c0,0,14,8,22,26c0,0,7,19,7,94V481c0,0,0,67,-6,85c0,0,-5,18,-18,27c0,0,-13,9,-36,9c0,0,-18,0,-45,-10L0,615l209,85h29V540c0,0,53,91,106,127c0,0,53,36,112,36c0,0,103,0,172,-80c0,0,84,-99,84,-257c0,0,0,-176,-102,-292c0,0,-83,-94,-210,-94c0,0,-55,0,-95,16c0,0,-30,10,-67,44V-167c0,0,0,-71,8,-90c0,0,9,-20,30,-31c0,0,21,-11,77,-11v-27Z" 
id="f1_2c"
transform="scale(0.001,-0.001)" />

<path d="M286,72c0,0,57,0,149,75V407c0,0,-113,-45,-145,-64c0,0,-59,-32,-85,-68c0,0,-25,-36,-25,-78c0,0,0,-54,32,-89c0,0,32,-36,74,-36ZM217,-13c0,0,-71,0,-116,48c0,0,-46,48,-46,127c0,0,0,50,22,87c0,0,31,50,106,95c0,0,76,45,252,109v26c0,0,0,102,-32,140c0,0,-32,38,-94,38c0,0,-47,0,-74,-25c0,0,-28,-25,-28,-58l1,-43c0,0,0,-34,-17,-53c0,0,-18,-18,-47,-18c0,0,-28,0,-45,19c0,0,-18,19,-18,53c0,0,0,64,66,117c0,0,65,54,184,54c0,0,91,0,149,-31c0,0,44,-23,65,-72c0,0,13,-32,13,-131V238c0,0,0,-98,4,-120c0,0,4,-22,12,-29c0,0,9,-8,20,-8c0,0,12,0,21,5c0,0,16,10,61,55V99C676,99,592,-12,516,-12c0,0,-37,0,-58,24c0,0,-22,26,-23,86C435,98,330,17,303,5c0,0,-40,-18,-86,-18Z" 
id="f1_1x"
transform="scale(0.001,-0.001)" />

<path d="M255,-10c0,0,-35,0,-68,18c0,0,-32,19,-48,55c0,0,-16,35,-16,109V632H15v24c0,0,41,16,84,56c0,0,43,39,77,92c0,0,17,29,48,104h23V683H407V632H247V188c0,0,0,-66,19,-90c0,0,19,-23,49,-23c0,0,24,0,47,16c0,0,23,15,36,45h29c0,0,-26,-73,-74,-110c0,0,-47,-36,-98,-36Z" 
id="f1_2g"
transform="scale(0.001,-0.001)" />

<path d="M399,62c0,0,68,0,131,68V481c0,0,-5,51,-27,93c0,0,-22,42,-59,63c0,0,-37,21,-72,21c0,0,-65,0,-117,-59c0,0,-67,-77,-67,-226c0,0,0,-151,65,-231c0,0,66,-80,146,-80ZM330,-20c0,0,-112,0,-196,93c0,0,-83,94,-83,240c0,0,0,147,92,269c0,0,93,122,238,122c0,0,90,0,149,-58V773c0,0,0,117,-6,144c0,0,-5,27,-17,37c0,0,-12,9,-30,9c0,0,-20,0,-52,-12l-9,27l204,83h33V270c0,0,0,-120,6,-146c0,0,5,-27,18,-37c0,0,12,-11,28,-11c0,0,21,0,54,13l9,-26L564,-20H530V78C530,78,480,25,432,2c0,0,-47,-22,-102,-22Z" 
id="f1_20"
transform="scale(0.001,-0.001)" />

<path d="M20,0V26c0,0,45,0,71,15c0,0,15,7,24,28c0,0,9,21,9,85V773c0,0,0,117,-5,144c0,0,-6,27,-17,37c0,0,-12,9,-31,9c0,0,-16,0,-51,-12L10,978l204,83h34V561c0,0,83,91,131,116c0,0,49,26,97,26c0,0,58,0,100,-32c0,0,42,-32,62,-101c0,0,14,-47,14,-174V154c0,0,0,-65,11,-89c0,0,7,-18,25,-28c0,0,18,-11,66,-11V0H418V26h15c0,0,48,0,67,15c0,0,18,15,26,43c0,0,2,12,2,70V396c0,0,0,112,-12,147c0,0,-11,35,-36,53c0,0,-26,17,-61,17c0,0,-37,0,-76,-19c0,0,-40,-20,-95,-79V154c0,0,0,-70,8,-87c0,0,8,-17,29,-29c0,0,22,-12,74,-12V0Z" 
id="f1_24"
transform="scale(0.001,-0.001)" />

<path d="M23,0V26c0,0,47,0,66,10c0,0,19,11,28,33c0,0,10,22,10,85V416c0,0,0,112,-7,145c0,0,-5,25,-16,34c0,0,-11,10,-31,10c0,0,-21,0,-50,-11L12,620l207,83h32V557c0,0,75,75,88,86c0,0,34,29,72,44c0,0,39,16,77,16c0,0,64,0,110,-37c0,0,47,-38,62,-109c0,0,77,90,130,118c0,0,53,28,109,28c0,0,54,0,96,-28c0,0,42,-28,67,-91c0,0,16,-43,16,-136V154c0,0,0,-64,10,-88c0,0,8,-16,28,-28c0,0,20,-12,65,-12V0H844V26h14c0,0,44,0,69,18c0,0,17,12,24,38c0,0,3,13,3,72V448c0,0,0,83,-20,117c0,0,-29,48,-93,48c0,0,-39,0,-79,-20c0,0,-40,-19,-97,-73l-1,-8l2,-32V154c0,0,0,-70,8,-87c0,0,7,-17,29,-29c0,0,21,-12,73,-12V0H431V26c0,0,57,0,78,14c0,0,21,13,29,40c0,0,4,13,4,74V448c0,0,0,83,-25,120c0,0,-33,48,-91,48c0,0,-40,0,-80,-22c0,0,-61,-33,-95,-74V154c0,0,0,-67,10,-87c0,0,9,-20,27,-30c0,0,18,-11,74,-11V0Z" 
id="f1_29"
transform="scale(0.001,-0.001)" />

<path d="M397,34c0,0,67,0,126,75c0,0,58,74,58,216c0,0,0,131,-58,201c0,0,-59,70,-133,70c0,0,-39,0,-79,-20c0,0,-29,-14,-75,-59V109c0,0,37,-37,78,-56c0,0,40,-19,83,-19ZM358,-20c0,0,-59,0,-121,21c0,0,-61,22,-126,65V773c0,0,0,117,-5,144c0,0,-6,27,-18,37c0,0,-12,9,-29,9c0,0,-21,0,-53,-12l-9,27l205,83h34V564c0,0,98,139,213,139c0,0,105,0,183,-90c0,0,78,-90,78,-245c0,0,0,-182,-121,-293c0,0,-103,-95,-231,-95Z" 
id="f1_1y"
transform="scale(0.001,-0.001)" />

<path d="M411,-239c0,0,134,0,198,48c0,0,64,47,64,100c0,0,0,39,-38,55c0,0,-39,16,-154,19c0,0,-167,5,-258,17c0,0,-35,-37,-53,-70c0,0,-17,-32,-17,-60c0,0,0,-36,43,-62c0,0,74,-47,215,-47ZM380,257c0,0,56,0,93,43c0,0,36,42,36,133c0,0,0,118,-51,185c0,0,-38,49,-98,49c0,0,-55,0,-92,-44c0,0,-37,-44,-37,-135c0,0,0,-117,50,-182c0,0,39,-49,99,-49ZM345,-328c0,0,-144,0,-243,64c0,0,-56,38,-56,78c0,0,0,18,8,36c0,0,13,27,52,76c0,0,5,7,76,80c0,0,-39,23,-55,41c0,0,-16,19,-16,42c0,0,0,26,22,61c0,0,21,35,98,100c0,0,-63,30,-97,85c0,0,-33,55,-33,121c0,0,0,101,76,174c0,0,77,73,196,73c0,0,98,0,170,-48H688c0,0,32,0,37,-2c0,0,6,-2,8,-6c0,0,4,-7,4,-24c0,0,0,-20,-4,-27c0,0,-2,-4,-7,-6c0,0,-6,-2,-38,-2H599c0,0,41,-54,41,-137c0,0,0,-96,-73,-163c0,0,-73,-68,-196,-68c0,0,-51,0,-104,15c0,0,-33,-28,-44,-49c0,0,-12,-22,-12,-37c0,0,0,-12,13,-24c0,0,12,-12,48,-17c0,0,21,-4,104,-6c0,0,154,-4,199,-11c0,0,70,-10,111,-51c0,0,42,-41,42,-102c0,0,0,-84,-79,-158c0,0,-117,-108,-304,-108Z" 
id="f1_23"
transform="scale(0.001,-0.001)" />

<path d="M13,0V26c0,0,52,0,78,13c0,0,16,8,24,25c0,0,11,25,11,86V773c0,0,0,118,-5,145c0,0,-5,26,-17,36c0,0,-12,10,-32,10c0,0,-15,0,-47,-13L13,978l203,83h34V381L424,540c0,0,55,50,64,64c0,0,6,9,6,18c0,0,0,15,-12,26c0,0,-13,11,-41,12v23H738V660c0,0,-61,-2,-102,-19c0,0,-40,-17,-89,-62L372,418L547,196c0,0,73,-92,98,-117c0,0,36,-35,63,-45c0,0,18,-8,65,-8V0H441V26c0,0,28,1,38,9c0,0,10,8,10,22c0,0,0,17,-29,56L250,381V154c0,0,0,-67,10,-88c0,0,9,-21,26,-30c0,0,17,-9,75,-10V0Z" 
id="f1_27"
transform="scale(0.001,-0.001)" />

<path d="M191,-20c0,0,-34,0,-58,24c0,0,-24,24,-24,58c0,0,0,35,24,59c0,0,24,24,58,24c0,0,35,0,59,-24c0,0,24,-25,24,-59c0,0,0,-34,-24,-58c0,0,-25,-24,-59,-24Z" 
id="f1_i"
transform="scale(0.001,-0.001)" />

<path d="M38,0V27H74c0,0,63,0,91,37c0,0,18,24,18,115V833c0,0,0,77,-10,102c0,0,-7,18,-30,32c0,0,-33,18,-69,18H38v27H470V985H434c0,0,-62,0,-90,-37c0,0,-18,-24,-18,-115V179c0,0,0,-77,9,-102c0,0,8,-18,31,-32c0,0,32,-18,68,-18h36V0Z" 
id="f1_19"
transform="scale(0.001,-0.001)" />

<path d="M63,0V26H93c0,0,30,0,54,15c0,0,25,15,34,41c0,0,10,25,10,99V630H58v53H191v45c0,0,0,102,33,173c0,0,32,71,100,114c0,0,68,44,152,44c0,0,79,0,145,-51c0,0,43,-33,43,-75c0,0,0,-22,-19,-42c0,0,-20,-20,-42,-20c0,0,-17,0,-36,12c0,0,-19,13,-47,53c0,0,-28,41,-51,55c0,0,-23,14,-51,14c0,0,-35,0,-58,-18c0,0,-24,-18,-35,-57c0,0,-10,-38,-10,-197V683H491V630H315V181c0,0,0,-96,21,-122c0,0,27,-33,73,-33h62V0Z" 
id="f1_22"
transform="scale(0.001,-0.001)" />

<path d="M336,-20L117,554c0,0,-21,55,-42,74c0,0,-21,19,-66,29v26H296V657c0,0,-40,-3,-52,-14c0,0,-13,-12,-13,-33c0,0,0,-23,13,-56L390,162L537,481L498,581c0,0,-18,46,-47,63c0,0,-17,11,-61,13v26H716V657c0,0,-54,-2,-77,-20c0,0,-15,-12,-15,-39c0,0,0,-15,6,-30L785,177L929,554c0,0,15,40,15,65c0,0,0,14,-15,25c0,0,-14,12,-57,13v26h216V657c0,0,-65,-10,-95,-89L764,-20H733L563,415L363,-20Z" 
id="f1_2j"
transform="scale(0.001,-0.001)" />

<path d="M363,28c0,0,75,0,126,63c0,0,51,62,51,197c0,0,0,85,-24,149c0,0,-24,63,-86,139c0,0,-51,-17,-89,-17c0,0,-44,0,-63,14c0,0,-18,13,-18,29c0,0,0,14,14,25c0,0,14,11,46,11c0,0,36,0,110,-19c0,0,53,104,53,196c0,0,0,94,-47,146c0,0,-46,51,-115,51c0,0,-86,0,-134,-73c0,0,-31,-49,-31,-156V118c0,0,72,-51,126,-73c0,0,40,-17,81,-17ZM0,-328c0,0,20,92,24,126c0,0,10,104,10,152V712c0,0,0,133,26,198c0,0,27,64,96,108c0,0,69,43,165,43c0,0,133,0,213,-72c0,0,80,-71,80,-170c0,0,0,-63,-33,-120c0,0,-32,-57,-100,-99c0,0,200,-95,200,-297c0,0,0,-89,-42,-167C639,136,598,59,524,18c0,0,-73,-39,-150,-39c0,0,-50,0,-99,17c0,0,-49,16,-119,63V-66c0,0,0,-121,-30,-262Z" 
id="f2_1y"
transform="scale(0.001,-0.001)" />

<path d="M62,286V399H448V286Z" 
id="f1_h"
transform="scale(0.001,-0.001)" />

<path d="M473,53c0,0,173,0,287,121c0,0,114,122,114,330c0,0,0,210,-114,330c0,0,-114,121,-293,121c0,0,-67,0,-153,-21V74c0,0,95,-21,159,-21ZM26,0V27H64c0,0,64,0,91,41c0,0,16,25,16,111V833c0,0,0,95,-21,119c0,0,-29,33,-86,33H26v27H438c0,0,226,0,345,-51c0,0,118,-52,190,-172c0,0,72,-120,72,-278c0,0,0,-211,-129,-353C916,158,773,0,478,0Z" 
id="f1_14"
transform="scale(0.001,-0.001)" />

<path d="M17,-328c0,0,-67,0,-100,24c0,0,-33,25,-33,51c0,0,0,26,18,45c0,0,18,18,43,18c0,0,19,0,40,-9c0,0,12,-6,48,-38c0,0,37,-33,61,-33c0,0,18,0,35,14c0,0,17,14,25,46c0,0,8,33,8,141V416c0,0,0,113,-6,145c0,0,-6,25,-17,34c0,0,-11,10,-31,10c0,0,-21,0,-51,-11L47,620l207,83h32V16c0,0,0,-175,-74,-260c0,0,-75,-84,-195,-84ZM223,908c0,0,-32,0,-54,23c0,0,-22,22,-22,53c0,0,0,32,22,55c0,0,22,22,54,22c0,0,32,0,54,-22c0,0,22,-23,22,-55c0,0,0,-31,-22,-53c0,0,-22,-23,-54,-23Z" 
id="f1_26"
transform="scale(0.001,-0.001)" />

<path d="M197,0V27c0,0,71,2,92,13c0,0,21,10,29,29c0,0,9,18,9,109V725c0,0,0,110,-8,141c0,0,-5,24,-19,35c0,0,-14,11,-33,11c0,0,-28,0,-77,-23l-11,23l246,121h25V178c0,0,0,-85,7,-106c0,0,7,-21,29,-32c0,0,23,-11,91,-13V0Z" 
id="f1_l"
transform="scale(0.001,-0.001)" />

<path d="M452,373V875L97,373ZM452,0V267H23v95l470,671h82V373H711V267H575V0Z" 
id="f1_o"
transform="scale(0.001,-0.001)" />

<path d="M254,-20c0,0,-128,0,-187,41C67,21,24,51,24,98c0,0,0,34,25,59c0,0,25,24,57,24c0,0,25,0,46,-11c0,0,12,-6,85,-65c0,0,73,-59,136,-59c0,0,56,0,95,44c0,0,40,43,40,110c0,0,0,102,-72,189c0,0,-72,86,-210,118v27c0,0,85,24,118,46c0,0,33,21,57,64c0,0,24,44,24,89c0,0,0,61,-46,106c0,0,-45,44,-112,44c0,0,-105,0,-178,-110l-27,9c0,0,53,125,137,188c0,0,84,63,187,63c0,0,105,0,174,-65c0,0,68,-64,68,-150c0,0,0,-56,-32,-107c0,0,-32,-52,-100,-92c0,0,88,-42,134,-105c0,0,46,-62,46,-156c0,0,0,-158,-115,-269C561,89,447,-20,254,-20Z" 
id="f0_n"
transform="scale(0.001,-0.001)" />

<path d="M635,-22c0,0,-144,0,-239,38c0,0,-96,39,-168,102c0,0,-73,64,-114,144c0,0,-52,103,-52,230c0,0,0,228,160,385c0,0,161,157,404,157c0,0,75,0,136,-12c0,0,33,-6,106,-34c0,0,74,-28,87,-28c0,0,21,0,39,16c0,0,18,15,33,58h27V678h-27c0,0,-50,146,-150,222c0,0,-100,76,-219,76c0,0,-113,0,-189,-64c0,0,-75,-64,-107,-178c0,0,-31,-114,-31,-234c0,0,0,-145,34,-255c0,0,35,-110,111,-161c0,0,76,-52,181,-52c0,0,37,0,75,8c0,0,39,8,79,23V274c0,0,0,60,-8,77c0,0,-9,18,-34,32c0,0,-26,14,-63,14H680v27h493V397c0,0,-56,-4,-78,-15c0,0,-22,-12,-34,-39c0,0,-6,-14,-6,-69L1054,63c0,0,-97,-43,-201,-64c0,0,-105,-21,-218,-21Z" 
id="f0_17"
transform="scale(0.001,-0.001)" />

<path d="M182,-328c0,0,-62,0,-101,35c0,0,-38,35,-38,85c0,0,0,44,26,72c0,0,27,28,66,28c0,0,37,0,60,-23c0,0,22,-24,23,-74c0,0,1,-29,7,-37c0,0,6,-8,17,-8c0,0,18,0,38,21c0,0,30,32,70,144l22,57L146,488c0,0,-50,118,-74,144c0,0,-25,27,-59,38v27H384V670c0,0,-36,-2,-51,-14c0,0,-15,-13,-15,-31c0,0,0,-28,37,-112L475,239l81,212c0,0,44,113,44,157c0,0,0,27,-18,44c0,0,-18,16,-65,18v27H750V670c0,0,-34,-4,-56,-27c0,0,-22,-22,-72,-155L422,-27c0,0,-75,-194,-111,-239c0,0,-52,-62,-129,-62Z" 
id="f0_2l"
transform="scale(0.001,-0.001)" />

<path d="M365,-20c0,0,-139,0,-223,105c0,0,-83,105,-83,253c0,0,0,142,76,250c0,0,92,131,253,131c0,0,108,0,172,-55c0,0,63,-54,63,-121c0,0,0,-43,-25,-68c0,0,-26,-25,-68,-25c0,0,-44,0,-73,29c0,0,-28,29,-35,104c0,0,-5,47,-22,65c0,0,-17,19,-40,19c0,0,-36,0,-61,-38c0,0,-39,-58,-39,-176c0,0,0,-99,31,-188c0,0,32,-90,86,-134c0,0,41,-32,97,-32c0,0,36,0,69,17c0,0,33,17,78,65l23,-18C644,163,595,70,521,25c0,0,-73,-45,-156,-45Z" 
id="f0_1z"
transform="scale(0.001,-0.001)" />

<path d="M393,-277c0,0,104,0,164,28c0,0,59,27,59,77c0,0,0,19,-11,32c0,0,-20,22,-61,30c0,0,-41,8,-218,8c0,0,-76,0,-101,-12c0,0,-42,-23,-42,-63c0,0,0,-38,44,-69c0,0,44,-31,166,-31ZM366,253c0,0,45,0,75,41c0,0,30,41,30,160c0,0,0,134,-33,183c0,0,-24,36,-68,36c0,0,-43,0,-73,-44c0,0,-30,-44,-30,-181c0,0,0,-112,29,-153c0,0,30,-42,70,-42Zm8,-581c0,0,-94,0,-171,18c0,0,-78,18,-112,51c0,0,-33,32,-33,68c0,0,0,34,25,61c0,0,26,28,96,46c0,0,-97,48,-97,132c0,0,0,51,40,100c0,0,39,48,125,84c0,0,-100,36,-145,96c0,0,-44,60,-44,138c0,0,0,103,83,178c0,0,84,75,215,75c0,0,70,0,144,-30H734V607H601c0,0,37,-36,51,-66c0,0,18,-40,18,-85c0,0,0,-74,-42,-129c0,0,-41,-55,-112,-86c0,0,-72,-31,-127,-31c0,0,-5,0,-90,4c0,0,-33,0,-56,-22c0,0,-23,-22,-23,-52c0,0,0,-27,21,-44c0,0,20,-17,66,-17l130,1c0,0,157,0,216,-34c0,0,84,-47,84,-146c0,0,0,-64,-39,-115c0,0,-38,-52,-102,-77c0,0,-96,-36,-222,-36Z" 
id="f0_23"
transform="scale(0.001,-0.001)" />

<path d="M52,0V26c0,0,44,5,62,29c0,0,13,16,13,97V546c0,0,0,79,-14,98c0,0,-15,20,-61,26v27H336V607c0,0,54,59,104,85c0,0,49,27,106,27c0,0,68,0,113,-38c0,0,44,-38,59,-94c0,0,12,-42,12,-163V152c0,0,0,-81,15,-101c0,0,14,-19,61,-25V0H452V26c0,0,40,6,57,33c0,0,12,19,12,93V462c0,0,0,86,-7,109c0,0,-6,22,-22,35c0,0,-16,12,-36,12c0,0,-64,0,-120,-92V152c0,0,0,-79,15,-100c0,0,15,-20,55,-26V0Z" 
id="f0_2a"
transform="scale(0.001,-0.001)" />

<path d="M253,0V27h36c0,0,64,0,91,39c0,0,16,24,16,109V948H274c0,0,-71,0,-100,-10c0,0,-39,-14,-67,-54c0,0,-27,-41,-33,-109H46l12,237H883L894,775H865c0,0,-8,62,-22,89c0,0,-23,43,-61,64c0,0,-39,20,-101,20H539V175c0,0,0,-93,20,-116c0,0,28,-32,87,-32h36V0Z" 
id="f1_1k"
transform="scale(0.001,-0.001)" />

<path d="M82,-253v33c0,0,77,25,119,78c0,0,42,54,42,114c0,0,0,14,-7,23c0,0,-5,6,-11,6c0,0,-8,0,-35,-14c0,0,-14,-7,-28,-7c0,0,-37,0,-58,21C104,1,82,23,82,61c0,0,0,36,28,62c0,0,28,27,68,27c0,0,49,0,88,-43c0,0,38,-43,38,-113c0,0,0,-77,-53,-143c0,0,-53,-66,-169,-104Z" 
id="f1_g"
transform="scale(0.001,-0.001)" />

<path d="M474,-21L174,817c0,0,-34,94,-42,112c0,0,-15,28,-41,42c0,0,-26,14,-70,14v27H395V985H377c0,0,-40,0,-60,-18c0,0,-21,-18,-21,-44c0,0,0,-26,33,-120L528,235L696,718l-30,85l-24,68c0,0,-16,37,-35,66c0,0,-10,14,-24,24c0,0,-19,13,-38,19c0,0,-14,5,-44,5v27H894V985H867c0,0,-41,0,-61,-18c0,0,-19,-18,-19,-49c0,0,0,-38,33,-133L1015,235l193,557c0,0,32,93,32,129c0,0,0,17,-10,32c0,0,-11,15,-28,21c0,0,-28,11,-74,11v27h302V985c0,0,-39,0,-64,-15c0,0,-25,-14,-47,-53c0,0,-15,-26,-47,-124L990,-21H960L729,624L501,-21Z" 
id="f1_1n"
transform="scale(0.001,-0.001)" />

<path d="M30,0V27L485,632H260c0,0,-72,0,-94,-10c0,0,-22,-9,-36,-35c0,0,-20,-37,-23,-92H76l5,188H654V656L196,51H445c0,0,79,0,106,13c0,0,28,13,45,46c0,0,12,23,21,100h25L634,0Z" 
id="f1_2m"
transform="scale(0.001,-0.001)" />

<path d="M613,-21c0,0,-293,0,-445,186C168,165,54,306,54,490c0,0,0,134,64,256c0,0,76,145,209,224c0,0,111,64,262,64c0,0,55,0,100,-9c0,0,45,-9,128,-39c0,0,42,-16,56,-16c0,0,14,0,24,13c0,0,10,13,12,51h28L963,715H937c0,0,-40,119,-102,179c0,0,-91,88,-232,88c0,0,-193,0,-294,-153c0,0,-84,-129,-84,-307c0,0,0,-144,56,-263c0,0,56,-120,146,-175c0,0,91,-56,186,-56c0,0,56,0,109,15c0,0,52,14,100,41V376c0,0,0,77,-11,101c0,0,-12,23,-36,36c0,0,-24,12,-86,12v27h392V525h-18c0,0,-58,0,-80,-39c0,0,-15,-28,-15,-110V67C968,67,882,21,799,0c0,0,-84,-21,-186,-21Z" 
id="f1_17"
transform="scale(0.001,-0.001)" />

<path d="M578,166c0,0,66,0,109,13c0,0,44,12,74,51c0,0,31,39,31,93c0,0,0,46,-22,78c0,0,-21,33,-64,49c0,0,-44,16,-132,16H439V241c0,0,1,-48,4,-56c0,0,3,-11,12,-15c0,0,9,-4,47,-4ZM553,619c0,0,90,0,132,15c0,0,43,15,65,45c0,0,21,30,21,70c0,0,0,41,-20,70c0,0,-21,30,-59,42c0,0,-39,12,-139,12H439V619ZM58,0V144h42c0,0,41,0,55,7c0,0,15,7,21,20c0,0,6,13,6,59V810c0,0,0,46,-6,59c0,0,-6,13,-21,20c0,0,-14,8,-55,8H59v143H650c0,0,135,0,213,-31c0,0,77,-32,119,-91c0,0,42,-60,42,-130c0,0,0,-52,-22,-98c0,0,-22,-46,-64,-82c0,0,-41,-35,-109,-58c0,0,73,-19,111,-41c0,0,56,-32,89,-88c0,0,33,-56,33,-126c0,0,0,-82,-50,-152c0,0,-50,-70,-141,-106C871,37,780,0,604,0Z" 
id="f3_12"
transform="scale(0.001,-0.001)" />

<path d="M52,0V144H93c0,0,44,0,58,6c0,0,13,6,20,20c0,0,6,14,6,55V803c0,0,0,49,-6,64c0,0,-7,15,-22,24c0,0,-10,6,-51,6H52v143H559V897H513c0,0,-40,0,-53,-7c0,0,-13,-8,-20,-23c0,0,-6,-15,-6,-58V233c0,0,0,-47,5,-61c0,0,6,-13,18,-19c0,0,16,-9,47,-9h55V0Z" 
id="f3_19"
transform="scale(0.001,-0.001)" />

<path d="M611,148c0,0,117,0,187,88c0,0,83,105,83,281c0,0,0,124,-35,208c0,0,-36,84,-96,126c0,0,-61,42,-132,42c0,0,-118,0,-189,-89c0,0,-88,-112,-88,-289c0,0,0,-176,82,-279c0,0,71,-88,188,-88ZM608,-17c0,0,-231,0,-378,126C230,109,53,262,53,518c0,0,0,237,155,389c0,0,156,151,407,151c0,0,248,0,401,-151c0,0,153,-150,153,-386c0,0,0,-159,-70,-282c0,0,-70,-123,-193,-190c0,0,-124,-66,-298,-66Z" 
id="f3_1f"
transform="scale(0.001,-0.001)" />

<path d="M59,0V144h42c0,0,39,0,54,7c0,0,15,7,22,22c0,0,7,15,7,57V813c0,0,0,40,-5,52c0,0,-7,17,-21,24c0,0,-13,8,-42,8H59v143H530L711,408l185,632h481V897h-52c0,0,-41,0,-57,-18c0,0,-16,-17,-16,-66V222c0,0,0,-39,4,-48c0,0,7,-15,19,-21c0,0,16,-9,43,-9h59V0H876V144h39c0,0,42,0,57,6c0,0,15,7,22,21c0,0,7,14,7,51V862L748,0H604L359,835V202c0,0,0,-22,8,-34c0,0,8,-12,22,-18c0,0,15,-6,47,-6h50V0Z" 
id="f3_1d"
transform="scale(0.001,-0.001)" />

<path d="M63,0V144h49c0,0,31,0,46,8c0,0,16,8,23,22c0,0,7,14,7,48V812c0,0,0,37,-7,53c0,0,-7,17,-20,24c0,0,-13,8,-44,8H63v143H570V897H526c0,0,-37,0,-47,-4c0,0,-18,-8,-26,-23c0,0,-8,-15,-8,-49V226c0,0,0,-36,3,-44c0,0,4,-8,14,-13c0,0,10,-5,40,-5c0,0,100,0,161,26c0,0,61,27,110,84c0,0,49,58,84,158L994,385L857,0Z" 
id="f3_1c"
transform="scale(0.001,-0.001)" />

<path d="M59,0V144H85c0,0,52,0,70,7c0,0,18,8,25,26c0,0,4,11,4,64V808c0,0,0,46,-7,60c0,0,-6,14,-19,22c0,0,-14,7,-53,7H59v143H928L1046,712L911,663c0,0,-34,81,-80,130c0,0,-46,49,-102,65c0,0,-55,16,-129,16H441V615h52c0,0,59,0,80,9c0,0,20,8,29,26c0,0,9,19,9,73v40H744V322H611v45c0,0,0,45,-11,66c0,0,-11,21,-29,29c0,0,-19,7,-83,7H441V230c0,0,0,-38,4,-47c0,0,3,-8,14,-12c0,0,11,-5,47,-5h87c0,0,98,0,165,28c0,0,67,28,120,91c0,0,53,63,81,149l136,-47L959,0Z" 
id="f3_15"
transform="scale(0.001,-0.001)" />

<path d="M579,-17c0,0,-147,0,-266,70c0,0,-119,70,-189,197c0,0,-71,127,-71,277c0,0,0,149,69,271c0,0,69,123,187,191c0,0,119,69,265,69c0,0,149,0,260,-62l25,44H965L1067,667L928,627c0,0,-69,133,-130,189c0,0,-85,77,-185,77c0,0,-72,0,-135,-41c0,0,-63,-40,-100,-118c0,0,-37,-78,-37,-183c0,0,0,-161,85,-276c0,0,85,-116,222,-116c0,0,87,0,168,50c0,0,100,62,173,167l116,-86C1105,290,992,136,899,76c0,0,-144,-93,-320,-93Z" 
id="f3_13"
transform="scale(0.001,-0.001)" />

<path d="M561,-17c0,0,-97,0,-173,29c0,0,-76,29,-133,84c0,0,-57,55,-80,116c0,0,-22,61,-22,181V794c0,0,0,56,-6,72c0,0,-6,16,-20,23c0,0,-13,8,-52,8H27v143H536V897H486c0,0,-35,0,-49,-9c0,0,-15,-8,-22,-23c0,0,-6,-15,-6,-62V424c0,0,0,-106,21,-158c0,0,21,-52,64,-79c0,0,43,-28,105,-28c0,0,61,0,109,30c0,0,48,30,68,76c0,0,21,46,21,152V834c0,0,0,26,-7,37c0,0,-9,15,-24,21c0,0,-10,5,-53,5H673v143h429V897h-34c0,0,-49,0,-61,-6c0,0,-18,-9,-26,-26c0,0,-6,-12,-6,-62V393c0,0,0,-114,-33,-191C942,202,896,98,797,40c0,0,-100,-57,-236,-57Z" 
id="f3_1l"
transform="scale(0.001,-0.001)" />

<path d="M567,-17c0,0,-83,0,-152,21c0,0,-70,21,-145,71L237,0H126L52,404l140,33c0,0,49,-123,153,-205c0,0,104,-82,228,-82c0,0,56,0,93,14c0,0,37,14,56,39c0,0,18,25,18,52c0,0,0,45,-43,77c0,0,-44,32,-154,63L369,446c0,0,-40,11,-107,42c0,0,-68,31,-104,64c0,0,-36,34,-60,86c0,0,-24,53,-24,111c0,0,0,83,46,153c0,0,46,69,138,113c0,0,92,43,204,43c0,0,135,0,244,-70l29,52H842L932,692L792,652c0,0,-69,125,-157,183c0,0,-88,58,-187,58c0,0,-64,0,-101,-26c0,0,-37,-27,-37,-59c0,0,0,-36,34,-67c0,0,32,-32,121,-56L665,626c0,0,166,-47,237,-126c0,0,70,-80,70,-186c0,0,0,-135,-107,-229C865,85,745,-17,567,-17Z" 
id="f3_1j"
transform="scale(0.001,-0.001)" />

<path d="M200,-281l-84,93c0,0,98,89,124,124c0,0,26,35,42,85C282,21,268,10,253,5C253,5,238,0,223,0c0,0,-42,0,-75,36c0,0,-33,36,-33,86c0,0,0,60,42,100c0,0,41,41,101,41c0,0,44,0,85,-25c0,0,41,-25,63,-69c0,0,22,-43,22,-101c0,0,0,-93,-62,-183c0,0,-63,-90,-166,-166Z" 
id="f3_g"
transform="scale(0.001,-0.001)" />

<path d="M532,575c0,0,81,0,119,17c0,0,38,16,61,51c0,0,23,35,23,83c0,0,0,71,-55,113c0,0,-41,31,-121,31H443V575ZM61,0V144H96c0,0,46,0,61,6c0,0,15,7,22,22c0,0,7,14,7,60V804c0,0,0,48,-6,63c0,0,-6,15,-19,23c0,0,-13,7,-50,7H61v143H611c0,0,104,0,173,-21c0,0,69,-21,119,-64c0,0,49,-44,76,-103c0,0,27,-59,27,-126c0,0,0,-133,-102,-223c0,0,-103,-90,-284,-90H443V218c0,0,0,-37,5,-47c0,0,7,-14,21,-21c0,0,13,-6,46,-6h53V0Z" 
id="f3_1g"
transform="scale(0.001,-0.001)" />

<path d="M280,0V144h27c0,0,54,0,69,7c0,0,15,7,23,24c0,0,8,16,8,67V405L129,827c0,0,-33,49,-57,61c0,0,-18,9,-71,9v143H518V897H479c0,0,-41,0,-51,-7c0,0,-11,-6,-11,-20c0,0,0,-20,24,-59L579,586L730,821c0,0,20,31,22,34c0,0,3,9,3,17c0,0,0,13,-8,19c0,0,-9,6,-40,6H653v143h416V897c0,0,-55,-1,-77,-13c0,0,-22,-12,-52,-57L663,422V236c0,0,0,-49,6,-64c0,0,7,-14,22,-21c0,0,15,-7,60,-7h37V0Z" 
id="f3_1p"
transform="scale(0.001,-0.001)" />

<path d="M593,600c0,0,92,0,137,17c0,0,45,17,68,48c0,0,22,31,22,76c0,0,0,41,-21,71c0,0,-21,29,-60,43c0,0,-40,14,-128,14H439V600ZM55,0V144h46c0,0,37,0,52,8c0,0,16,7,23,23c0,0,4,9,4,56V816c0,0,0,35,-6,49c0,0,-5,15,-18,19c0,0,-18,8,-41,8H55v148H697c0,0,62,0,135,-11c0,0,74,-11,133,-49c0,0,60,-38,92,-96c0,0,33,-59,33,-132c0,0,0,-118,-84,-192c0,0,-85,-73,-201,-96L1019,215l9,-11c0,0,21,-25,38,-38c0,0,17,-12,34,-17c0,0,18,-5,48,-5h45V0H859L526,448H439V241c0,0,0,-54,6,-69c0,0,6,-14,19,-21c0,0,13,-7,52,-7h48V0Z" 
id="f3_1i"
transform="scale(0.001,-0.001)" />

<path d="M54,0V144H88c0,0,44,0,61,7c0,0,17,8,24,21c0,0,6,14,6,59V797c0,0,0,53,-6,69c0,0,-7,16,-20,23c0,0,-14,8,-53,8H54v143H561V897H515c0,0,-39,0,-53,-8c0,0,-14,-8,-20,-23c0,0,-6,-14,-6,-63V622H815V817c0,0,0,36,-4,48c0,0,-6,18,-20,25c0,0,-14,7,-63,7H688v143h510V897h-43c0,0,-43,0,-57,-7c0,0,-14,-8,-20,-21c0,0,-5,-14,-5,-66V239c0,0,0,-52,7,-67c0,0,7,-16,21,-22c0,0,15,-6,67,-6h30V0H688V144h34c0,0,47,0,64,7c0,0,17,8,23,22c0,0,6,14,6,66V460H436V239c0,0,0,-52,5,-65c0,0,7,-18,22,-24c0,0,16,-6,63,-6h35V0Z" 
id="f3_18"
transform="scale(0.001,-0.001)" />

<path d="M280,0V144h30c0,0,51,0,66,6c0,0,14,6,21,22c0,0,8,17,8,67V851c0,0,0,26,-6,33c0,0,-6,7,-26,7c0,0,-38,0,-86,-29c0,0,-48,-29,-85,-82c0,0,-15,-21,-63,-118L2,711l128,365h99l10,-36H826l13,36h99L1067,711L928,662c0,0,-46,91,-66,119c0,0,-40,55,-92,86c0,0,-38,24,-77,24c0,0,-18,0,-24,-9c0,0,-7,-8,-7,-39V244c0,0,0,-53,4,-66c0,0,3,-13,12,-21c0,0,9,-8,25,-11c0,0,16,-2,84,-2V0Z" 
id="f3_1k"
transform="scale(0.001,-0.001)" />

<path d="M59,0V144h44c0,0,37,0,51,6c0,0,14,6,22,22c0,0,8,16,8,47V816c0,0,0,34,-8,50c0,0,-7,16,-20,24c0,0,-12,7,-42,7H59v143H480L786,433V805c0,0,0,48,-5,60c0,0,-8,17,-20,25c0,0,-13,7,-49,7H661v143h428V897h-47c0,0,-36,0,-51,-9c0,0,-15,-8,-21,-22c0,0,-6,-14,-6,-61V0H750L364,767V230c0,0,0,-46,5,-59c0,0,6,-12,20,-20c0,0,15,-7,50,-7h50V0Z" 
id="f3_1e"
transform="scale(0.001,-0.001)" />

<path d="M433,0L117,807c0,0,-20,49,-30,62c0,0,-11,14,-30,21c0,0,-16,7,-49,7c-2,0,-4,0,-6,0v143H497V897H481c0,0,-47,0,-60,-4c0,0,-13,-4,-22,-16c0,0,-9,-12,-9,-24c0,0,0,-16,17,-65L591,271L787,802c0,0,15,39,15,54c0,0,0,21,-14,31c0,0,-14,10,-60,10H696v143h403V897c0,0,-50,0,-67,-12c0,0,-26,-17,-52,-83L668,0Z" 
id="f3_1m"
transform="scale(0.001,-0.001)" />

<path d="M514,166c0,0,122,0,191,38c0,0,69,38,111,121c0,0,43,83,43,199c0,0,0,113,-40,197c0,0,-40,84,-99,119c0,0,-59,34,-168,34H437V226c0,0,0,-33,4,-40c0,0,6,-12,17,-16c0,0,12,-4,56,-4ZM55,0V144H91c0,0,46,0,60,7c0,0,15,8,24,26c0,0,6,14,6,61V807c0,0,0,48,-6,62c0,0,-7,13,-21,21c0,0,-15,7,-62,7H56v143H601c0,0,186,0,296,-59c0,0,110,-58,175,-174c0,0,65,-116,65,-278c0,0,0,-112,-33,-201c0,0,-33,-89,-99,-160c0,0,-66,-71,-141,-107C864,61,807,34,703,17C703,17,599,0,536,0Z" 
id="f3_14"
transform="scale(0.001,-0.001)" />

<path d="M610,480L509,765L404,480ZM2,0V144c0,0,39,0,56,6c0,0,18,7,30,21c0,0,11,13,25,49l322,820H669L981,237c0,0,25,-64,45,-79c0,0,19,-14,68,-14c2,0,3,0,5,0V0H606V144h30c0,0,41,0,58,11c0,0,16,11,16,27c0,0,0,13,-14,55l-32,94H349L310,226c0,0,-12,-33,-12,-44c0,0,0,-11,8,-21c0,0,9,-10,28,-14c0,0,13,-3,71,-3V0Z" 
id="f3_11"
transform="scale(0.001,-0.001)" />

<path d="M59,0V144H92c0,0,57,0,74,14c0,0,18,15,18,59V815c0,0,0,41,-7,55c0,0,-7,13,-22,20c0,0,-16,7,-63,7H59v143H919L1037,709L902,662c0,0,-33,72,-63,109c0,0,-29,37,-70,61c0,0,-41,25,-89,33c0,0,-32,5,-114,5H438V594h66c0,0,37,0,58,12c0,0,22,11,31,29c0,0,9,18,9,60v55H736V284H602v67c0,0,0,29,-5,43c0,0,-7,18,-19,29c0,0,-12,11,-27,15c0,0,-15,5,-55,5H438V224c0,0,0,-39,7,-53c0,0,6,-14,21,-21c0,0,15,-6,58,-6h42V0Z" 
id="f3_16"
transform="scale(0.001,-0.001)" />

<path d="M495,160c0,0,61,0,122,27c0,0,-17,28,-29,62L548,388c0,0,-22,73,-35,102c0,0,-13,29,-26,45c0,0,-13,16,-34,32c0,0,-73,-37,-110,-92c0,0,-37,-56,-37,-119c0,0,0,-82,56,-139c0,0,55,-57,133,-57ZM453,713c0,0,19,0,38,12c0,0,20,12,28,33c0,0,12,26,12,59c0,0,0,52,-22,78c0,0,-23,25,-54,25c0,0,-34,0,-56,-27c0,0,-22,-27,-22,-80c0,0,0,-46,23,-73c0,0,22,-27,53,-27ZM434,-17c0,0,-169,0,-274,96C160,79,55,176,55,316c0,0,0,117,67,204c0,0,52,68,177,138c0,0,-52,33,-79,77c0,0,-26,45,-26,99c0,0,0,93,72,159c0,0,73,65,190,65c0,0,120,0,187,-60c0,0,67,-60,67,-151c0,0,0,-76,-38,-130c0,0,-30,-42,-90,-72c0,0,41,-19,65,-40c0,0,33,-29,67,-79c0,0,21,-33,84,-160c0,0,43,98,43,141c0,0,0,12,-7,21c0,0,-8,9,-20,11c0,0,-9,3,-59,3V684h366V542h-45c0,0,-38,0,-53,-8c0,0,-15,-7,-25,-25c0,0,-6,-10,-24,-83c0,0,-13,-47,-40,-105c0,0,-27,-58,-60,-105c0,0,33,-50,55,-65c0,0,22,-16,45,-16c0,0,26,0,44,17c0,0,17,18,17,46c0,0,0,26,-22,64c0,0,-22,35,-22,60c0,0,0,38,30,67c0,0,30,29,72,29c0,0,54,0,91,-44c0,0,37,-44,37,-123c0,0,0,-117,-82,-193c0,0,-83,-75,-218,-75c0,0,-68,0,-113,17c0,0,-45,17,-97,65c0,0,-119,-82,-277,-82Z" 
id="f3_a"
transform="scale(0.001,-0.001)" />

<path d="M261,-11c0,0,-58,0,-99,40c0,0,-41,41,-41,98c0,0,0,58,41,98c0,0,41,41,99,41c0,0,57,0,98,-41c0,0,41,-40,41,-98c0,0,0,-57,-41,-98c0,0,-41,-40,-98,-40Z" 
id="f3_i"
transform="scale(0.001,-0.001)" />


</defs>
</svg>